<?xml version="1.0" encoding="utf-8"?>
<!-- Generator: Adobe Illustrator 16.0.0, SVG Export Plug-In . SVG Version: 6.00 Build 0)  -->
<!DOCTYPE svg PUBLIC "-//W3C//DTD SVG 1.1//EN" "http://www.w3.org/Graphics/SVG/1.1/DTD/svg11.dtd">
<svg version="1.1" id="OBJECTS" xmlns="http://www.w3.org/2000/svg" xmlns:xlink="http://www.w3.org/1999/xlink" x="0px" y="0px"
	 width="1400px" height="980px" viewBox="0 0 1400 980" enable-background="new 0 0 1400 980" xml:space="preserve">
<g>
	<defs>
		<rect id="SVGID_1_" x="-0.732" y="-0.594" width="1401.465" height="981.188"/>
	</defs>
	<clipPath id="SVGID_2_">
		<use xlink:href="#SVGID_1_"  overflow="visible"/>
	</clipPath>
	<rect x="-0.732" y="-0.594" clip-path="url(#SVGID_2_)" fill="#48A7C7" width="1401.465" height="981.188"/>
	<path clip-path="url(#SVGID_2_)" fill="#1389A5" d="M1195.065,1218.009c0-34.858-5.431-68.444-15.462-99.979l0,0
		c-0.001-0.002-0.002-0.005-0.002-0.007c-42.338-133.086-166.915-229.506-314.028-229.506c-47.017,0-91.722,9.869-132.188,27.614
		l0,0c-0.005,0.002-0.009,0.004-0.014,0.006c-4.738,2.078-9.417,4.264-14.035,6.555c-0.14,0.069-0.28,0.14-0.42,0.209
		c-4.399,2.19-8.743,4.475-13.027,6.854c-0.491,0.272-0.98,0.547-1.471,0.822c-2.177,1.223-4.337,2.471-6.483,3.741
		c-0.631,0.373-1.266,0.742-1.895,1.12c-1.073,0.646-2.139,1.3-3.203,1.956c-0.935,0.576-1.865,1.158-2.793,1.744
		c-1.059,0.667-2.117,1.335-3.167,2.014c-1.51,0.976-3.01,1.965-4.503,2.964c-0.772,0.518-1.54,1.04-2.308,1.563
		c-1.348,0.92-2.689,1.851-4.023,2.789c-0.513,0.361-1.03,0.716-1.54,1.08c-1.767,1.259-3.517,2.541-5.257,3.834
		c-0.579,0.431-1.156,0.864-1.732,1.298c-1.588,1.196-3.167,2.404-4.733,3.628c-38.306,29.955-69.802,68.203-91.816,112.039
		c-0.048,0.096-0.095,0.191-0.143,0.287c-1.361,2.717-2.684,5.456-3.972,8.215c-0.259,0.555-0.521,1.109-0.778,1.666
		c-0.563,1.225-1.12,2.453-1.668,3.687c-0.48,1.078-0.951,2.161-1.42,3.245c-0.565,1.309-1.126,2.62-1.675,3.938
		c-0.645,1.545-1.28,3.096-1.901,4.653c-0.31,0.775-0.616,1.553-0.919,2.331c-0.715,1.833-1.417,3.673-2.099,5.521
		c-13.129,35.559-20.309,73.999-20.309,114.118c0,11.674,0.617,23.202,1.801,34.562h0c0.204,1.952,0.43,3.898,0.668,5.841
		c0.124,1.015,0.252,2.029,0.386,3.042c0.25,1.892,0.511,3.78,0.792,5.662c0.158,1.054,0.328,2.103,0.495,3.153
		c0.196,1.228,0.399,2.452,0.609,3.675c0.29,1.693,0.593,3.382,0.909,5.066c0.201,1.073,0.404,2.146,0.616,3.214
		c0.248,1.256,0.499,2.51,0.761,3.76c0.332,1.578,0.674,3.151,1.028,4.721c0.314,1.395,0.641,2.782,0.972,4.17
		c0.131,0.547,0.266,1.092,0.4,1.638c0.61,2.497,1.249,4.983,1.916,7.458c0.097,0.36,0.194,0.72,0.292,1.079
		c24.668,90.287,86.757,165.118,168.582,206.771l0,0c0.176,0.09,0.354,0.175,0.53,0.264c2.916,1.478,5.86,2.904,8.825,4.297
		c0.96,0.451,1.919,0.905,2.885,1.348c1.211,0.555,2.429,1.097,3.647,1.638c0.986,0.437,1.975,0.869,2.966,1.297
		c1.217,0.525,2.435,1.047,3.658,1.558c1.021,0.426,2.046,0.839,3.071,1.254c1.209,0.49,2.415,0.986,3.632,1.463
		c1.716,0.672,3.442,1.322,5.173,1.966c1.492,0.556,2.992,1.094,4.494,1.628c1.102,0.392,2.201,0.785,3.308,1.165
		c1.21,0.415,2.427,0.819,3.644,1.222c1.106,0.365,2.215,0.726,3.326,1.08c1.214,0.386,2.429,0.77,3.648,1.143
		c1.16,0.354,2.325,0.696,3.49,1.038c1.18,0.347,2.355,0.699,3.54,1.032c2.15,0.605,4.309,1.19,6.476,1.752
		c1.133,0.294,2.272,0.566,3.409,0.849c1.256,0.312,2.511,0.624,3.772,0.921c1.203,0.283,2.41,0.553,3.618,0.823
		c1.217,0.271,2.436,0.537,3.656,0.796c1.213,0.256,2.427,0.51,3.644,0.753c1.272,0.254,2.549,0.493,3.826,0.732
		c1.165,0.219,2.327,0.443,3.496,0.649c2.252,0.396,4.512,0.772,6.779,1.123l0,0c16.544,2.558,33.491,3.892,50.751,3.892
		c41.815,0,81.802-7.808,118.606-22.015l0,0c0.003-0.001,0.006-0.002,0.009-0.003c1.566-0.605,3.127-1.223,4.683-1.851
		c0.226-0.092,0.451-0.186,0.677-0.276c2.91-1.183,5.8-2.405,8.667-3.669c0.222-0.098,0.444-0.192,0.666-0.291
		c1.488-0.659,2.972-1.329,4.449-2.01c0.231-0.106,0.461-0.216,0.691-0.322c2.683-1.244,5.344-2.523,7.986-3.837
		c0.43-0.214,0.86-0.426,1.289-0.641c1.366-0.687,2.727-1.379,4.081-2.083c0.341-0.178,0.678-0.359,1.018-0.537
		c2.397-1.258,4.778-2.544,7.141-3.859c0.618-0.344,1.237-0.688,1.854-1.035c1.222-0.69,2.441-1.385,3.653-2.09
		c0.586-0.341,1.166-0.689,1.749-1.034c2.024-1.195,4.036-2.409,6.033-3.646c0.752-0.466,1.503-0.933,2.25-1.404
		c1.094-0.689,2.186-1.38,3.271-2.081c1.337-0.865,2.666-1.742,3.989-2.626c1.182-0.79,2.355-1.59,3.526-2.394
		c0.802-0.551,1.602-1.105,2.398-1.662c1.013-0.709,2.026-1.417,3.03-2.137c0.002-0.001,0.003-0.002,0.005-0.003l0,0
		C1140.709,1426.213,1195.065,1328.463,1195.065,1218.009z M820.918,1326.402c-2.963-1.222-5.869-2.555-8.704-4.007
		c-37.905-19.415-63.85-58.871-63.85-104.387c0-64.732,52.477-117.209,117.209-117.209c13.149,0,25.792,2.165,37.593,6.158
		c1.243,0.421,2.474,0.869,3.697,1.33c4.139,1.559,8.17,3.337,12.07,5.334c6.482,3.32,12.61,7.232,18.323,11.655
		c1.104,0.854,2.193,1.727,3.266,2.619c1.218,1.015,2.417,2.053,3.593,3.115c0.14,0.126,0.28,0.252,0.42,0.379
		c1.317,1.201,2.608,2.432,3.869,3.691c0.017,0.016,0.032,0.031,0.049,0.048c21.211,21.21,34.33,50.513,34.33,82.879
		c0,64.733-52.477,117.21-117.21,117.21c-14.645,0-28.659-2.694-41.583-7.601C822.959,1327.227,821.935,1326.822,820.918,1326.402z"
		/>
	<g clip-path="url(#SVGID_2_)">
		<g>
			<path fill="#1389A5" d="M828.48,544.268c-0.43,0.297-0.982,0.545-1.532,0.687l6.464-39.141c0.122-0.379,0.191-0.765,0.191-1.156
				c0-5.136-10.728-9.3-23.962-9.3c-13.233,0-23.961,4.164-23.961,9.3c0,0.392,0.069,0.777,0.19,1.156l5.59,33.84
				c-0.17,0.193-0.333,0.393-0.509,0.581c-2.944,3.18-6.819,5.699-11.127,6.17c0.049,3.684,0.608,7.541,1.78,11.057
				c-0.881,0.472-1.852,1.043-2.976,1.739c-6.663,4.13-13.151,8.572-19.719,12.854c-12.676,8.262-25.352,16.524-38.027,24.786
				c-3.634,2.369-7.317,4.784-10.29,7.917c-1.097-9.392-2.955-18.605-5.595-27.562c-0.009-0.031-0.019-0.063-0.028-0.096
				c-1.77-5.992-3.89-11.868-6.364-17.604c-0.124-0.286-0.245-0.572-0.37-0.857c-0.398-0.907-0.806-1.81-1.221-2.71
				c-0.18-0.39-0.363-0.777-0.546-1.166c-0.399-0.844-0.802-1.687-1.216-2.523c-0.218-0.441-0.444-0.88-0.667-1.319
				c-0.405-0.799-0.809-1.599-1.229-2.391c-0.044-0.083-0.088-0.164-0.132-0.246c0.003-0.176,0.012-0.352,0.013-0.527
				c0.016-3.818-0.509-7.713-2.197-11.139c-1.676-3.4-4.413-6.171-7.389-8.52c-2.244-1.771-4.65-3.332-7.127-4.796
				c-9.964-12.109-21.531-22.34-34.333-30.688c-3.233-8.662-4.618-18.339-7.314-27.388c-0.002-0.024-0.004-0.049-0.006-0.073
				c-0.608-5.301,0.064-10.577-0.541-15.915c-0.544-4.794-2.273-9.604-5.692-13.009c-1.686-1.678-3.725-2.965-5.85-4.034
				c-8.049-4.052-20.466-5.9-28.538-1.415c-3.771,0.703-7.418,2.411-9.05,5.539c-0.484,0.968-2.139,8.661-2.617,8.659
				c-3.275-0.015-6.834,0.292-9.762,2.004c-3.71,2.169-5.938,5.158-8.079,8.766c-1.871,3.151-3.292,6.442-4.4,9.832
				c-0.461-0.038-0.925-0.069-1.387-0.104c-2.701-0.205-5.417-0.359-8.146-0.458c-1.866-0.067-3.736-0.117-5.614-0.135
				c-35.094-0.335-72.125,7.996-107.446,25.01c5.866-10.272,11.732-20.544,17.598-30.816c3.887-6.807,7.941-13.546,11.672-20.439
				c0.658-1.216,1.189-2.256,1.616-3.194c4.694-3.256,3.437-12.784,7.869-17.183c0.43-0.426,0.907-0.857,1.292-1.33
				c0.819,2.218,2.568,4.381,5.044,5.931c4.811,3.011,10.516,2.569,12.741-0.987L478.21,411c0.431-4.475,6.035-12.501,0.261-14.309
				c-1.714-0.537-3.566-0.018-5.256,0.589c-1.69,0.606-3.427,1.315-5.215,1.15c-1.019-0.093-2.121-0.455-3.011,0.05
				c-1.105,0.626-1.227,2.219-2.164,3.076c-1.608,1.472-4.793,0.167-6.028,1.963c-0.536,0.779-0.418,1.812-0.546,2.749
				c-0.314,2.315-2.153,4.097-3.11,6.229c-1.458,3.25-1.838,7.558-1.106,11.626c-9.369,5.975-19.595,20.372-23.59,25.126
				c-2.931,3.488-5.862,6.975-8.793,10.463c-3.699,4.401-7.403,8.81-10.701,13.518c-6.063,8.655-18.437,28.214-16.162,39.56
				c0.267,1.331,0.766,2.409,1.432,3.289c-2.891,2.119-5.759,4.296-8.598,6.547c-1.69,1.34-3.354,2.697-5.002,4.065
				c-0.531,0.44-1.05,0.888-1.577,1.331c-1.116,0.94-2.228,1.885-3.325,2.838c-0.601,0.522-1.194,1.049-1.789,1.574
				c-1.017,0.898-2.026,1.802-3.026,2.712c-0.595,0.541-1.188,1.083-1.776,1.628c-1.011,0.936-2.01,1.879-3.003,2.825
				c-0.539,0.514-1.08,1.024-1.613,1.541c-1.137,1.102-2.257,2.212-3.37,3.327c-0.362,0.363-0.732,0.722-1.092,1.086
				c-1.478,1.498-2.936,3.008-4.371,4.529c-0.227,0.241-0.447,0.485-0.672,0.727c-1.196,1.277-2.378,2.561-3.543,3.854
				c-0.433,0.48-0.856,0.965-1.285,1.447c-0.954,1.073-1.899,2.15-2.832,3.233c-0.458,0.533-0.913,1.068-1.366,1.604
				c-0.904,1.067-1.798,2.139-2.681,3.216c-0.427,0.52-0.854,1.039-1.276,1.562c-0.944,1.168-1.873,2.342-2.793,3.521
				c-0.331,0.424-0.667,0.845-0.995,1.271c-2.524,3.272-4.959,6.583-7.3,9.929c-0.165,0.235-0.323,0.474-0.487,0.709
				c-0.99,1.424-1.964,2.854-2.92,4.291c-0.277,0.415-0.548,0.833-0.822,1.25c-0.842,1.281-1.672,2.566-2.488,3.856
				c-0.283,0.447-0.563,0.896-0.843,1.344c-0.821,1.317-1.627,2.639-2.421,3.965c-0.23,0.385-0.463,0.77-0.691,1.155
				c-0.92,1.556-1.822,3.118-2.704,4.685c-0.08,0.143-0.163,0.284-0.243,0.426c-2.004,3.577-3.906,7.181-5.709,10.808
				c-0.07,0.141-0.136,0.281-0.206,0.421c-0.805,1.627-1.588,3.257-2.352,4.893c-0.136,0.289-0.269,0.58-0.402,0.87
				c-0.706,1.525-1.394,3.054-2.064,4.586c-0.126,0.289-0.252,0.577-0.377,0.866c-0.708,1.637-1.396,3.275-2.063,4.918
				c-0.059,0.145-0.12,0.289-0.178,0.434c-2.25,5.571-4.265,11.177-6.043,16.803c-0.013,0.041-0.026,0.083-0.039,0.124
				c-0.566,1.795-1.105,3.591-1.623,5.388c-0.045,0.158-0.09,0.315-0.135,0.473c-0.498,1.744-0.973,3.488-1.425,5.234
				c-0.029,0.113-0.06,0.226-0.089,0.339c-1.942,7.551-3.455,15.115-4.529,22.657c-0.003,0.021-0.005,0.04-0.008,0.061
				c-0.261,1.838-0.495,3.674-0.705,5.509c-0.011,0.094-0.021,0.188-0.032,0.281c-0.208,1.849-0.392,3.694-0.546,5.538
				c0,0.001,0,0.001,0,0.001l0,0c-2.99,35.604,3.957,70.252,21.766,99.87c-2.42,2.002-4.604,3.953-6.447,5.669
				c-1.146,1.067-2.2,2.102-3.146,3.079c-9.571,9.894-18.39,20.683-24.644,32.945c-8.819,17.291-12.197,36.762-15.466,55.896
				c-1.369,8.011-8.817,73.87-6.305,91.102c-1.377,1.953-2.479,4.121-3.555,6.266c-1.147,2.288-2.294,4.576-3.441,6.863
				c-1.451,2.895-2.939,5.954-2.782,9.188c0.238,4.896,4.164,8.81,8.281,11.472c1.617,1.046,3.326,1.999,4.663,3.386
				c1.682,1.743,2.672,4.068,4.395,5.771c1.722,1.704,4.767,2.571,6.482,0.86c2.621-1.894,2.722-5.69,2.566-8.92
				c-0.386-8.034-0.772-16.068-1.159-24.102c-0.12-2.495-0.243-5.78-0.682-8.843c5.585-34.52,15.415-68.27,35.828-97.133
				c10.644-15.05,23.47-28.439,34.41-43.273c-7.283,24.265-15.195,48.396-26.926,70.807c-0.666,1.272-1.345,2.561-1.927,3.878
				c-1.325,0.996-2.436,2.3-3.194,3.921c-1.293,2.765-1.827,5.814-2.766,8.72c-1.982,6.132-5.73,11.513-9.427,16.792
				c-4.904,7.002-9.807,14.004-14.711,21.007c-1.269,1.812-2.598,4.016-1.842,6.094c0.92,2.53,4.419,3.087,6.925,2.101
				c2.505-0.987,4.469-2.991,6.841-4.266c3.504-1.882,7.633-2.055,11.551-2.746c3.918-0.691,8.092-2.217,10.041-5.686
				c1.85-3.292,1.284-7.663,3.587-10.656c1.737-2.258,4.666-3.154,7.091-4.648c6.537-4.028,8.973-12.718,7.148-20.225
				c16.153-18.765,30.803-38.822,43.762-59.919c2.625-4.273,5.185-8.62,7.365-13.131c67.802,28.62,158.396,14.27,231.207-43.464
				c59.115-46.873,93.051-111.679,97.091-173.223c11.535-0.307,28.406-12.459,36.133-18.578c4.507-3.569,8.689-7.526,12.866-11.478
				c3.31-3.131,6.618-6.261,9.928-9.392c5.003-4.733,21.391-17.811,25.144-28.137c1.022,0.102,2.097,0.119,3.234,0.026
				c5.501-0.45,10.611-2.9,15.575-5.311c1.29-0.626,2.623-1.286,3.524-2.401c1.106-1.37,1.398-3.226,2.308-4.733
				c1.563-2.595,4.653-3.771,6.983-5.707C829.399,550.135,830.835,546.175,828.48,544.268z M472.1,407.817
				c1.262-0.537,3.046,0.077,3.869-1.02c-0.054,1.871,0.563,3.745,1.68,5.244c-0.161,0.438-0.269,0.893-0.324,1.361
				c-0.817-0.41-1.852-0.411-2.483,0.274c-0.59,0.64-0.855,1.682-1.695,1.915c-1.138,0.316-1.911-1.121-2.213-2.263
				C470.408,411.338,470.207,408.623,472.1,407.817z"/>
			<path fill="#1389A5" d="M510.951,429.21c5.639-0.651,9.82-4.557,9.339-8.724l-20.419,2.356
				C500.352,427.009,505.313,429.86,510.951,429.21z"/>
			<path fill="#1389A5" d="M494.881,421.434l4.99,1.408C498.694,419.952,494.881,421.434,494.881,421.434z"/>
		</g>
	</g>
	<path clip-path="url(#SVGID_2_)" fill="#1389A5" d="M1127.759,547.409c-0.014-0.003-0.027-0.007-0.041-0.011
		c-0.265-0.064-0.532-0.124-0.807-0.171l-99.63-16.952l-20.428-3.477c-0.561-0.095-1.12-0.146-1.676-0.154
		c-0.701-0.012-1.394,0.052-2.073,0.171c-0.217,0.038-0.432,0.082-0.646,0.133c-2.566,0.611-4.874,2.129-6.441,4.345
		c-0.162,0.229-0.316,0.466-0.462,0.709L913.35,669.43c-0.001,0.002-0.002,0.004-0.003,0.005c-0.17,0.285-0.317,0.576-0.454,0.869
		c-2.827,5.834-0.005,12.962,6.246,15.165l123.48,43.521c5.266,1.855,11.086-0.522,13.546-5.534l78.784-160.521
		C1138.062,556.592,1134.473,549.089,1127.759,547.409z"/>
	<g clip-path="url(#SVGID_2_)">
		<g>
			<path fill="none" stroke="#74CEE2" stroke-width="2" stroke-miterlimit="10" d="M210.018-125.021
				C86.158,25.359-26.919,184.618-128.061,351.128"/>
			<path fill="none" stroke="#74CEE2" stroke-width="2" stroke-miterlimit="10" d="M616.141-139.4
				C562.042-67.36,474.222-29.254,409.534,33.451c-50.801,49.245-85.787,112.086-121.758,173.012
				C160.681,421.725,12.878,623.927-134.659,825.729"/>
			<path fill="none" stroke="#74CEE2" stroke-width="2" stroke-miterlimit="10" d="M836.348-125.821
				C636.475,180.496,436.531,486.915,224.204,784.734c-33.881,47.523-68.201,94.978-108.191,137.489
				C61.956,979.689-4.031,1030.528-32.766,1104.006"/>
			<path fill="none" stroke="#74CEE2" stroke-width="2" stroke-miterlimit="10" d="M1121.495-146.458
				c-11.063,26.263-26.602,50.359-42.059,74.302C821.561,327.3,563.684,726.756,305.808,1126.213"/>
			<path fill="none" stroke="#74CEE2" stroke-width="2" stroke-miterlimit="10" d="M1365.352-26.544
				c-224.956,375.864-467.002,741.5-725.14,1095.398"/>
			<path fill="none" stroke="#74CEE2" stroke-width="2" stroke-miterlimit="10" d="M1480.531,327.812
				c-8.547,25.664-23.543,48.608-38.378,71.228c-160.239,244.318-320.478,488.636-480.717,732.953"/>
			<path fill="none" stroke="#74CEE2" stroke-width="2" stroke-miterlimit="10" d="M1581.869,653.989
				c-104.991,163.478-213.225,324.874-324.614,484.061"/>
			<path fill="none" stroke="#74CEE2" stroke-width="2" stroke-miterlimit="10" d="M-181.94,735.848
				c90.638,44.67,171.526,106.583,258.319,158.327c104.67,62.403,217.493,109.766,330.331,155.784
				c91.386,37.271,183.341,73.896,278.689,99.374"/>
			<path fill="none" stroke="#74CEE2" stroke-width="2" stroke-miterlimit="10" d="M-151.943,380.077
				c59.264,43.109,114.65,92.016,178.291,128.355c50.832,29.024,106.007,49.491,160.896,69.826
				c113.338,41.988,226.677,83.978,340.015,125.966c69.569,25.773,139.138,51.547,208.707,77.319
				c44.918,16.641,89.835,33.282,134.753,49.923c200.476,74.27,400.95,148.54,601.427,222.811"/>
			<path fill="none" stroke="#74CEE2" stroke-width="2" stroke-miterlimit="10" d="M-73.983,31.054
				C152.549,112.7,379.082,194.346,605.615,275.992c59.367,21.396,118.759,42.803,177.093,66.875
				c54.125,22.335,107.288,46.944,161.367,69.388c253.015,105.008,524.174,161.898,775.586,270.688"/>
			<path fill="none" stroke="#74CEE2" stroke-width="2" stroke-miterlimit="10" d="M311.062-134.806
				c360.781,129.231,730.127,232.86,1099.11,336.375c68.631,19.254,137.263,38.508,205.894,57.761"/>
			<path fill="none" stroke="#74CEE2" stroke-width="2" stroke-miterlimit="10" d="M866.557-177.118
				c208.99,73.476,417.979,146.952,626.97,220.427"/>
		</g>
	</g>
	<path opacity="0.1" clip-path="url(#SVGID_2_)" fill="#FFFFFF" d="M578.146,163.502c-25.979,9.62-49.628,23.52-66.936,47.642
		c-6.969,9.712-12.756,20.624-22.157,28.007c-14.04,11.026-33.221,12.066-51.063,12.643c-1.197-38.436,31.707-68.733,63.848-89.845
		c11.668-7.665,24.768-16.55,26.984-30.334c-62.382,7.056-111.943,61.884-174.501,67.147c-4.641-14.54-2.506-31.093,5.673-43.979
		c-10.918-1.376-21.336,4.352-30.851,9.882c-44.682,25.968-90.009,52.438-125.72,89.794c-36.512,38.195-61.161,85.858-89.929,130.18
		c-2.979,4.59-6.24,9.358-11.167,11.738c-4.927,2.379-11.978,1.258-14.244-3.723c-0.886-1.948-0.929-4.161-0.956-6.301
		c-0.239-18.922-0.478-37.843-0.717-56.765c-7.33-2.131-15.288-2.054-22.575,0.221c2.061-32.024,11.45-63.555,27.243-91.489
		c-13.254,4.438-22,16.835-29.188,28.823c-37.004,61.724-57.522,131.75-75.665,201.392c-4.888,18.765-9.553,39.098-2.311,57.085
		c8.237-13.074,8.112-29.478,9.905-44.825c3.682-31.513,16.735-61.873,37.073-86.225c-0.306,24.075,0.516,48.165,2.463,72.163
		c0.861,10.609,5.549,24.45,16.155,23.554c4.801-0.406,8.668-4.067,11.585-7.902c10.725-14.104,18.475-35.847,36.19-35.528
		c-1.925,4.058,3.659,8.355,7.981,7.136s7.007-5.41,9.29-9.278c9.304-15.772,17.695-30.365,29.933-43.655
		c2.437-2.646,33.95-36.405,36.869-31.541c26.348,44.265,1.727,102.83,18.042,151.69c7.809,23.387,24.397,42.632,40.6,61.217
		c35.7,40.949,71.399,81.898,107.099,122.847c-27.663,13.533-60.962,15.036-89.732,4.05c-0.303,9.988-0.607,19.977-0.91,29.965
		c-25.928,7.543-54.364,16.991-67.737,40.449c-12.74,22.348-7.132,51.756,8.029,72.536s38.212,34.34,61.62,45.007
		c54.166,24.683,113.961,36.913,173.469,35.482c15.538-0.373,32.995-2.657,42.451-14.991c13.455-17.55,3.438-46.055,17.978-62.716
		c10.319-11.825,29.454-13.005,39.167-25.333c13.421-17.035,0.608-41.556-12.126-59.11c94.959,10.237,200.882,17.528,275.773-41.747
		c10.496-8.307,20.264-17.872,32.379-23.563c43.799-20.573,105.695,13.945,139.854-20.329
		c10.599-10.635,17.025-27.084,31.484-31.127c8.104-2.266,16.697,0.149,24.763,2.553c26.163,7.797,66.49,12.476,88.294,27.734
		c-11.139,15.744-47.408,19.188-65.2,23.091c-25.045,5.495-50.395,9.899-74.74,18.143c-67.58,22.883-124.377,75.771-152.012,141.552
		c-4.727-13.898,1.665-28.88,7.93-42.156c-17.647,1.022-30.073,17.138-40.003,31.763c-30.693,45.209-62.62,94.38-61.376,149.012
		c0.791,34.622,47.651,26.321,71.288,27.332c35.961,1.539,71.949,2.39,107.939,2.794c70.773,0.797,141.55-0.162,212.316-1.118
		c59.529-0.805,118.947-2.389,178.457-3.81c42.311-1.012,85.714-2.24,124.905-18.219c39.19-15.979,73.863-50.165,77.831-92.302
		c3.264-34.661-14.048-67.485-22.598-101.232c-19.309-76.213,6.363-157.176-4.922-234.982
		c-2.567-17.701-10.057-38.262-27.521-42.123c-16.702-3.694-31.807,10.338-42.035,24.049c-8.229,11.03-15.62,22.684-22.092,34.827
		c-4.598,8.628-8.762,19.053-4.485,27.845c3.29,6.763,10.578,10.383,16.823,14.573c29.307,19.668,40.048,62.57,23.465,93.728
		c-33.596-42.468-87.087-68.475-141.235-68.669c-4.073-31.108,3.312-63.589,20.436-89.878
		c14.206-21.811,35.226-40.354,41.077-65.717c3.936-17.062,0.36-35.097,3.61-52.302c2.216-11.73,7.513-22.611,11.57-33.838
		c9.606-26.584,12.257-55.649,7.616-83.532c-0.738-4.433-1.803-9.116-5.005-12.269c-3.23-3.179-7.968-4.154-12.427-4.966
		c-46.195-8.417-92.79-14.639-139.576-18.639c-38.428-3.286-82.353-3.06-108.782,25.03c-14.909,15.846-21.585,38.299-37.379,53.264
		c-14.865,14.085-37.246,19.72-57.009,14.354c-3.101-47.315-7.436-97.938-37.197-134.851
		c-12.193-15.123-28.214-27.238-38.016-44.009c-14.675-25.107-13.338-55.175-23.32-81.853c-15.691-41.93-42.477-31.492-80.91-26.447
		c-58.771,7.714-117.123,18.608-174.718,32.62C622.329,150.603,599.454,155.613,578.146,163.502z"/>
	<g opacity="0.34" clip-path="url(#SVGID_2_)">
		<g>
			<path fill="#FFFFFF" d="M351.347,861.552c3.975,5.023,10.124,8.043,13.828,13.27c2.869,4.048,4.148,9.259,7.861,12.55
				c4.54,4.025,11.271,3.989,17.333,3.729c0.999,0.639,0.718,2.307-0.229,3.021c-0.946,0.713-2.224,0.747-3.41,0.751
				c-3.848,0.015-7.695,0.028-11.543,0.042c-2.553,0.01-5.201-0.001-7.518-1.074c-5.261-2.438-6.769-9.127-10.577-13.5
				c-3.18-3.651-8.011-5.685-10.783-9.654c-2.946-4.218-2.993-9.741-2.929-14.886c0.092-7.402-0.562-28.028,9.3-29.535
				C347.085,836.981,342.962,850.955,351.347,861.552z"/>
			<path fill="#FFFFFF" d="M416.92,860.42c3.56,6.457,6.124,13.997,4.357,21.155c-0.816,3.307-2.518,6.337-4.506,9.103
				c-6.575,9.144-16.722,15.809-27.855,17.511c4.929,1.604,9.565-2.671,14.083-5.214c6.397-3.601,14.764-4.284,19.319-10.041
				c3.275-4.139,3.624-9.804,3.833-15.078c0.113-2.823,0.226-5.647,0.338-8.472c0.06-1.504,0.116-3.04-0.312-4.483
				c-0.438-1.479-1.356-2.761-2.275-3.999c-3.45-4.646-9.246-14.755-15.225-14.737C410.688,851.181,414.286,855.642,416.92,860.42z"
				/>
			<path fill="#FFFFFF" d="M337.203,828.514c-0.349,2.867-0.262,5.775-0.626,8.642c-1.014,7.973-5.473,15.311-5.741,23.342
				c-0.245,7.333,3.313,14.69,9.214,19.05c-5.792-0.507-10.095-5.486-13.235-10.38c-3.157-4.918-5.916-10.64-4.915-16.397
				c1.166-6.714,7.147-11.757,8.587-18.417c0.407-1.881,0.432-3.821,0.671-5.731c1.271-10.127,9.439-19.48,19.473-21.649
				C344.581,813,338.371,818.92,337.203,828.514z"/>
			<path fill="#FFFFFF" d="M465.835,806.418c-1.714,1.953-4.287,2.919-6.818,3.505c-6.988,1.618-14.368,0.892-21.335,2.599
				c-10.299,2.523-19.54,10.277-30.1,9.312c5.957,0.271,11.958,0.39,17.849-0.537c3.281-0.516,6.502-1.353,9.718-2.188
				c5.319-1.382,10.638-2.763,15.957-4.145c5.282-1.372,10.571-2.746,15.717-4.56c3.812-1.344,8.03-3.484,8.878-7.436
				c0.639-2.976-2.313-10.088-6.242-9.13C466.185,794.639,468.55,803.324,465.835,806.418z"/>
			<path fill="#FFFFFF" d="M353.41,780.209c-1.794,0.965-3.839,1.331-5.842,1.707c-5.585,1.048-11.208,2.289-16.29,4.832
				c-5.083,2.542-9.638,6.533-11.819,11.781c0.266-5.119,2.625-10.099,6.417-13.548c3.472-3.157,7.932-4.963,12.29-6.706
				c5.603-2.24,18.292-10.445,23.522-6.782C359.511,774.551,356.825,778.375,353.41,780.209z"/>
			<path fill="#FFFFFF" d="M483.376,796.196c1.771,5.494,1.802,11.835-1.28,16.716c-3.098,4.905-8.779,7.57-14.4,9.006
				c-5.621,1.436-11.482,1.908-16.984,3.751c-4.644,1.556-8.909,4.047-13.136,6.521c3.282-0.682,6.563-1.362,9.845-2.044
				c11.578-2.403,23.259-4.839,34.063-9.645c1.788-0.795,3.576-1.672,5.023-2.988c4.839-4.4,4.456-11.985,3.694-18.481
				c-0.167-1.427-0.361-2.924-1.206-4.086c-0.767-1.054-1.964-1.688-3.08-2.359c-2.806-1.691-5.316-3.848-7.42-6.356
				C480.46,789.335,482.246,792.691,483.376,796.196z"/>
			<path fill="#FFFFFF" d="M730.244,684.718c34.62-12.316,68.826-28.038,95.749-53.046c-2.842,13.913-16.763,22.279-29.49,28.576
				c-21.515,10.644-43.58,20.289-66.391,27.814c-17.241,5.688-41.879,15.89-60.23,11.989
				C690.459,695.979,710.316,691.807,730.244,684.718z"/>
			<path fill="#FFFFFF" d="M866.351,631.378c-18.035,23.73-39.804,45.126-66.04,59.27c-9.045,4.875-18.802,9.034-25.842,16.519
				c22.348-10.567,44.02-22.562,64.841-35.886c8.349-5.342,16.616-10.942,23.656-17.92c7.809-7.738,13.925-16.985,19.981-26.16
				c14.777-22.904,31.831-47.404,34.318-75.396C896.896,574.724,885.171,606.615,866.351,631.378z"/>
			<path fill="#FFFFFF" d="M666.094,721.984c24.481-0.348,48.963-0.695,73.445-1.044c-15.607,5.674-32.384,7.106-48.932,8.491
				c-12.717,1.064-25.435,2.128-38.152,3.192c-12.226,1.022-24.49,2.047-36.747,1.52c-25.989-1.118-51.636-9.366-73.405-23.606
				c5.751,3.763,22.723-0.368,29.9,0.83c9.521,1.591,18.647,5.622,28.252,7.343C622.086,722.585,644.206,722.296,666.094,721.984z"
				/>
			<path fill="#FFFFFF" d="M387.311,464.999c-4.04,35.401-2.076,71.179-0.107,106.755c-6.022-18.436-8.151-37.914-9.167-57.281
				c-1.018-19.384-0.956-38.806-0.894-58.217c0.04-12.46,0.1-25.083,3.286-37.129c7.08-26.77,28.692-48.593,49.277-65.938
				c-6.428,17.337-20.273,31.584-27.292,49.209C394.446,422.406,389.748,443.636,387.311,464.999z"/>
			<path fill="#FFFFFF" d="M339.451,511.372c0.006,6.019,0.014,12.062,0.89,18.018c1.78,12.097,7.072,23.387,12.963,34.102
				c16.948,30.826,40.285,59.292,71.479,75.554c-12.895-6.636-27.515-9.579-40.042-16.885c-9.067-5.287-16.736-12.699-23.493-20.73
				c-36.373-43.23-48.31-112.296-22.401-163.741C335.583,460.94,339.426,487.704,339.451,511.372z"/>
			<path fill="#FFFFFF" d="M475.965,275.904c-13.991,18.328-38.145,25.438-55.744,40.335c-9.989,8.455-17.667,19.256-25.232,29.935
				c-7.723,10.9-14.901,22.9-23.647,32.946c-3.894-7.555,10.25-25.427,14.672-31.951c7.365-10.871,15.863-20.971,25.289-30.11
				c9.425-9.139,19.787-17.318,30.883-24.337c5.323-3.367,10.815-6.469,16.453-9.278
				C462.571,281.484,473.482,279.111,475.965,275.904z"/>
			<path fill="#FFFFFF" d="M964.15,328.243c9.611,27.617,6.894,57.8,4.058,86.904c-0.958,9.835-1.916,19.67-2.874,29.504
				c1.444-8.085,2.89-16.171,4.334-24.256c4.152-23.24,8.321-46.871,5.688-70.332c-1.854-16.527-8.246-41.26-22.67-51.312
				C949.587,306.32,961.513,320.663,964.15,328.243z"/>
			<path fill="#FFFFFF" d="M709.176,171.29c-7.796-1.196-21.58,5.034-29.625,6.562c-10.919,2.075-21.893,3.853-32.854,5.687
				c-21.077,3.527-42.028,7.364-62.631,13.1C625.251,177.945,662.877,164.188,709.176,171.29z"/>
			<path fill="#FFFFFF" d="M974.78,561.08c-0.122,5.558,5.66,9.187,10.775,11.362c14.221,6.05,29.262,10.021,43.432,16.189
				c1.098,0.478,2.311,1.103,2.638,2.254c0.762,2.676-3.434,3.641-6.164,3.109c-18.555-3.608-36.708-9.275-54.021-16.862
				c-0.996-0.438-2.03-0.911-2.706-1.765c-1.016-1.282-0.975-3.085-0.81-4.713c1.14-11.251,7.074-32.963,19.395-36.948
				C984.885,542.486,974.986,551.671,974.78,561.08z"/>
			<path fill="#FFFFFF" d="M1020.116,607.598c4.082,1.1,8.097,2.436,12.108,3.77c5.923,1.971,11.846,3.94,17.769,5.911
				c3.399,1.131,6.839,2.28,9.851,4.221c5.349,3.444,9.692,9.464,16.05,9.699c-9.194-3.874-18.688-7.038-28.368-9.452
				c-6.064-1.513-12.235-2.743-18.026-5.098c-8.556-3.478-20.233-14.41-29.771-12.562
				C1006.612,604.75,1013.43,605.798,1020.116,607.598z"/>
			<path fill="#FFFFFF" d="M1228.591,639.509c-5.283,6.599-13.358,10.599-21.687,12.046c-8.329,1.448-16.919,0.519-25.146-1.426
				c-4.749-1.122-9.895-2.551-14.343-0.545c15.484,1.447,31.025,2.274,46.576,2.481c7.016,0.093,14.977-0.352,19.529-5.69
				c1.482-1.738,2.445-3.849,3.39-5.929c2.78-6.124,7.132-13.08,8.344-19.538C1236.434,619.87,1233.673,634.427,1228.591,639.509z"
				/>
			<path fill="#FFFFFF" d="M1119.824,324.91c6.104-2.409,13.085-3.175,18.101-7.408c-13.229-2.855-27.362,2.979-36.681,12.795
				c-7.595,8-15.751,21.982-15.459,33.236C1097.856,350.374,1101.23,332.247,1119.824,324.91z"/>
			<path fill="#FFFFFF" d="M887.507,837.801c-18.969,29.412-37.983,58.903-53.464,90.291c-12.698,25.749-23.107,53.367-23.739,82.07
				c-2.238-18.624-3.596-37.878,1.862-55.824c3.16-10.391,8.498-19.962,13.797-29.441c11.229-20.09,22.477-40.194,34.896-59.581
				c6.272-9.791,12.831-19.405,19.827-28.695c4.565-6.062,11.907-19.902,20.244-20.476
				C897.86,823.538,891.963,830.892,887.507,837.801z"/>
			<path fill="#FFFFFF" d="M772.605,1086.913c-12.064-22.117-12.169-48.561-11.976-73.753c0.085-11.089,0.177-22.253,2.294-33.139
				c1.777-9.14,4.955-17.938,8.121-26.694c3.474-9.606,6.947-19.214,10.421-28.821c2.597-7.181,5.13-15.173,9.891-21.216
				c0.608,12.431-8.841,29.391-11.552,42.003c-3.342,15.548-5.385,31.351-6.604,47.198c-1.207,15.701-1.577,31.456-1.551,47.199
				c0.014,8.204,0.147,16.407,0.332,24.608C772.106,1069.8,770.042,1082.215,772.605,1086.913z"/>
			<path fill="#FFFFFF" d="M291.481,95.125c-29.93,29.64-46.43,71.583-79.404,97.794c-8.561,6.805-18.084,12.409-26.088,19.86
				c-7.864,7.322-14.051,16.231-20.07,25.131c-28.277,41.815-54.805,86.433-63.768,136.11
				c-1.511-31.329,13.629-60.769,28.354-88.462c17.2-32.347,34.539-64.906,57.438-93.502c12.354-15.425,26.22-29.562,40.061-43.668
				c29.312-29.876,59.033-60.081,94.832-81.767c31.431-19.041,67.393-32.076,103.154-40.224
				C379.452,42.258,327.173,59.778,291.481,95.125z"/>
		</g>
	</g>
	<g clip-path="url(#SVGID_2_)">
		
			<ellipse transform="matrix(0.6213 0.7836 -0.7836 0.6213 595.2812 -368.3108)" fill="#C9AD36" cx="678.683" cy="431.703" rx="226.778" ry="280.45"/>
		<path fill="#FCDF43" d="M537.784,254.007c-71.464,56.665-113.072,134.596-119.332,209.139
			c6.624,24.648,17.938,47.806,34.23,68.353c77.816,98.139,239.285,99.684,360.651,3.45
			c71.464-56.665,113.071-134.596,119.332-209.139c-6.624-24.648-17.938-47.806-34.23-68.353
			C820.619,159.319,659.15,157.774,537.784,254.007z"/>
		<path opacity="0.23" fill="#231F20" d="M581.895,298.981c-31.611,25.065-57.541,59.606-73.992,96.418
			c-7.746,17.333-8.567,36.868-8.807,55.853c-0.179,14.22-0.038,28.806,5.001,42.105c8.938,23.587,32.215,39.353,56.562,45.947
			c24.347,6.594,50.021,5.459,75.228,4.519c6.475-0.241,12.969-0.469,19.374-1.449c5.889-0.902,11.662-2.435,17.393-4.062
			c22.719-6.452,45.111-14.513,65.99-25.637c20.632-10.991,35.143-24.955,51.344-41.241c30.874-31.037,53.507-71.479,59.431-115.188
			c0.381-2.808,0.692-5.625,0.929-8.45c-4.502-16.757-12.194-32.5-23.271-46.469C774.176,234.609,664.403,233.559,581.895,298.981z"
			/>
		<path opacity="0.64" fill="#231F20" d="M600.115,364.223c-5.718,6.49-11.489,13.032-18.419,18.208
			c-8.419,6.29-18.254,10.351-27.974,14.348c-11.751,4.832-23.642,9.704-36.203,11.618c4.203,4.957,12.135,1.05,18.629,1.28
			c6.899,0.245,12.695,5.822,15.329,12.203c2.635,6.381,2.744,13.481,2.814,20.384c0.197,19.154,0.393,38.308,0.589,57.462
			c0.106,10.335,0.669,21.812,7.994,29.104c7.708,7.672,19.947,7.79,30.799,7.077c20.905-1.372,41.786-3.988,62.089-9.152
			c11.143-2.834,22.173-6.446,33.622-7.5c11.449-1.053,23.665,0.738,32.791,7.731c3.843-24.886,12.155-48.843,20.987-72.424
			c8.541-22.805,17.73-45.644,31.667-65.613c13.938-19.969,33.16-37.074,56.418-44.29c3.084-0.957,6.562-1.999,8.073-4.852
			c0.873-1.648,0.896-3.598,0.897-5.463c0.006-4.786,0.013-9.571,0.019-14.356c0.015-10.819-0.509-22.954-8.391-30.366
			c-5.376-5.055-13.025-6.706-20.283-8.036c-37.509-6.875-75.584-10.648-113.712-11.29c-12.288-0.207-39.126-5.39-45.17,6.64
			c-3.287,6.542-3.874,15.374-6.822,22.336c-3.228,7.623-7.261,14.883-11.714,21.853
			C624.271,336.574,612.208,350.495,600.115,364.223z"/>
	</g>
	<g clip-path="url(#SVGID_2_)">
		<path fill="#169C9F" d="M803.082,140.502c10.142,1.191,18.783,7.87,25.895,15.198c3.113,3.208,6.058,6.602,8.48,10.358
			c12.964,20.1,9.795,48.301,25.305,66.509c11.042,12.963,28.945,17.633,42.312,28.183c3.667,2.894,7.041,6.309,9.105,10.499
			c2.08,4.222,2.727,9.021,2.707,13.728c-0.077,18.168-11.208,36.58-28.39,42.488c-6.138,2.111-12.715,2.624-19.206,2.576
			c-21.949-0.162-43.432-6.524-63.721-14.9c-11.826-4.883-23.559-10.598-32.93-19.308c-11.97-11.125-19.347-26.582-22.702-42.574
			c-3.356-15.992-2.917-32.564-1.025-48.794c1.348-11.572,3.633-22.796,9.616-32.877c2.64-4.446,5.385-8.129,9.957-10.803
			c3.608-2.11,7.995-2.488,12.03-2.47c0.59,0.003,2.629-9.478,3.226-10.671C786.987,141.423,796.692,139.752,803.082,140.502z"/>
		<path opacity="0.23" fill="#231F20" d="M914.18,271.249c-2.064-4.19-5.438-7.605-9.105-10.499
			c-1.075-0.848-2.187-1.647-3.314-2.426c-1.069,0.186-2.133,0.387-3.183,0.603c-9.091,1.867-18.38,4.487-27.503,2.792
			c-6.44-1.197-12.514-4.517-19.064-4.481c-6.521,0.036-12.49,3.379-18.65,5.518c-9.004,3.126-19.181,3.651-27.943-0.097
			s-15.737-12.216-16.246-21.733c-0.18-3.361,0.413-6.749-0.004-10.089c-1.404-11.235-13.655-18.071-24.938-19.027
			c-5.371-0.455-11.134-0.111-15.813-2.663c-1.438,14.724-1.511,29.655,1.523,44.112c3.355,15.992,10.732,31.45,22.702,42.574
			c9.371,8.71,21.104,14.425,32.93,19.308c20.289,8.376,41.771,14.739,63.721,14.9c6.491,0.048,13.068-0.465,19.206-2.576
			c17.182-5.908,28.312-24.32,28.39-42.488C916.907,280.27,916.26,275.47,914.18,271.249z"/>
		<path fill="#EDC18C" d="M701.266,212.445c-11.024,1.163-21.487,5.256-32.129,8.359c-25.766,7.513-53.195,9.26-79.705,5.077
			c-7.592-1.198-15.299-2.879-22.891-1.674c-7.591,1.205-15.212,6.131-16.886,13.633c-1.532,6.868,2.374,14.042,7.935,18.354
			c5.561,4.312,12.52,6.326,19.322,8.126c36.695,9.712,74.223,15.862,111.683,21.997c5.56,0.911,11.313,1.814,16.769,0.409
			c3.895-1.003,7.416-3.142,10.544-5.67c13.787-11.147,17.456-27.894,15.982-44.726
			C730.232,217.397,721.286,210.333,701.266,212.445z"/>
		<path opacity="0.23" fill="#231F20" d="M649.103,248.385c-30.807,7.594-62.924,6.608-94.683,4.822
			c0.967,1.096,2.031,2.104,3.169,2.987c5.561,4.312,12.52,6.326,19.322,8.126c34.104,9.027,68.93,14.976,103.75,20.696
			c5.195-9.883,7.789-25.435,3.572-34.808C678.5,237.461,658.907,245.968,649.103,248.385z"/>
		<path fill="#EDC18C" d="M574.521,424.282c-3.62,5.676-7.378,11.269-11.162,16.945c-10.605,15.652-21.44,25.231-34.198,38.536
			c-24.715,25.773-45.353,58.128-55.552,92.552c-3.177,9.804-4.686,22.78,3.976,28.363c4.606,2.969,10.572,2.577,15.96,1.572
			c12.313-2.295,24.122-7.259,34.376-14.449c8.826-6.189,16.427-13.936,23.973-21.634c13.044-13.308,26.088-26.615,39.132-39.923
			c16.164-16.49,32.436-33.114,45.139-52.397c12.703-19.283,21.755-41.626,21.845-64.717c0.058-14.94-4.232-31.094-15.797-41.369
			c-7.436-6.606-19.101-9.394-27.495-4.059c-3.539,2.25-6.158,5.661-8.623,9.054c-7.718,10.623-14.696,21.784-20.867,33.374
			C581.893,412.397,578.282,418.385,574.521,424.282z"/>
		<path opacity="0.17" fill="#231F20" d="M655.731,421.013c-0.021-0.321-0.045-0.642-0.074-0.962
			c-9.821,0.479-18.779,5.846-26.215,12.279s-13.797,14.042-21.333,20.358c-12.308,10.317-27.283,16.818-41.006,25.161
			c-26.821,16.305-42.943,37.738-59.958,63.368c-4.637,6.984-9.488,15.146-7.275,23.232c0.168,0.614,0.402,1.255,0.911,1.638
			c0.648,0.486,1.543,0.417,2.345,0.299c4.29-0.63,8.428-2.012,12.54-3.388c20.511-6.861,41.138-13.784,61.061-22.164
			c4.767-4.862,9.533-9.726,14.3-14.589c16.164-16.49,32.436-33.114,45.139-52.397C645.994,458.93,656.928,439.406,655.731,421.013z
			"/>
		<path fill="#EDC18C" d="M437.331,593.211c-1.412,1.315-2.711,2.59-3.877,3.795c-11.795,12.192-22.663,25.489-30.371,40.602
			c-10.869,21.31-15.032,45.305-19.06,68.885c-1.927,11.279-13.633,115.609-5.643,117.322c5.298,1.096,10.928,0.528,15.901-1.603
			c6.853-42.908,18.961-84.894,44.327-120.759c13.35-18.877,29.493-35.63,43.128-54.301c12.476-17.083,41.533-59.222,14.583-76.187
			C477.43,559.076,450.476,580.971,437.331,593.211z"/>
		<path opacity="0.17" fill="#231F20" d="M387.183,824.122c2.439-0.313,4.837-0.941,7.098-1.91
			c6.853-42.908,18.961-84.894,44.327-120.759c13.35-18.877,29.493-35.63,43.128-54.301c10.444-14.302,32.502-46.16,23.599-66.11
			c-0.736,0.383-1.443,0.817-2.096,1.338c-3.149,2.513-2.674,5.004-4.589,8.293c-2.22,3.812-6.444,6.386-10.6,7.56
			c-5.828,1.645-12.005,1.181-18.059,1.311c-1.368,0.03-2.885,0.155-3.822,1.151c-1.169,1.242-0.896,3.19-0.882,4.896
			c0.065,7.916-6.739,13.881-12.249,19.566c-10.619,10.959-18.034,24.553-25.315,37.964c-9.064,16.693-18.18,33.507-23.997,51.59
			c-3.945,12.265-6.325,24.975-8.378,37.694C391.512,776.166,388.792,800.107,387.183,824.122z"/>
		<path fill="#EDC18C" d="M395.293,832.058c0.476,9.9,0.952,19.801,1.428,29.702c0.191,3.98,0.067,8.659-3.163,10.993
			c-2.114,2.108-5.866,1.04-7.988-1.06c-2.123-2.1-3.343-4.966-5.416-7.114c-1.647-1.708-3.754-2.884-5.747-4.172
			c-5.074-3.28-9.913-8.103-10.206-14.138c-0.193-3.985,1.641-7.757,3.429-11.323c1.414-2.819,2.827-5.64,4.241-8.459
			c1.963-3.915,3.981-7.906,7.099-10.983C394.288,800.389,394.797,821.731,395.293,832.058z"/>
		<path opacity="0.17" fill="#231F20" d="M395.293,832.058c-0.366-7.615-0.747-21.203-7.06-21.762
			c-1.49,17.528-2.392,35.108-2.687,52.698c-0.052,3.14-0.073,6.362,1.013,9.31c0.036,0.1,0.083,0.192,0.122,0.29
			c2.152,1.452,5.095,1.937,6.876,0.159c3.23-2.334,3.354-7.013,3.163-10.993C396.245,851.858,395.77,841.958,395.293,832.058z"/>
		<path fill="#F28466" d="M799.668,254.393c17.058,3.673,41.619,1.719,39.821,26.121c-0.625,8.475-4.813,16.27-9.572,23.311
			c-27.039,40.014-75.845,66.831-87.064,113.803c-3.137,13.136-2.948,26.84-5.274,40.144c-3.552,20.319-13.008,33.699-33.05,39.201
			c-23.719,6.511-49.424,5.582-72.611-2.625c-8.46-2.994-17.226-7.556-20.917-15.736c-1.549-3.434-1.197-6.825-2.063-10.294
			c-0.898-3.593-3.168-7.047-4.261-10.657c-2.256-7.454-3.083-15.399-1.767-23.109c0.979-5.738,3.092-11.211,4.722-16.8
			c5.424-18.6,1.268-37.772,6.792-56.111c6.178-20.511,23.041-36.75,27.947-57.602c3.089-13.126,1.136-26.934,3.129-40.27
			c1.992-13.336,9.979-27.593,23.292-29.736c4.612-0.743,9.347,0.074,13.992-0.424c14.808-1.59,16.205-17.775,27.005-20.095
			c11.051-2.374,28.118,11.767,37.144,16.794C763.814,239.71,780.521,250.269,799.668,254.393z"/>
		<path opacity="0.17" fill="#231F20" d="M751.851,394.689c0.199-0.361,0.409-0.716,0.611-1.075c0.169-0.299,0.338-0.598,0.51-0.896
			c1.312-2.271,2.704-4.496,4.164-6.675c0.196-0.293,0.396-0.586,0.595-0.878c0.61-0.896,1.23-1.784,1.862-2.666
			c0.149-0.208,0.295-0.418,0.445-0.626c0.752-1.037,1.52-2.062,2.297-3.079c0.229-0.3,0.462-0.597,0.693-0.896
			c0.626-0.808,1.259-1.609,1.899-2.405c0.207-0.258,0.413-0.518,0.622-0.775c0.094-0.115,0.186-0.232,0.279-0.347
			c0.177-0.217,0.364-0.426,0.543-0.643c1.008-1.221,2.033-2.434,3.076-3.639c0.36-0.417,0.72-0.834,1.083-1.248
			c1.229-1.401,2.474-2.794,3.742-4.176c0.21-0.229,0.424-0.455,0.636-0.683c1.137-1.23,2.286-2.455,3.446-3.674
			c0.362-0.38,0.725-0.759,1.088-1.138c1.208-1.259,2.425-2.515,3.652-3.766c0.094-0.096,0.187-0.194,0.281-0.29
			c1.639-1.669,3.276-3.585,5.035-5.297c0.664-0.647,1.348-1.259,2.052-1.823c8.197-8.163,16.507-16.316,24.177-24.881
			c0.338-3.219,0.27-6.48-0.239-9.677c-0.76-4.777-2.547-9.528-5.912-13.003s-8.488-5.463-13.177-4.272
			c-5.042,1.282-8.518,5.71-12.257,9.328c-2.674,2.587-5.65,4.862-8.849,6.764c-2.663,1.582-5.501,2.914-8.514,3.631
			c-3.374,0.803-6.878,0.821-10.346,0.833c-10.095,0.038-19.601,1.112-28.933-3.354c-7.823-3.743-14.58-9.772-18.985-17.26
			c-1.065-1.812-2.03-3.74-3.584-5.155c-1.838-1.674-4.308-2.455-6.731-3.004c-10.108-2.288-20.914-1.375-30.597-5.07
			c-8.787-3.353-15.822-10.675-19.335-19.343c-0.347-0.855-0.619-2.239-0.913-3.74c0,0.001,0,0.001,0,0.002
			c-0.147,0.623-0.28,1.246-0.403,1.869c-0.018,0.092-0.035,0.184-0.053,0.276c-0.116,0.608-0.222,1.216-0.313,1.822
			c0,0.002,0,0.004-0.001,0.007c-0.249,1.667-0.437,3.341-0.58,5.021c-0.143,1.68-0.243,3.364-0.315,5.052
			c-0.073,1.688-0.119,3.378-0.156,5.069c-0.111,5.073-0.142,10.151-0.566,15.174c-0.282,3.349-0.739,6.673-1.512,9.955
			c-0.04,0.172-0.088,0.341-0.13,0.512c3.692,3.804,8.276,6.81,12.769,9.705c6.153,3.965,12.357,7.957,19.167,10.643
			c5.592,2.206,11.583,3.529,16.75,6.602c8.724,5.189,14.109,15.079,15.042,25.187c0.972,10.525-1.251,20.38-11.598,24.707
			c-10.882,4.55-22.688,6.877-34.484,6.796c6.213,1.593,12.81,3.411,17.08,8.196c3.067,3.437,4.567,8.218,4.014,12.791
			c-1.574,13-20.312,18.721-30.577,23.309c-9.284,4.149-18.478,10.764-26.611,16.928c-3.005,2.277-6.006,4.694-9.556,5.965
			c-3.446,1.232-7.586,1.163-10.456-1.073c0.024,0.102,0.043,0.204,0.068,0.306c0.699,1.38,1.48,4.859,1.874,5.83
			c0.651,1.507,1.387,3.001,2.028,4.502c0.07,0.163,0.14,0.325,0.208,0.489c0.059,0.145,0.116,0.29,0.173,0.434
			c0.115,0.291,0.223,0.584,0.327,0.88c0.039,0.112,0.08,0.224,0.117,0.336c0.134,0.406,0.26,0.816,0.364,1.234
			c0,0.002,0,0.004,0.001,0.006c0.131,0.525,0.229,1.048,0.315,1.571c0.511,0.271,1.031,0.521,1.56,0.74
			c5.095,2.104,10.761,2.215,16.273,2.286c16.553,0.215,33.107,0.345,49.662,0.391c8.187,0.022,16.41,0.022,24.505-1.202
			c8.702-1.315,17.125-4.025,25.502-6.724c3.335-1.074,6.689-2.167,9.976-3.407c0-0.001,0-0.003,0.001-0.004
			c0.149-0.658,0.293-1.324,0.43-1.997c0.007-0.033,0.014-0.065,0.021-0.098c0.137-0.678,0.266-1.365,0.388-2.06
			c0.003-0.016,0.007-0.032,0.01-0.048c0.872-4.989,1.391-10.034,1.863-15.084c0.157-1.684,0.311-3.368,0.469-5.05
			c0.636-6.731,1.373-13.441,2.941-20.009C742.853,410.401,748.465,400.849,751.851,394.689z"/>
		<path fill="#FBD197" d="M630.764,451.683c-20.033,12.463-39.296,26.192-58.458,39.922c-18.69,13.393-37.456,26.829-54.475,42.342
			c-7.957,7.252-34.381,32.922-11.364,42.045c2.112,0.838,4.436,0.924,6.707,0.992c37.298,1.138,75.12,0.505,111.154-9.19
			s70.494-29.305,91.902-59.869c11.04-15.763,18.185-33.887,22.534-52.563c2.747-11.797,6.642-24.158,6.256-36.392
			c-0.644-20.438-25.769-8.138-37.743-4.289c-16.361,5.26-32.128,12.237-47.335,20.214
			C649.994,440.115,640.292,445.756,630.764,451.683z"/>
		<path fill="#FBD197" d="M494.725,589.113c-0.609,14.639-4.786,28.865-8.932,42.919c-10.405,35.261-20.913,70.782-37.963,103.353
			c-1.852,3.537-3.817,7.157-4.203,11.131c-0.386,3.974,1.25,8.446,4.884,10.099c3.406,1.548,7.364,0.255,11.103,0.384
			c2.397,0.082,4.87,0.752,7.142-0.018c1.964-0.665,3.421-2.295,4.775-3.866c19.949-23.16,38.039-47.922,54.037-73.968
			c5.383-8.764,10.57-17.764,13.688-27.564c3.782-11.89,4.385-24.531,4.636-37.005c0.282-14.005,0.016-28.622-6.389-41.079
			c-5.345-10.395-19.145-21.887-31.882-19.23C491.457,557.223,495.187,578.035,494.725,589.113z"/>
		<path opacity="0.17" fill="#231F20" d="M534.697,652.252c-6.039,9.112-13.017,17.562-19.999,25.957
			c-7.587,9.123-15.174,18.247-22.761,27.371c-4.345,5.225-8.774,10.526-14.43,14.295c-6.011,4.005-13.602,6.503-17.167,12.785
			c-3.372,5.94-2.004,13.295-2.427,20.112c-0.089,1.444-0.266,2.871-0.511,4.282c0.742-0.052,1.482-0.082,2.213-0.057
			c2.397,0.082,4.87,0.751,7.142-0.018c1.964-0.665,3.421-2.295,4.775-3.866c19.949-23.16,38.039-47.922,54.037-73.968
			c5.383-8.764,10.57-17.764,13.688-27.564c1.486-4.671,2.476-9.459,3.152-14.306C539.232,643.399,535.883,650.462,534.697,652.252z
			"/>
		<path fill="#FBD197" d="M441.519,744.996c-1.594,3.408-2.251,7.167-3.409,10.746c-2.442,7.558-7.062,14.189-11.618,20.695
			c-6.043,8.629-12.086,17.259-18.129,25.888c-1.563,2.232-3.202,4.949-2.271,7.511c1.134,3.118,5.447,3.805,8.534,2.588
			c3.088-1.217,5.507-3.686,8.431-5.256c4.319-2.32,9.407-2.532,14.235-3.385c4.829-0.852,9.973-2.732,12.375-7.006
			c2.28-4.058,1.583-9.445,4.42-13.134c2.141-2.782,5.75-3.887,8.739-5.729c9.257-5.705,11.849-18.996,7.458-28.943
			c-1.716-3.886-4.406-7.456-8.091-9.57C454.977,735.262,445.098,737.344,441.519,744.996z"/>
		<path fill="#EDC18C" d="M746.932,230.308c-4.032-2.246-9.673-6.307-15.662-9.906c-3.604,16.134-2.746,35.236-4.224,51.223
			c5.622-0.045,11.063-1.853,16.395-3.641c11.631-3.901,23.262-7.802,34.893-11.703c3.618-1.213,7.512-2.734,10.701-4.874
			C774.188,246.309,760.617,237.929,746.932,230.308z"/>
		<path fill="#FBD197" d="M847.894,271.942c7.832,7.845,13.384,17.613,19.697,26.724c15.286,22.06,35.495,40.688,58.725,54.13
			c6.653,3.85,13.699,7.396,18.838,13.112s7.958,14.342,4.534,21.224c-3.134,6.3-10.687,9.415-17.722,9.263
			c-7.034-0.152-13.709-2.968-20.127-5.853c-34.623-15.56-67.65-34.412-100.615-53.231c-4.893-2.793-9.931-5.714-13.284-10.241
			c-2.395-3.231-3.783-7.111-4.621-11.044c-3.692-17.341,4.002-32.661,15.744-44.81C822.271,257.55,833.67,257.695,847.894,271.942z
			"/>
		<path opacity="0.23" fill="#231F20" d="M949.688,387.132c0.19-0.383,0.354-0.772,0.507-1.165c0.04-0.103,0.078-0.205,0.115-0.309
			c0.131-0.36,0.249-0.724,0.349-1.091c0.011-0.037,0.023-0.074,0.033-0.111c0.104-0.393,0.185-0.791,0.256-1.189
			c0.021-0.12,0.039-0.241,0.058-0.361c0.05-0.329,0.089-0.659,0.118-0.991c0.007-0.086,0.019-0.172,0.025-0.259
			c0.026-0.385,0.035-0.771,0.034-1.158c0-0.151-0.004-0.302-0.009-0.454c-0.008-0.275-0.023-0.55-0.044-0.826
			c-0.012-0.144-0.018-0.289-0.032-0.433c-0.036-0.36-0.086-0.719-0.144-1.079c-0.03-0.19-0.066-0.38-0.103-0.57
			c-0.04-0.211-0.085-0.422-0.132-0.632c-0.059-0.259-0.119-0.517-0.188-0.773c-0.071-0.267-0.145-0.532-0.226-0.797
			c-0.069-0.225-0.146-0.447-0.222-0.67c-0.054-0.157-0.11-0.314-0.167-0.471c-0.196-0.531-0.408-1.059-0.645-1.579
			c-4.059,1.325-8.167,2.521-12.335,3.556c-5.713,1.419-11.602,2.546-17.461,1.972c-9.687-0.951-18.266-6.403-26.429-11.705
			c-8.453-5.49-16.827-11.099-25.25-16.633c-7.502-4.929-14.819-8.702-22.695-12.788c-14.428-7.483-25.362-20.479-33.458-34.313
			c-2.105-3.597-4.088-7.372-4.74-11.487c-0.879-5.547,0.775-11.286,3.694-16.084s7.029-8.76,11.357-12.34
			c-4.414-0.396-10.126,5.96-12.895,8.824c-11.742,12.148-19.437,27.468-15.744,44.81c0.838,3.934,2.228,7.813,4.621,11.044
			c3.347,4.519,8.372,7.436,13.257,10.225c0.01,0.005,0.019,0.011,0.028,0.016c16.481,9.41,32.979,18.828,49.685,27.838
			c12.529,6.758,25.175,13.286,38.018,19.41c4.281,2.042,8.584,4.038,12.912,5.983c1.203,0.541,2.416,1.079,3.638,1.598
			c0.814,0.346,1.634,0.683,2.457,1.007c0.412,0.162,0.825,0.32,1.239,0.474c4.141,1.542,8.396,2.678,12.794,2.773
			C939.002,396.547,946.554,393.433,949.688,387.132z"/>
		<path fill="#EDC18C" d="M782.275,253.301c-0.356,0.543-0.739,1.111-1.323,1.395c-0.586,0.285-1.273,0.234-1.92,0.152
			c-5.17-0.655-10.001-2.844-14.742-5.006c-4.244-1.936-8.9-4.306-10.435-8.711c-0.154-0.443-0.273-0.924-0.155-1.378
			c0.155-0.594,0.674-1.011,1.162-1.383c8.087-6.159,16.174-12.318,24.261-18.477c0.947-0.722,1.939-1.464,3.107-1.697
			c1.289-0.256,2.608,0.144,3.855,0.559c3.545,1.18,7.924,2.265,11.086,4.285c4.288,2.739,2.522,3.672-0.197,7.817
			C792.068,238.334,787.175,245.82,782.275,253.301z"/>
		<path opacity="0.23" fill="#231F20" d="M797.172,223.04c-2.373-1.516-5.432-2.506-8.309-3.404
			c-3.104-0.051-6.211-0.081-9.314-0.061c-0.143,0.106-0.286,0.21-0.426,0.317c-1.881,1.432-3.761,2.864-5.641,4.296
			c2.273,2.015,5.646,4.068,7.012,4.669c4.157,1.83,8.664,2.715,13.156,3.386c0.729,0.109,1.487,0.198,2.253,0.249
			c0.356-0.545,0.714-1.091,1.071-1.637C799.694,226.712,801.46,225.778,797.172,223.04z"/>
		<path fill="#FBD197" d="M936.834,356.842c3.872-4.673,9.039-8.06,14.124-11.375c15.622-10.182,31.243-20.365,46.865-30.547
			c8.093-5.275,16.09-10.751,24.3-15.84c9.435-5.848,10.818-5.298,18.874,2.278c12.592,11.843-20.876,38.13-29.139,45.947
			c-4.079,3.858-8.157,7.717-12.235,11.575c-5.147,4.869-10.303,9.745-15.856,14.145c-10.208,8.086-33.375,24.724-47.498,22.747
			C920.396,393.551,930.208,364.84,936.834,356.842z"/>
		<path fill="#FBD197" d="M1023.597,283.311c5.31-0.58,10.084-3.686,13.713-7.604c3.63-3.917,6.267-8.631,8.868-13.294
			c2.398,2.364,3.008,6.345,1.426,9.318c-1.076,2.023-3.044,3.617-3.49,5.865c-0.661,3.332,2.562,6.418,5.922,6.916
			c3.36,0.497,6.692-0.831,9.83-2.131c2.803-1.162,5.605-2.324,8.408-3.486c1.904-0.79,3.843-1.6,5.41-2.939
			c2.986-2.55,4.165-6.576,5.198-10.365c2.096,1.242,3.021,3.897,2.847,6.328c-0.173,2.43-1.252,4.694-2.376,6.855
			c-0.276,0.532-0.565,1.111-0.472,1.704c0.295,1.856,3.131,1.268,4.678,0.201c2.902,2.349,1.133,7.229-1.739,9.615
			s-6.68,3.834-8.606,7.032c-1.121,1.859-1.48,4.146-2.845,5.834c-1.109,1.375-2.753,2.188-4.343,2.959
			c-6.118,2.969-12.416,5.99-19.194,6.544C1030.175,314.025,1023.788,297.593,1023.597,283.311z"/>
		<path opacity="0.23" fill="#231F20" d="M1035.669,282.618c1.879,4.53,2.615,9.53,2.121,14.409
			c2.857,0.928,5.841,1.869,8.813,1.436c2.505-0.365,4.773-1.679,7.238-2.254c3.145-0.734,6.444-0.238,9.652-0.608
			c5.548-0.641,10.439-3.8,15.103-6.875c0.89-0.586,1.798-1.19,2.425-2.051c0.903-1.239,1.107-2.842,1.219-4.371
			c0.149-2.05,0.052-4.416-1.536-5.721c-1.234-1.015-2.979-1.046-4.576-1.028c-8.316,0.092-16.632,0.184-24.948,0.275
			c-2.855,0.032-6.125-0.566-8.544,1.083C1039.985,278.722,1039.106,281.5,1035.669,282.618z"/>
		<path fill="#FFFFFD" d="M1030.812,231.862l9.155,55.426c0,4.367,9.122,7.908,20.375,7.908s20.375-3.541,20.375-7.908l9.155-55.426
			H1030.812z"/>
		<ellipse fill="#FFFFFD" cx="1060.343" cy="231.862" rx="29.53" ry="11.461"/>
		<path fill="#2C8B9F" d="M1060.343,225.375c-14.105,0-25.884,3.842-28.812,8.974c2.929,5.132,14.707,8.974,28.812,8.974
			c14.106,0,25.884-3.842,28.813-8.974C1086.227,229.217,1074.449,225.375,1060.343,225.375z"/>
		<path fill="#FBD197" d="M832.358,205.652c-4.073,7.056-9.625,13.535-16.402,18.125c-6.681,4.523-16.888,5.223-24.702,4.269
			c-7.07-0.863-13.428-3.919-20.124-6.114c-1.771-0.58-3.701-1.288-4.605-2.916c-0.625-1.125-0.63-2.479-0.617-3.767
			c0.041-4.503,0.083-9.006,0.124-13.509c0.021-2.226,0.042-4.461,0.397-6.659c0.827-5.11,3.403-9.673,6.087-14.018
			c2.614-4.233,4.844-8.892,7.766-12.899c9.863-13.528,29.616-26.291,46.287-16.667C841.918,160.359,844.51,184.605,832.358,205.652
			z"/>
		<path fill="#169C9F" d="M809.19,178.525c1.051,1.292,1.982,2.68,2.759,4.187c4.27,8.291,2.79,18.542-1.217,26.963
			c-4.006,8.421-10.259,15.521-15.856,22.979c-1.613,2.148-3.204,4.39-3.954,6.969c-0.794,2.728-0.59,5.633-0.378,8.467
			c0.043,0.575,0.107,1.201,0.512,1.613c0.552,0.563,1.467,0.475,2.244,0.342c7.614-1.304,15.229-3.013,22.256-6.226
			c9.554-4.368,16.602-11.181,20.512-20.922c2.034-5.068,3.377-10.343,4.942-15.562c2.221-7.398,4.84-16.368,3.947-24.159
			c-0.749-6.533,0.079-13.035-0.667-19.613c-0.67-5.908-2.802-11.836-7.015-16.032c-2.078-2.069-4.592-3.654-7.21-4.972
			c-14.804-7.453-41.613-8.884-44.686,12.703c-0.698,4.908,4.169,8.542,7.856,10.878C798.935,169.75,805.009,173.382,809.19,178.525
			z"/>
		<path fill="none" stroke="#231F20" stroke-miterlimit="10" d="M773.981,204.09c0.569,0.806,1.267,1.519,2.059,2.105
			c2.227,1.648,5.072,2.216,7.836,2.404"/>
		<path fill="none" stroke="#231F20" stroke-miterlimit="10" d="M787.955,191.785c-2.265,1.506-4.942,2.384-7.66,2.512
			c-0.372,0.017-0.779,0.034-1.06,0.279c-0.393,0.344-0.352,0.968-0.188,1.464c0.42,1.277,1.453,2.336,2.72,2.788"/>
		<path opacity="0.23" fill="#231F20" d="M936.938,375.771c-2.85,0.708-5.744,1.343-8.655,1.73
			c-1.564,8.826-0.253,17.118,7.985,18.271c14.123,1.977,37.29-14.661,47.498-22.747c5.554-4.399,10.709-9.275,15.856-14.145
			c4.078-3.858,8.156-7.716,12.235-11.575c4.194-3.968,14.884-12.697,22.746-21.88
			C1004.294,346.744,972.713,366.883,936.938,375.771z"/>
		<path fill="#EDC18C" d="M585.446,239.033c4.438-4.14,7.515-9.497,10.525-14.768c9.247-16.193,18.494-32.386,27.741-48.579
			c4.791-8.389,9.787-16.693,14.385-25.189c5.283-9.762,4.653-11.11-3.383-18.707c-12.562-11.874-36.838,23.08-44.156,31.788
			c-3.612,4.298-7.224,8.596-10.836,12.895c-4.558,5.424-9.123,10.857-13.188,16.66c-7.472,10.666-22.721,34.77-19.917,48.752
			C549.767,257.599,577.852,246.117,585.446,239.033z"/>
		<path opacity="0.23" fill="#231F20" d="M639.092,148.613c0.21-0.408,0.403-0.796,0.586-1.172c0.092-0.19,0.178-0.374,0.264-0.556
			c0.097-0.207,0.186-0.406,0.274-0.604c0.148-0.335,0.285-0.659,0.408-0.971c0.048-0.123,0.096-0.244,0.141-0.363
			c0.165-0.445,0.306-0.869,0.416-1.274c0.003-0.01,0.006-0.02,0.009-0.03c-6.518,2.65-14.382,11.501-17.216,13.886
			c-12.723,10.704-26.55,22.396-29.36,39.832c-1.643,10.199,0.583,20.409-2.132,30.516c3.592-0.699,5.967-7.947,7.711-11.002
			c3.216-5.632,6.433-11.265,9.649-16.897c4.624-8.096,9.247-16.193,13.871-24.289c4.791-8.389,9.787-16.693,14.385-25.189
			c0.28-0.517,0.534-0.999,0.78-1.47C638.95,148.889,639.023,148.748,639.092,148.613z"/>
		<path fill="#EDC18C" d="M649.787,125.386c1.083-1.075,2.415-2.168,2.515-3.69c0.142-2.157-3.098-3.547-4.563-1.958
			c-0.728,0.789-1.054,2.073-2.088,2.36c-1.403,0.389-2.355-1.381-2.728-2.789c-0.649-2.452-0.897-5.798,1.436-6.792
			c1.555-0.662,3.754,0.096,4.768-1.256c-0.088,3.067,1.286,6.144,3.629,8.125c-4.209-3.558,8.19-17.844-0.546-20.58
			c-2.112-0.661-4.395-0.021-6.478,0.726s-4.223,1.621-6.427,1.418c-1.255-0.116-2.613-0.561-3.71,0.062
			c-1.361,0.771-1.512,2.734-2.666,3.79c-1.982,1.814-5.907,0.205-7.429,2.419c-0.66,0.96-0.516,2.233-0.673,3.388
			c-0.387,2.853-2.654,5.049-3.833,7.676c-4.345,9.683-0.944,26.985,10.88,29.309C647.584,150.682,642.585,132.531,649.787,125.386z
			"/>
		<g>
			<path fill="#18658F" d="M657.596,131.056c5.929,3.711,12.959,3.167,15.703-1.216l-21.472-13.438
				C649.083,120.784,651.666,127.345,657.596,131.056z"/>
			<path fill="#18658F" d="M692.238,138.882c-6.949,0.802-13.062-2.712-13.655-7.848l25.164-2.903
				C704.34,133.266,699.188,138.08,692.238,138.882z"/>
			<path fill="none" stroke="#18658F" stroke-miterlimit="10" d="M672.434,129.299c0,0,4.699-1.827,6.15,1.735"/>
		</g>
		<path opacity="0.23" fill="#231F20" d="M733.239,266.156c-0.78-5.359,2.074-11.061,6.833-13.646
			c-4.783,2.131-8.788,5.965-11.124,10.652c-0.109-7.265-0.219-14.53-0.328-21.795c-0.64,10.338-0.704,20.837-1.574,30.256
			c5.622-0.045,11.063-1.853,16.395-3.641c7.387-2.478,14.774-4.955,22.161-7.433C754.507,260.864,743.488,262.077,733.239,266.156z
			"/>
		<path opacity="0.17" fill="#231F20" d="M624.328,567.794c29.901-8.045,58.71-22.925,79.886-45.218
			c-2.838,0.907-5.717,1.701-8.588,2.468c-18.653,4.979-37.524,9.146-56.54,12.483c-17.394,3.054-35.174,5.491-51.237,12.829
			c-12.442,5.684-23.48,14.154-36.054,19.54c-3.903,1.672-8.521,3.779-9.936,7.488C569.704,577.202,597.511,575.01,624.328,567.794z
			"/>
		<path opacity="0.17" fill="#231F20" d="M470.284,748.972c-1.716-3.886-4.406-7.456-8.091-9.57
			c-1.173-0.673-2.42-1.164-3.696-1.512c-0.899,4.752-0.278,9.956-0.584,14.883c-0.742,11.963-7.183,22.722-13.446,32.94
			c-3.18,5.188-6.612,10.619-12.002,13.444c-4.494,2.355-9.794,2.587-14.547,4.362c-4.098,1.531-8.06,5.07-8.413,9.198
			c1.634,0.449,3.538,0.33,5.122-0.294c3.088-1.217,5.507-3.686,8.431-5.256c4.319-2.32,9.407-2.532,14.235-3.385
			c4.829-0.852,9.973-2.732,12.375-7.006c2.28-4.058,1.583-9.445,4.42-13.134c2.141-2.782,5.75-3.887,8.739-5.729
			C472.083,772.21,474.676,758.919,470.284,748.972z"/>
	</g>
	<g clip-path="url(#SVGID_2_)">
		<path fill="#C4C3B5" d="M1201.771,636.967l-187.06-65.931c-9.946-3.506-14.184-15.246-8.771-24.297l124.534-208.188
			c3.533-5.906,10.33-9.036,17.114-7.881l181.874,30.946c10.991,1.87,17.09,13.788,12.178,23.795l-119.35,243.171
			C1218.564,636.176,1209.746,639.777,1201.771,636.967z"/>
		<path fill="#E8E7D5" d="M1334.155,363.176c-1.438-0.721-2.999-1.271-4.692-1.56l-181.874-30.947
			c-6.784-1.155-13.581,1.976-17.114,7.881L1005.94,546.739c-0.449,0.752-0.809,1.526-1.127,2.31
			c0.627,0.314,1.275,0.601,1.957,0.841l187.06,65.931c7.976,2.811,16.793-0.791,20.52-8.384l119.35-243.171
			C1333.876,363.906,1334.007,363.54,1334.155,363.176z"/>
		<circle fill="#2C8B9F" cx="1161.623" cy="541.508" r="47.946"/>
		<path fill="#E2B220" d="M1231.531,491.439l-66.832-30.277l43.024-94.971l66.832,30.277c2.678,1.213,3.865,4.367,2.652,7.045
			l-38.632,85.274C1237.363,491.465,1234.209,492.652,1231.531,491.439z"/>
		<path fill="#FAD19B" d="M1235.283,478.608l32.101-70.858c3.017-6.659,0.064-14.502-6.595-17.519l-53.065-24.04l-43.024,94.971
			l53.065,24.04C1224.424,488.219,1232.268,485.267,1235.283,478.608z"/>
		<path fill="#E2B220" d="M1188.1,363.958c-1.088,1.404-1.961,2.975-2.579,4.64c11.793,5.376,23.586,10.753,35.378,16.129
			c-0.411,0.845-0.823,1.689-1.234,2.534c-14.809-6.683-29.618-13.365-44.427-20.048c-0.936,2.127-1.872,4.254-2.808,6.381
			c12.893,5.871,25.784,11.743,38.677,17.614c-0.086,0.794-0.595,1.531-1.307,1.893c-5.371-1.12-10.562-3.104-15.311-5.853
			c-2.336-1.352-4.649-2.92-7.312-3.362c-2.663-0.442-5.829,0.654-6.731,3.198c8.449,3.995,16.898,7.989,25.349,11.984
			c-12.108,2.504-24.733,2.485-36.834-0.056c-1.622,2.368-2.917,4.961-3.836,7.681c10.882,0.891,21.763,1.781,32.645,2.671
			c0.724,1.335-0.33,3.074-1.741,3.633c-1.412,0.56-3,0.286-4.492,0.005c-3.742-0.705-7.483-1.41-11.226-2.114
			c-1.451,2.11-2.547,4.464-3.225,6.934c6.907,0.323,13.734,2.245,19.796,5.572c-0.409,1.615-1.167,3.14-2.207,4.441
			c-10.355-4.699-20.712-9.398-31.067-14.097c-1.132,1.201-1.882,2.756-2.116,4.389c8.883,4.227,17.767,8.454,26.65,12.68
			c0.129,1.097-0.25,2.243-1.006,3.047c-6.068-2.495-12.137-4.989-18.205-7.484c-0.945,1.409-1.478,3.092-1.514,4.789
			c4.012,1.921,8.024,3.843,12.037,5.765c0.828,0.396,1.71,0.843,2.143,1.652c0.432,0.81,0.103,2.068-0.804,2.214
			c-7.528-1.583-11.595-9.663-17.877-14.101c-2.14-1.511-6.09-1.908-6.499,0.679c-0.167,1.051,0.452,2.05,1.044,2.934
			c6.666,9.966,13.332,19.933,19.998,29.899c3.184,4.759,6.366,9.518,9.55,14.277c1.631,2.438,4.099,5.211,6.916,4.391
			c-0.403-11.081-10.337-20.201-10.379-31.289c9.626,8.287,19.253,16.574,28.879,24.86c1.812-0.685,2.569-2.977,2.169-4.872
			c-0.401-1.895-1.658-3.477-2.878-4.981c-3.642-4.494-7.284-8.988-10.926-13.482c9.118,4.212,18.237,8.425,27.355,12.637
			c0.5,0.23,1.076,0.463,1.579,0.24c0.644-0.286,0.774-1.116,1.09-1.746c1.349-2.7,5.813-1.482,8.035-3.526
			c1.423-1.309,1.59-3.693,3.201-4.76c1.111-0.736,2.555-0.606,3.887-0.654c5.76-0.209,11.075-4.755,12.175-10.413
			c-1.881-1.014-3.762-2.028-5.643-3.042c0.02-3.547,2.205-6.996,5.405-8.527c3.543-2.721,4.677-8.131,2.522-12.045
			c-0.473-0.857-1.097-1.704-1.104-2.683c-0.007-0.911,0.526-1.726,0.815-2.59c0.785-2.344-0.502-5.186-2.781-6.142
			c0.756,0.317,2.61-7.431,2.086-8.624c-0.883-2.013-3.4-2.528-5.234-3.362c-7.275-3.309-14.546-6.628-21.824-9.932
			C1217.616,377.247,1202.864,370.587,1188.1,363.958z"/>
		<g>
			<path fill="#FCDF43" d="M1121.23,559.223c-7.105-7.199-10.833-17.457-10.604-27.569c0.305-13.487,8.046-26.901,20.231-32.691
				c12.185-5.791,28.318-2.812,36.655,7.795c2.28,2.9,3.955,6.232,5.341,9.651c2.607,6.433,4.248,13.369,3.783,20.295
				C1174.776,564.411,1141.499,579.758,1121.23,559.223z"/>
			<path fill="#F28466" d="M1176.203,540.32c0.06-0.344,0.116-0.688,0.165-1.036c-3.063-1.841-6.142-3.717-9.153-5.705
				c2.551-4.011,5.027-8.065,7.426-12.157c-0.128-0.416-0.26-0.831-0.397-1.244c-2.526,4.334-5.142,8.623-7.84,12.865
				c-4.323-2.896-8.484-6.043-12.231-9.654c3.812-6.593,6.867-13.622,9.032-20.938c-0.272-0.215-0.55-0.424-0.831-0.628
				c-2.125,7.288-5.14,14.294-8.917,20.863c-0.346-0.344-0.691-0.687-1.028-1.038c-5.042-5.261-9.106-11.435-12.962-17.543
				l4.571-8.05c-0.376,0.001-0.753,0.007-1.129,0.021l-4.031,7.096c-0.268-0.426-0.535-0.852-0.802-1.275
				c-0.947-1.51-1.906-3.039-2.838-4.592c-0.321,0.094-0.642,0.189-0.96,0.294c0.976,1.631,1.981,3.233,2.975,4.814
				c0.358,0.571,0.719,1.145,1.08,1.719l-2.283,4.021c-2.903,5.109-5.874,10.336-9.24,15.282
				c-3.897-3.584-7.405-7.231-10.551-10.965c-0.178,0.294-0.35,0.592-0.521,0.891c3.143,3.704,6.638,7.325,10.515,10.883
				c-1.455,2.098-2.983,4.142-4.615,6.098c-2.318,2.778-4.726,5.232-7.212,7.362c-1.283-1.135-2.533-2.306-3.763-3.496
				c0.021,0.476,0.043,0.95,0.081,1.425c0.962,0.915,1.934,1.82,2.928,2.702c-0.761,0.627-1.531,1.215-2.307,1.782
				c0.068,0.351,0.133,0.703,0.211,1.052c0.954-0.685,1.899-1.406,2.832-2.181c4.814,4.2,9.986,7.998,15.43,11.352
				c-3.232,2.604-6.634,4.999-10.179,7.164c0.215,0.25,0.436,0.495,0.657,0.739c3.626-2.223,7.103-4.683,10.402-7.36
				c5.527,3.339,11.332,6.209,17.329,8.57c-2.337,3.084-4.723,6.129-7.147,9.14c0.399,0.03,0.799,0.053,1.197,0.067
				c2.337-2.912,4.636-5.856,6.891-8.837c3.801,1.457,7.678,2.706,11.608,3.735c0.371-0.233,0.74-0.472,1.103-0.72
				c-4.1-1.038-8.143-2.314-12.103-3.821c2.866-3.808,5.661-7.671,8.388-11.582c4.035,2.482,8.1,4.887,12.141,7.254
				c0.192-0.263,0.381-0.527,0.566-0.796c-4.045-2.368-8.112-4.775-12.15-7.258c2.794-4.028,5.515-8.107,8.153-12.233
				C1169.824,536.467,1173.024,538.412,1176.203,540.32z M1136.895,508.633l2.026-3.568c3.8,6.006,7.819,12.057,12.805,17.257
				c0.401,0.42,0.812,0.829,1.224,1.236c-2.752,4.675-5.893,9.119-9.374,13.28c-2.062-1.454-4.099-2.94-6.097-4.47
				c-3.562-2.727-6.867-5.479-9.944-8.269C1130.953,519.089,1133.958,513.802,1136.895,508.633z M1130.633,549.688
				c-5.461-3.342-10.646-7.137-15.473-11.335c2.49-2.146,4.902-4.606,7.223-7.389c1.625-1.946,3.146-3.977,4.593-6.058
				c3.07,2.777,6.366,5.52,9.912,8.233c1.986,1.521,4.011,2.999,6.059,4.444C1139.204,541.968,1135.082,546.025,1130.633,549.688z
				 M1148.657,558.647c-5.933-2.318-11.677-5.142-17.15-8.425c4.417-3.661,8.513-7.708,12.234-12.075
				c4.379,3.062,8.876,5.968,13.414,8.774C1154.394,550.882,1151.562,554.794,1148.657,558.647z M1157.712,546.122
				c-4.515-2.791-8.987-5.681-13.341-8.722c3.445-4.124,6.561-8.523,9.298-13.147c3.758,3.596,7.908,6.729,12.213,9.612
				C1163.238,538,1160.512,542.086,1157.712,546.122z"/>
			<path opacity="0.23" fill="#231F20" d="M1169.335,527.506c-1.884,2.995-2.696,6.521-4.048,9.79
				c-5.208,12.591-19.369,20.824-32.887,19.119c-9.079-1.146-15.335-5.62-19.879-11.767c1.753,5.449,4.689,10.502,8.709,14.574
				c20.269,20.535,53.546,5.188,55.406-22.52c0.332-4.946-0.413-9.896-1.814-14.666
				C1172.648,523.485,1170.751,525.255,1169.335,527.506z"/>
			<path opacity="0.23" fill="#231F20" d="M1146.27,516.242c0.569-0.024,1.078,0.327,1.532,0.671
				c2.589,1.957,4.991,4.159,7.167,6.567c-0.027-4.26-0.055-8.52-0.081-12.778c2.035,0.323,4.02,0.971,5.855,1.909
				c0.89-2.916-0.534-6.072-2.501-8.403c-2.126-2.518-4.328-5.138-6.767-7.308c-6.837-1.588-14.264-0.959-20.618,2.062
				c-3.502,1.664-6.634,3.96-9.331,6.704c1.932-0.767,3.964-1.28,6.03-1.501c-2.553,5.437-3.328,11.692-2.18,17.588
				c1.188-2.641,2.771-5.103,4.684-7.277c0.362-0.411,0.814-0.847,1.361-0.812c0.458,0.029,0.821,0.381,1.127,0.722
				c3.718,4.157,5.293,10.135,4.107,15.585c4.213-2.71,5.047-8.46,7.958-12.536C1145.023,516.86,1145.565,516.271,1146.27,516.242z"
				/>
			<path fill="#169C9F" d="M1134.057,507.801c-1.104-2.498-1.021-5.345-0.779-8.065c1.146-12.902,5.483-25.509,12.518-36.385
				c0.087,5.209,0.173,10.418,0.26,15.627c5.667-8.555,12.376-16.418,19.932-23.36c0.57,9.221-1.087,18.573-4.792,27.037
				c6.346-6.778,13.675-12.633,21.687-17.325c0.211,1.759-0.804,3.406-1.775,4.887c-4.569,6.961-9.139,13.923-13.708,20.884
				c-3.188,4.855-6.423,9.768-10.72,13.676C1151.932,509.091,1138.048,516.828,1134.057,507.801z"/>
		</g>
		<g>
			<circle fill="#F28466" cx="1194.011" cy="521.176" r="18.619"/>
			<path fill="#B56452" d="M1189.972,498.375c-0.186-0.665-0.373-1.354-0.266-2.035c0.107-0.682,0.597-1.354,1.28-1.442
				c0.119-0.016,0.252-0.008,0.338,0.075c0.078,0.076,0.095,0.193,0.107,0.302c0.233,1.865,0.851,3.682,1.802,5.304
				c0.655,1.116,2.187,5.126-0.757,4.393C1190.927,504.585,1190.32,499.624,1189.972,498.375z"/>
			<path fill="#169C9F" d="M1193.524,501.302c0.508-0.881,1.301-1.562,2.132-2.148c2.438-1.716,5.354-2.746,8.329-2.944
				c2.858-0.19,5.834,0.358,8.53-0.61c-1.221,3.411-3.719,6.347-6.891,8.097C1202.757,505.277,1188.969,509.198,1193.524,501.302z"
				/>
			<path opacity="0.23" fill="#231F20" d="M1194.011,539.794c9.218,0,16.866-6.699,18.353-15.494
				c-6.903,6.27-17.205,8.654-26.132,5.875c-1.925-0.599-3.808-1.432-5.354-2.726c-1.716-1.436-2.938-3.368-4.012-5.332
				c-0.253-0.463-0.763-1.982-1.297-3.479c-0.113,0.83-0.177,1.676-0.177,2.537C1175.393,531.458,1183.729,539.794,1194.011,539.794
				z"/>
		</g>
		<g>
			<circle fill="#F28466" cx="1182.917" cy="558.879" r="18.619"/>
			<path fill="#B56452" d="M1178.877,536.078c-0.186-0.664-0.372-1.354-0.265-2.035s0.596-1.354,1.28-1.442
				c0.118-0.015,0.252-0.008,0.338,0.076c0.078,0.076,0.094,0.193,0.107,0.302c0.233,1.865,0.851,3.682,1.802,5.303
				c0.655,1.117,2.187,5.127-0.758,4.394C1179.833,542.289,1179.227,537.328,1178.877,536.078z"/>
			<path fill="#169C9F" d="M1182.43,539.005c0.509-0.881,1.301-1.562,2.133-2.147c2.438-1.716,5.354-2.747,8.328-2.944
				c2.859-0.19,5.835,0.357,8.531-0.61c-1.221,3.41-3.72,6.347-6.892,8.097C1191.663,542.981,1177.875,546.901,1182.43,539.005z"/>
			<path opacity="0.23" fill="#231F20" d="M1182.917,577.498c9.218,0,16.865-6.7,18.353-15.494
				c-6.903,6.269-17.206,8.653-26.132,5.875c-1.925-0.6-3.808-1.433-5.354-2.726c-1.716-1.436-2.938-3.368-4.012-5.332
				c-0.253-0.463-0.763-1.983-1.297-3.479c-0.113,0.83-0.177,1.676-0.177,2.537C1164.298,569.162,1172.634,577.498,1182.917,577.498
				z"/>
		</g>
	</g>
	<g clip-path="url(#SVGID_2_)">
		<path fill="#FFFFFD" d="M1158.098,698.009c-181.973,0-329.491,147.519-329.491,329.492s147.519,329.492,329.491,329.492
			c181.974,0,329.492-147.519,329.492-329.492S1340.071,698.009,1158.098,698.009z M1158.098,1144.71
			c-64.732,0-117.209-52.477-117.209-117.209c0-64.733,52.477-117.209,117.209-117.209c64.733,0,117.21,52.476,117.21,117.209
			C1275.308,1092.233,1222.831,1144.71,1158.098,1144.71z"/>
		<path fill="#ABD5EB" d="M992.262,792.261c23.108,0,41.842-18.732,41.842-41.842c0-9.294-3.067-17.851-8.194-24.795
			c-25.666,11.255-49.634,25.668-71.383,42.78C961.258,782.499,975.602,792.261,992.262,792.261z"/>
		<circle fill="#ABD5EB" cx="1122.335" cy="866.231" r="22.286"/>
		<circle fill="#ABD5EB" cx="1282.495" cy="757.15" r="20.986"/>
		<circle fill="#0EADA8" cx="1316.292" cy="869.387" r="40.984"/>
		<circle fill="#0EADA8" cx="1159.463" cy="757.15" r="26.178"/>
		<path fill="#0EADA8" d="M892.392,866.231c-9.962,0-19.12,3.345-26.5,8.92c-6.596,12.623-12.413,25.717-17.354,39.235
			c2.067,22.411,20.901,39.965,43.854,39.965c24.333,0,44.06-19.727,44.06-44.06C936.451,885.958,916.725,866.231,892.392,866.231z"
			/>
		<circle fill="#ABD5EB" cx="976.882" cy="989.61" r="30.162"/>
		<circle fill="#FFDE39" cx="992.262" cy="1082.241" r="20.196"/>
		<circle fill="#ABD5EB" cx="991.212" cy="889.584" r="12.609"/>
		<circle fill="#FFDE39" cx="976.882" cy="1192.725" r="48.014"/>
		<circle fill="#FFDE39" cx="1194.938" cy="1262.29" r="23.209"/>
		<path fill="#FFDE39" d="M1303.481,1250.686c-25.636,0-46.418,20.782-46.418,46.419c0,15.652,7.771,29.466,19.641,37.874
			c26.146-10.092,50.683-23.414,73.115-39.491C1348.96,1270.605,1328.572,1250.686,1303.481,1250.686z"/>
		<circle fill="#FFDE39" cx="1367.032" cy="1146.564" r="22.653"/>
		<circle fill="#F2F2F4" cx="1368.146" cy="1027.501" r="59.682"/>
		<path fill="#FFDE39" d="M1448.223,871.204c-11.854,4.242-20.35,15.54-20.35,28.852c0,16.938,13.73,30.67,30.669,30.67
			c4.886,0,9.487-1.172,13.586-3.204C1465.883,907.889,1457.856,889.05,1448.223,871.204z"/>
		<path fill="#FFDE39" d="M1056.042,1291.302c-20.887,0-38.857,12.292-47.21,30.011c30.418,15.484,63.558,26.385,98.516,31.789
			c0.576-3.109,0.916-6.302,0.916-9.578C1108.264,1314.682,1084.884,1291.302,1056.042,1291.302z"/>
		<path fill="#F2F2F4" d="M857.788,1052.201c-10.407,0-19.947,3.704-27.381,9.861c2.7,25.901,8.413,50.902,16.761,74.665
			c3.402,0.867,6.947,1.377,10.62,1.377c23.722,0,42.952-19.23,42.952-42.952S881.51,1052.201,857.788,1052.201z"/>
		<circle fill="#F2F2F4" cx="1122.335" cy="1191.869" r="31.112"/>
		<path opacity="0.23" fill="#231F20" d="M1158.099,854.673c-95.45,0-172.828,77.378-172.828,172.828
			s77.378,172.828,172.828,172.828c95.449,0,172.827-77.378,172.827-172.828S1253.548,854.673,1158.099,854.673z M1158.099,1144.711
			c-64.733,0-117.21-52.477-117.21-117.21c0-64.732,52.477-117.209,117.21-117.209c64.732,0,117.209,52.477,117.209,117.209
			C1275.308,1092.234,1222.831,1144.711,1158.099,1144.711z"/>
	</g>
	<path clip-path="url(#SVGID_2_)" fill="#F28466" d="M1191.271,457.797l45.191,39.333l43.667-80.333l-51-40.333
		c0,0-15.334,2.333-8.667,13c0,0-16.333-1.667-8.667,12c0,0-17-5.333-8,12c0,0-15.063-1.692-7.365,11.321
		c0,0-14.041-0.321-7.505,10.679C1188.925,435.464,1167.816,437.383,1191.271,457.797z"/>
	<path clip-path="url(#SVGID_2_)" fill="#E0755C" d="M1268.97,420.109c-1.099,0.779-1.848,1.945-2.568,3.082
		c-3.16,4.985-6.294,9.987-9.401,15.004c-1.953,3.151-3.905,6.329-5.288,9.768c-1.33,3.309-2.111,6.808-3.159,10.217
		c-1.678,5.468-4.049,10.724-7.035,15.603c-2.398,3.916-5.26,7.755-6.018,12.284c-0.578,3.454,0.176,6.859,0.388,10.302
		c0.005,0.086-0.002,0.175,0.001,0.263l0.573,0.499l43.667-80.333l-0.314-0.249c-2.554,0.745-5.107,1.489-7.66,2.234
		C1271.045,419.106,1269.912,419.44,1268.97,420.109z"/>
</g>
</svg>
