<?xml version="1.0" encoding="UTF-8" standalone="no"?>
<!-- Generator: Adobe Illustrator 18.0.0, SVG Export Plug-In . SVG Version: 6.00 Build 0)  -->

<svg
   xmlns:dc="http://purl.org/dc/elements/1.1/"
   xmlns:cc="http://creativecommons.org/ns#"
   xmlns:rdf="http://www.w3.org/1999/02/22-rdf-syntax-ns#"
   xmlns:svg="http://www.w3.org/2000/svg"
   xmlns="http://www.w3.org/2000/svg"
   xmlns:sodipodi="http://sodipodi.sourceforge.net/DTD/sodipodi-0.dtd"
   xmlns:inkscape="http://www.inkscape.org/namespaces/inkscape"
   version="1.1"
   x="0px"
   y="0px"
   width="800px"
   height="600px"
   viewBox="0 0 800 600"
   enable-background="new 0 0 800 600"
   xml:space="preserve"
   id="svg225"
   sodipodi:docname="Couple Happy In A Pool.svg"
   inkscape:version="0.92.5 (2060ec1f9f, 2020-04-08)"><metadata
   id="metadata231"><rdf:RDF><cc:Work
       rdf:about=""><dc:format>image/svg+xml</dc:format><dc:type
         rdf:resource="http://purl.org/dc/dcmitype/StillImage" /></cc:Work></rdf:RDF></metadata><defs
   id="defs229" /><sodipodi:namedview
   pagecolor="#ffffff"
   bordercolor="#666666"
   borderopacity="1"
   objecttolerance="10"
   gridtolerance="10"
   guidetolerance="10"
   inkscape:pageopacity="0"
   inkscape:pageshadow="2"
   inkscape:window-width="1848"
   inkscape:window-height="1016"
   id="namedview227"
   showgrid="false"
   inkscape:zoom="0.78666667"
   inkscape:cx="482.88034"
   inkscape:cy="378.05932"
   inkscape:window-x="72"
   inkscape:window-y="27"
   inkscape:window-maximized="1"
   inkscape:current-layer="svg225" />
<g
   id="Background">
	<linearGradient
   id="SVGID_1_"
   gradientUnits="userSpaceOnUse"
   x1="400"
   y1="531.5964"
   x2="400"
   y2="77.0957">
		<stop
   offset="0"
   style="stop-color:#EE2A7B"
   id="stop2" />
		<stop
   offset="1"
   style="stop-color:#F599B1"
   id="stop4" />
	</linearGradient>
	
	<g
   id="g15">
		<path
   d="M78.8,212.9h382.4c0,0-10.4-16.5-47.8-16.5s-35.7-7.8-62.1-19.1c-26.4-11.3-45.9,5.2-55.3,0    c-9.4-5.2-7.2-25.3-26.1-28.7c-34-6.1-48.4,24.3-60.6,32.1c-12.2,7.8-18.6-4.7-37.5-0.6c-18.9,4.1-26.6,25.8-42.3,24.9    C113.9,204.3,99.2,185.2,78.8,212.9z"
   id="path9"
   fill="#FFFFFF" />
		<path
   d="M721.2,141.8H530.5c0,0,13.9-12,37.7-8.2c23.7,3.8,24.8-30,57.7-36.1c32.9-6.1,36.3,15.6,48.1,18.2    C685.6,118.4,705.6,108,721.2,141.8z"
   id="path11"
   fill="#FFFFFF" />
		<path
   d="M258.4,83.6h126.4c0,0-9.2-7.9-25-5.4c-15.7,2.5-16.5-19.9-38.3-23.9c-21.8-4-24.1,10.4-31.9,12.1    C282,68.1,268.8,61.2,258.4,83.6z"
   id="path13"
   fill="#FFFFFF" />
	</g>
	<g
   id="g87">
		<g
   id="g50">
			<g
   id="g26">
				
					<linearGradient
   id="SVGID_2_"
   gradientUnits="userSpaceOnUse"
   x1="457.4203"
   y1="523.6805"
   x2="591.0224"
   y2="270.6071"
   gradientTransform="matrix(0.9853 -0.1708 0.1708 0.9853 -57.7999 93.4037)">
					<stop
   offset="0"
   style="stop-color:#FBB040"
   id="stop17" />
					<stop
   offset="1"
   style="stop-color:#FFDE17"
   id="stop19" />
				</linearGradient>
				<path
   d="M436.4,514.6c0,0-30-40.6,5.2-70.7c35.2-30.2,3.3-56.1,13.6-94.3c10.3-38.2,46.1-27.6,59-58.5      c12.9-30.8,30.4-57.8,69.7-41.5c39.3,16.2,0.4,70,16.2,93.3c15.8,23.3,34.2,46.8-20.5,84.7s5.7,48.2-52.1,83L436.4,514.6z"
   id="path22"
   fill="url(#SVGID_2_)" />
				<path
   d="M548.5,306.9c9.8-21.5,20.3-41.9,31-59.1c-0.3-0.1-0.6-0.2-0.8-0.3c-10.8,17.2-21.2,37.6-31,59.1      l-14.8-48c-0.2,0.2-0.4,0.5-0.7,0.8l15,48.4c-5.7,12.6-11.2,25.6-16.4,38.5l-15.4-57.9c-0.2,0.4-0.4,0.9-0.5,1.3l15.4,57.9      c-5.3,13.3-10.4,26.5-15,39.3l-19.3-75.7c-0.3,0.2-0.5,0.3-0.8,0.4l19.4,76.2l0.1,0.5c-1.9,5.2-3.7,10.3-5.5,15.4      c-4.5,12.7-8.7,25.1-12.6,37L454.7,352c-0.1,0.5-0.2,0.9-0.3,1.4l41.8,88.6c-1.8,5.6-3.6,11.1-5.3,16.5l-32.2-45.2      c0,0.4-0.1,0.9-0.1,1.3l32,44.9c-6.6,20.8-12.1,39.3-16.2,53.4l0.9,0c2.7-9.3,6-20.4,9.8-32.8l69.4-14.4c0-0.3,0-0.6,0-0.9      l-69.1,14.3c5.4-17.4,11.7-37.4,18.9-58.4l108.6-26.9c0.2-0.3,0.3-0.7,0.5-1l-108.8,26.9c1.8-5.2,3.6-10.5,5.5-15.8      c1.9-5.3,3.8-10.6,5.8-16.1l86.8-41.6c-0.2-0.2-0.3-0.5-0.5-0.7l-85.9,41.2c9.3-25.5,20.1-52.9,31.8-78.7l54.1-24.7      c0-0.3,0-0.6,0.1-1L548.5,306.9z"
   id="path24"
   fill="#FFFFFF" />
			</g>
			<g
   id="g37">
				<linearGradient
   id="SVGID_3_"
   gradientUnits="userSpaceOnUse"
   x1="573.0999"
   y1="508.0527"
   x2="658.5956"
   y2="340.0611">
					<stop
   offset="0"
   style="stop-color:#3A273A"
   id="stop28" />
					<stop
   offset="1"
   style="stop-color:#5A435A"
   id="stop30" />
				</linearGradient>
				<path
   d="M549.9,504.3c0,0,7.7-139.3,74.5-189.7c66.8-50.4,100.5,32.5,59.8,93.5      c-40.7,61-58.3,102.8-58.3,102.8L549.9,504.3z"
   id="path33"
   fill="url(#SVGID_3_)" />
				<path
   d="M559.5,439.3c0.1-0.3,0.2-0.7,0.2-1c8.3,9.5,19.4,17.8,34.1,20.9c4.8-15.8,10-30.7,15.6-44.7      c-14.3-4.2-25.5-14.8-32.9-31.1c0.2-0.4,0.3-0.7,0.5-1.1c6.2,13.9,16.3,26.5,32.8,31.4c9.4-23.7,19.6-44.4,29-61.6      c-10.3-2.4-16.3-14-17.9-34.6c0.3-0.2,0.6-0.5,0.9-0.7c1.3,17.2,5.9,32,17.4,34.5c1.6-2.9,3.2-5.7,4.7-8.4      c9.7-17,19.1-31.4,27.1-42.9c0.3,0.1,0.6,0.1,0.9,0.2c-8.1,11.5-17.5,25.9-27.3,43.1c-5.7,10.1-11.9,21.6-18,34.3      c23.1,9,53.5-16.6,74.3-38.8c0.1,0.4,0.1,0.8,0.2,1.2c-3.3,3.5-6.8,7.1-10.5,10.6c-20.7,19.7-39.1,29.7-53.9,29.7      c-3.7,0-7.2-0.6-10.5-1.9c-8.4,17.5-16.9,37.4-24.5,59.3c26.2,9.6,52.9-1,71.1-12c-0.3,0.5-0.7,1.1-1,1.6      c-13.1,7.7-30.4,15-48.6,15c-7.2,0-14.5-1.1-21.8-3.8c-5.4,15.6-10.3,32.2-14.5,49.8c16.8,5.4,35,2.7,51.3-2.8      c-0.2,0.4-0.4,0.8-0.6,1.2c-9.7,3.2-20.4,5.5-31.1,5.5c-6.7,0-13.3-0.9-19.8-3c-1.4,5.9-2.7,11.9-3.9,17.9l-0.9-0.1      c3.3-16.4,7.3-32.1,11.8-47.1C578.9,457,567.8,448.8,559.5,439.3z"
   id="path35"
   fill="#441D5C" />
			</g>
			<g
   id="g48">
				
					<linearGradient
   id="SVGID_4_"
   gradientUnits="userSpaceOnUse"
   x1="671.9912"
   y1="507.8418"
   x2="759.5789"
   y2="313.7039"
   gradientTransform="matrix(0.9956 9.405303e-002 -9.405303e-002 0.9956 43.3258 -64.1139)">
					<stop
   offset="0"
   style="stop-color:#009444"
   id="stop39" />
					<stop
   offset="1"
   style="stop-color:#39B54A"
   id="stop41" />
				</linearGradient>
				<path
   d="M610.6,497.3c0,0,36.7-114.9,123.4-142.2c86.7-27.3,76,62.5-40.5,155.8L610.6,497.3z"
   id="path44"
   fill="url(#SVGID_4_)" />
				<path
   d="M778.7,407.3c-20.3,12.1-48.9,24.5-70.9,15.1c19.7-23.6,42.7-48.7,67-70.3c-0.3-0.1-0.5-0.2-0.8-0.3      c-15.6,13.9-30.6,29.2-44.6,44.6c-9.6-8.1-10.3-22.3-7.5-36.8c-0.3,0.1-0.6,0.3-0.9,0.4c-3.2,17.2-0.5,29.8,7.9,36.9      c-13.3,14.7-25.7,29.5-36.6,43.3c-17.8-8.6-24.4-24.5-26.4-38.8c-0.2,0.2-0.4,0.5-0.6,0.7c2.1,14.4,8.8,30.1,26.6,38.7      c-3.8,4.8-7.4,9.4-10.8,13.9c-11.4,15-21.6,29.1-30,41.1c-15.9-5.6-23.2-18.9-26.3-32.2c-0.2,0.4-0.4,0.7-0.5,1.1      c4,16.1,13,26.9,26.4,31.8c-1.6,2.3-3.1,4.5-4.6,6.7l0.8,0.1c8.5-12.5,19.3-27.7,31.8-44.1c1.9,1.3,12.6,8,30.1,9.6      c0.3,0,0.6,0.1,0.9,0.1c8.7,0.7,19.9,0.2,33.1-3.4c0.3-0.3,0.6-0.7,0.9-1c-13.6,3.9-25.1,4.4-34,3.7      c-17.8-1.5-28.6-8.3-30.6-9.6c0.9-1.1,1.7-2.3,2.6-3.4c7.7-10,16.3-20.9,25.7-32.2c4.1,1.8,8.5,2.9,13,3.3      c19.8,1.9,42.1-8.3,58.8-18.3c1.8-1.1,3.7-2.2,5.4-3.4c0.2-0.4,0.3-0.8,0.5-1.2C783,404.7,780.8,406,778.7,407.3z"
   id="path46"
   fill="#006838" />
			</g>
		</g>
		<g
   id="g85">
			<g
   id="g61">
				
					<linearGradient
   id="SVGID_5_"
   gradientUnits="userSpaceOnUse"
   x1="213.7442"
   y1="533.718"
   x2="148.6407"
   y2="331.0572"
   gradientTransform="matrix(0.9927 0.1206 -0.1206 0.9927 46.0815 -27.1395)">
					<stop
   offset="0"
   style="stop-color:#00A79D"
   id="stop52" />
					<stop
   offset="1"
   style="stop-color:#2BB673"
   id="stop54" />
				</linearGradient>
				<path
   d="M134.5,511c0,0-46.1-22.6-25.7-75.7c13.9-36.3-30.9-54.9-28.2-87.3c2.6-32.4,26.1-33.9,14-72.7      c-12.1-38.8,50.1-69.5,78.3-15.9c28.1,53.7,47.6,39.8,59.7,81c12.1,41.3-18.9,54.7,2.6,84.3c21.5,29.6,38.1,39.4,20.5,83.8      L134.5,511z"
   id="path57"
   fill="url(#SVGID_5_)" />
				<path
   d="M196.1,496.9l54.9-51.3c-0.2-0.2-0.3-0.5-0.5-0.7l-54.6,51c-1.8-12.6-3.9-25-6-36.9l0.7,0.3l0.4,0.2      l41.1-120.6c-0.1-0.5-0.3-0.9-0.4-1.4l-41.2,120.8l-0.8-0.3c-3.6-19.7-7.6-38.5-11.8-56.1l40.1-88.7c-0.2-0.2-0.4-0.4-0.6-0.7      l-39.8,88c-4.4-18.2-8.9-35.3-13.5-51l23.7-66.2c-0.2-0.3-0.4-0.5-0.6-0.8l-23.5,65.6c-6-20.4-12-38.6-17.4-54.1      c-9.1-25.6-17.7-46.6-24.6-62.2c-0.3,0.1-0.6,0.1-0.8,0.2c6.9,15.6,15.5,36.6,24.6,62.3c1.7,4.9,3.5,10.1,5.4,15.6L93.7,272      c0.1,0.4,0.2,0.8,0.3,1.2l57.2,38c3.8,11.4,7.7,23.8,11.7,37.3l-68.1-38.2c-0.1,0.3-0.2,0.5-0.3,0.8l68.8,38.6      c1.5,5.3,3.1,10.7,4.6,16.3l-87.4-16.1c0,0.3,0,0.6,0,0.9l87.6,16.1c7.4,27,14.6,57.5,20.6,90.6l-77.4-32.8      c0,0.3-0.1,0.6-0.1,0.9l77.7,32.9c0.9,5.1,1.8,10.2,2.7,15.4l-87.8-17.7c0,0.3,0,0.6-0.1,0.9l88,17.7c1.9,11.3,3.6,23,5.2,34.8      l0.9,0C197.2,505.4,196.7,501.2,196.1,496.9z"
   id="path59"
   fill="#FFFFFF" />
			</g>
			<g
   id="g72">
				
					<linearGradient
   id="SVGID_6_"
   gradientUnits="userSpaceOnUse"
   x1="241.7112"
   y1="397.1105"
   x2="405.0647"
   y2="397.1105"
   gradientTransform="matrix(0.9956 9.334074e-002 -9.334074e-002 0.9956 38.4784 -28.4516)">
					<stop
   offset="0"
   style="stop-color:#EE223D"
   id="stop63" />
					<stop
   offset="1"
   style="stop-color:#C41931"
   id="stop65" />
				</linearGradient>
				<path
   d="M394.7,511c0,0,5.7-149.9-60.7-210.4c-66.4-60.6-110.8,24.7-73.4,94.1      c37.4,69.4,52.1,115.9,52.1,115.9L394.7,511z"
   id="path68"
   fill="url(#SVGID_6_)" />
				<path
   d="M391,440.5c0-0.4-0.1-0.7-0.1-1.1c-9.8,9.4-22.5,17.1-38.6,19c-3.5-17.4-7.7-33.9-12.2-49.4      c15.8-3.1,28.8-13.3,38.3-29.9c-0.1-0.4-0.2-0.8-0.4-1.2c-8,14.3-20.1,26.8-38.2,30.3c-7.7-26.3-16.5-49.5-24.8-68.9      c11.3-1.6,18.9-13.4,22.6-35.2c-0.3-0.3-0.6-0.6-0.9-0.9c-3.1,18.3-9.5,33.6-22.1,35.2c-1.4-3.3-2.8-6.4-4.2-9.5      c-8.7-19.2-17.3-35.6-24.7-48.6c-0.3,0-0.6,0.1-1,0.2c7.5,13.1,16.1,29.5,24.9,48.9c5.1,11.3,10.5,24.3,15.8,38.5      c-25.6,7.3-55.6-23.2-75.7-49c-0.1,0.4-0.2,0.8-0.3,1.2c3.2,4.1,6.6,8.3,10.2,12.4c20.2,23.1,38.8,35.8,54.7,37.2      c4,0.4,7.8,0,11.4-1c7.2,19.6,14.3,41.7,20.2,66c-29,7.6-56.5-6.4-74.9-20c0.3,0.6,0.6,1.2,0.9,1.8c13.3,9.6,31,19.1,50.5,20.9      c7.7,0.7,15.6,0.2,23.7-1.9c4.2,17.2,7.8,35.5,10.6,54.7c-18.5,4.1-37.8-0.7-54.7-8.2c0.2,0.4,0.4,0.9,0.5,1.3      c10,4.4,21.2,7.9,32.8,9c7.1,0.7,14.4,0.4,21.5-1.2c0.9,6.4,1.7,13,2.4,19.6l0.9,0c-1.9-17.9-4.6-35.1-7.9-51.5      C368.4,457.4,381.1,449.7,391,440.5z"
   id="path70"
   fill="#F58678" />
			</g>
			<g
   id="g83">
				
					<linearGradient
   id="SVGID_7_"
   gradientUnits="userSpaceOnUse"
   x1="572.1973"
   y1="507.4438"
   x2="659.785"
   y2="313.3059"
   gradientTransform="matrix(-1 0 0 1 700 0)">
					<stop
   offset="0"
   style="stop-color:#FBB040"
   id="stop74" />
					<stop
   offset="1"
   style="stop-color:#FFDE17"
   id="stop76" />
				</linearGradient>
				<path
   d="M182.2,505.2c0,0-25.7-117.8-109.5-153.2C-11,316.6-8.8,407.1,98.5,511L182.2,505.2z"
   id="path79"
   fill="url(#SVGID_7_)" />
				<path
   d="M23.3,399.8c19,14,46.4,29,69.2,21.7c-17.4-25.4-38-52.5-60.1-76.3c0.3-0.1,0.6-0.1,0.8-0.2      c14.2,15.3,27.8,31.9,40.2,48.6c10.3-7.2,12.3-21.3,10.9-35.9c0.3,0.2,0.6,0.3,0.9,0.5c1.5,17.4-2.3,29.7-11.3,36      c11.9,15.9,22.8,31.8,32.4,46.5c18.6-6.9,26.6-22.1,29.9-36.2c0.2,0.3,0.4,0.5,0.6,0.8c-3.4,14.1-11.6,29.1-30.1,36      c3.3,5.1,6.5,10.1,9.4,14.8c10,16,18.8,31,26,43.8c16.4-4.1,24.8-16.6,29.2-29.6c0.1,0.4,0.3,0.7,0.4,1.1      c-5.5,15.6-15.4,25.6-29.3,29.1c1.4,2.4,2.7,4.8,4,7.1l-0.8,0.1c-7.3-13.2-16.6-29.4-27.5-46.9c-2,1.1-13.3,6.8-30.8,6.8      c-0.3,0-0.6,0-0.9,0c-8.7-0.1-19.8-1.6-32.7-6.5c-0.3-0.4-0.6-0.7-0.8-1.1c13.2,5.1,24.6,6.8,33.5,6.9      c17.8,0.2,29.3-5.5,31.3-6.6c-0.8-1.2-1.5-2.4-2.3-3.7c-6.7-10.7-14.2-22.4-22.5-34.5c-4.3,1.4-8.7,2-13.2,2      c-19.9,0-41.2-12.2-56.8-23.7c-1.7-1.3-3.4-2.6-5.1-3.9c-0.1-0.4-0.3-0.8-0.4-1.3C19.4,396.8,21.3,398.3,23.3,399.8z"
   id="path81"
   fill="#FFE181" />
			</g>
		</g>
	</g>
	<linearGradient
   id="SVGID_8_"
   gradientUnits="userSpaceOnUse"
   x1="400"
   y1="450.6004"
   x2="400"
   y2="573.6766">
		<stop
   offset="0"
   style="stop-color:#8DC63F"
   id="stop89" />
		<stop
   offset="1"
   style="stop-color:#D7DF23"
   id="stop91" />
	</linearGradient>
	
	<linearGradient
   id="SVGID_9_"
   gradientUnits="userSpaceOnUse"
   x1="400"
   y1="491.0984"
   x2="400"
   y2="597.6353">
		<stop
   offset="0"
   style="stop-color:#8DC63F"
   id="stop96" />
		<stop
   offset="1"
   style="stop-color:#D7DF23"
   id="stop98" />
	</linearGradient>
	
	<linearGradient
   id="SVGID_10_"
   gradientUnits="userSpaceOnUse"
   x1="400"
   y1="525.5967"
   x2="400"
   y2="617.1044">
		<stop
   offset="0"
   style="stop-color:#8DC63F"
   id="stop103" />
		<stop
   offset="1"
   style="stop-color:#D7DF23"
   id="stop105" />
	</linearGradient>
	
</g>
<g
   id="Object"
   transform="translate(0.7,48.3)">
	<g
   id="g220">
		<linearGradient
   id="SVGID_11_"
   gradientUnits="userSpaceOnUse"
   x1="562.16553"
   y1="269.64401"
   x2="512.83221"
   y2="154.97729">
			<stop
   offset="0"
   style="stop-color:#FBBB9A"
   id="stop111" />
			<stop
   offset="1"
   style="stop-color:#FED3A5"
   id="stop113" />
		</linearGradient>
		<path
   d="m 581.1,256.4 c -0.3,-8.5 -7.5,-13.7 -33,-29.6 -25.5,-16 -26,-93 -26,-93 0,0 5.6,-6.1 4.9,-12.6 -0.7,-6.5 -8,-15 -9.3,-13.5 -1.3,1.5 2.8,11.9 3,13 0.2,1.1 -9,-16 -11,-19 -2,-3 -10.3,15 4.3,32.1 0,0 -10.5,66.5 2.5,98 13.1,31.5 65.6,57.8 64.6,24.6 z"
   id="path116"
   style="fill:url(#SVGID_11_)"
   inkscape:connector-curvature="0" />
		<linearGradient
   id="SVGID_12_"
   gradientUnits="userSpaceOnUse"
   x1="668.14221"
   y1="297.05081"
   x2="621.64447"
   y2="210.05521">
			<stop
   offset="0"
   style="stop-color:#C41931"
   id="stop118" />
			<stop
   offset="1"
   style="stop-color:#EE223D"
   id="stop120" />
		</linearGradient>
		<path
   d="m 630.9,185.9 c 0,0 12.8,7.1 15.2,31.6 2.4,24.5 21.9,17.1 35.4,29.7 13.4,12.6 13.3,39.6 -18.7,45.9 -32,6.4 -32.9,-19.2 -37.9,-30.5 -5,-11.2 -30.1,-17.9 -41.6,-47.7 z"
   id="path123"
   style="fill:url(#SVGID_12_)"
   inkscape:connector-curvature="0" />
		<linearGradient
   id="SVGID_13_"
   gradientUnits="userSpaceOnUse"
   x1="647.28491"
   y1="311.2276"
   x2="583.28491"
   y2="275.2276">
			<stop
   offset="0"
   style="stop-color:#FBBB9A"
   id="stop125" />
			<stop
   offset="1"
   style="stop-color:#FED3A5"
   id="stop127" />
		</linearGradient>
		<path
   d="m 611.8,252.2 c 3.6,-7.3 9.9,-19.6 16.2,-30.1 7.2,-11.9 9,-17.8 -7.4,-29.2 -16.4,-11.4 -19.5,-6.4 -24.2,-1.7 -8.5,8.5 -16.6,30.2 -14.5,33.5 2.1,3.3 12.7,9.5 13.5,12.9 0.3,1.4 -1.3,5.8 -3.2,10.5 -20.7,-4.8 -29.4,-5.5 -38.6,8.9 -10.5,16.5 -26,14 -28.5,27 -2.5,13 10,14.5 10,14.5 L 514,340 h 62 c 0,0 4,-21.6 26,-34.3 22,-12.7 36.3,-26.7 36.4,-40.7 0.1,-11.5 -12.2,-11 -26.6,-12.8 z"
   id="path130"
   style="fill:url(#SVGID_13_)"
   inkscape:connector-curvature="0" />
		<linearGradient
   id="SVGID_14_"
   gradientUnits="userSpaceOnUse"
   x1="661.32129"
   y1="300.6965"
   x2="614.82361"
   y2="213.70081">
			<stop
   offset="0"
   style="stop-color:#C41931"
   id="stop132" />
			<stop
   offset="1"
   style="stop-color:#EE223D"
   id="stop134" />
		</linearGradient>
		<path
   d="m 620,196.5 c 0,0 -3,5.3 -4,16 -1,10.7 0.7,9.3 4,8 3.3,-1.3 5.4,8.3 -2.1,9.7 -7.5,1.3 -4.7,12.6 -1.3,12.6 3.4,0 20.7,-15 21.7,-36.6 1,-21.6 -15.3,-27.3 -34,-25.3 -18.7,2 -27.5,18.1 -21.2,34.4 0.1,-0.1 11.6,-28.8 36.9,-18.8 z"
   id="path137"
   style="fill:url(#SVGID_14_)"
   inkscape:connector-curvature="0" />
		<linearGradient
   id="SVGID_15_"
   gradientUnits="userSpaceOnUse"
   x1="557.28748"
   y1="354.60519"
   x2="557.28748"
   y2="277.97681">
			<stop
   offset="0"
   style="stop-color:#3A273A"
   id="stop139" />
			<stop
   offset="1"
   style="stop-color:#5A435A"
   id="stop141" />
		</linearGradient>
		<path
   d="m 600.6,306.5 c -0.5,-10.2 -3.4,-26.9 -17.3,-30 -20.2,-4.5 -37.8,13.7 -37.8,13.7 -2.7,-10 -7.6,-14.6 -12,-16.7 -4.2,2.5 -7.4,5.2 -8.5,10.6 -2.5,13 10,14.5 10,14.5 L 514,340 h 62 c 0,0 3.8,-20.7 24.6,-33.5 z"
   id="path144"
   style="fill:url(#SVGID_15_)"
   inkscape:connector-curvature="0" />
		
			<linearGradient
   id="SVGID_16_"
   gradientUnits="userSpaceOnUse"
   x1="386.2529"
   y1="247.4449"
   x2="246.2325"
   y2="315.65991"
   gradientTransform="matrix(0.9788,0.205,-0.205,0.9788,55.5518,-68.2646)">
			<stop
   offset="0"
   style="stop-color:#FBBB9A"
   id="stop146" />
			<stop
   offset="1"
   style="stop-color:#FED3A5"
   id="stop148" />
		</linearGradient>
		<path
   d="m 287.6,232 c 31.3,6.6 105.4,60.2 85.2,71.4 -16.2,9 -98.5,-9.8 -108.7,-33.4 -9.7,-22.5 1.4,-42.7 23.5,-38 z"
   id="path151"
   style="fill:url(#SVGID_16_)"
   inkscape:connector-curvature="0" />
		<linearGradient
   id="SVGID_17_"
   gradientUnits="userSpaceOnUse"
   x1="153.9857"
   y1="283.99609"
   x2="308.10681"
   y2="283.99609">
			<stop
   offset="0"
   style="stop-color:#FBBB9A"
   id="stop153" />
			<stop
   offset="1"
   style="stop-color:#FED3A5"
   id="stop155" />
		</linearGradient>
		<path
   d="m 164.7,233.3 c 15.5,-14.7 64,6.3 84,3.7 20,-2.6 37.5,-11.2 50,0.3 24,21.9 -5.3,102.7 -5.3,102.7 H 186.7 c 0,0 -55.4,-75.2 -22,-106.7 z"
   id="path158"
   style="fill:url(#SVGID_17_)"
   inkscape:connector-curvature="0" />
		
			<linearGradient
   id="SVGID_18_"
   gradientUnits="userSpaceOnUse"
   x1="774.92761"
   y1="227.69051"
   x2="718.55103"
   y2="198.53011"
   gradientTransform="matrix(-1,0,0,1,991.6857,0)">
			<stop
   offset="0"
   style="stop-color:#FBBB9A"
   id="stop160" />
			<stop
   offset="1"
   style="stop-color:#FED3A5"
   id="stop162" />
		</linearGradient>
		<path
   d="m 267.9,186.2 c 3.4,11.5 0.4,34.5 -3.1,36.4 -3.4,1.9 -15.7,2.3 -18,5 -2.3,2.7 -3.1,26 -3.1,26 0,0 -19.5,-11.1 -23.4,-20.3 0,0 3.1,-21.1 5,-34.8 1.9,-13.8 0.5,-19.9 20.3,-22.2 20,-2.4 20.4,3.5 22.3,9.9 z"
   id="path165"
   style="fill:url(#SVGID_18_)"
   inkscape:connector-curvature="0" />
		
			<linearGradient
   id="SVGID_19_"
   gradientUnits="userSpaceOnUse"
   x1="718.09479"
   y1="191.7419"
   x2="770.7937"
   y2="191.7419"
   gradientTransform="matrix(-1,0,0,1,991.6857,0)">
			<stop
   offset="0"
   style="stop-color:#282F39"
   id="stop167" />
			<stop
   offset="1"
   style="stop-color:#141B24"
   id="stop169" />
		</linearGradient>
		<path
   d="m 269.4,172.4 c 0,0 10.5,15.1 -1.8,15.8 -12.3,0.7 -24.6,0.3 -26.9,5.3 -2.3,5 -1.5,13.4 -5.7,11.1 -4.2,-2.3 -11.1,-4.9 -8.4,2.3 2.7,7.3 2,10.5 -3.2,6.2 -5.2,-4.3 -0.5,-12.2 0,-19.4 0.5,-7.2 0.5,-17.1 4.7,-21.3 4.2,-4.2 13.8,1.5 22.2,0 8.4,-1.5 10.3,-8 19.1,0 z"
   id="path172"
   style="fill:url(#SVGID_19_)"
   inkscape:connector-curvature="0" />
		<g
   id="g188">
			<linearGradient
   id="SVGID_20_"
   gradientUnits="userSpaceOnUse"
   x1="400"
   y1="525.47491"
   x2="400"
   y2="368.47491">
				<stop
   offset="0"
   style="stop-color:#2B3990"
   id="stop174" />
				<stop
   offset="1"
   style="stop-color:#1C75BC"
   id="stop176" />
			</linearGradient>
			<path
   d="m 77.6,371.5 c -10.6,30 -10.6,59.9 0,89.9 6.7,19 24.4,31.9 44.6,32.6 185.2,6.2 370.5,6.2 555.7,0 20.1,-0.7 37.8,-13.6 44.6,-32.6 10.6,-30 10.6,-59.9 0,-89.9 -6.7,-19 -24.4,-31.9 -44.6,-32.6 -185.2,-6.2 -370.5,-6.2 -555.7,0 -20.2,0.7 -37.9,13.6 -44.6,32.6 z"
   id="path179"
   style="fill:url(#SVGID_20_)"
   inkscape:connector-curvature="0" />
			<linearGradient
   id="SVGID_21_"
   gradientUnits="userSpaceOnUse"
   x1="400"
   y1="384.78079"
   x2="400"
   y2="335.46411">
				<stop
   offset="0"
   style="stop-color:#D1D3D4"
   id="stop181" />
				<stop
   offset="1"
   style="stop-color:#FFFFFF"
   id="stop183" />
			</linearGradient>
			<path
   d="m 720.7,366.4 c -7.7,-16.7 -24.2,-27.8 -42.9,-28.5 -185.2,-6.2 -370.5,-6.2 -555.7,0 -18.6,0.6 -35.2,11.7 -42.9,28.5 213.9,-6.9 427.7,-6.9 641.5,0 z"
   id="path186"
   style="fill:url(#SVGID_21_)"
   inkscape:connector-curvature="0" />
		</g>
		<path
   d="m 339.8,202.8 h -9.7 -9.7 c 0,0 2.5,5.8 2.9,14.8 0.4,9 0,19.2 0,19.2 h 6.7 6.7 c 0,0 -0.4,-10.2 0,-19.2 0.6,-9 3.1,-14.8 3.1,-14.8 z"
   id="path190"
   inkscape:connector-curvature="0"
   style="fill:#ffde17" />
		<linearGradient
   id="SVGID_22_"
   gradientUnits="userSpaceOnUse"
   x1="373.34409"
   y1="258.67831"
   x2="325.6825"
   y2="281.89801">
			<stop
   offset="0"
   style="stop-color:#FBBB9A"
   id="stop192" />
			<stop
   offset="1"
   style="stop-color:#FED3A5"
   id="stop194" />
		</linearGradient>
		<path
   d="m 344.5,229 -7.5,4.3 c 0,0 -5,72 24.5,72 29.5,0 17.5,-35.8 -17,-76.3 z"
   id="path197"
   style="fill:url(#SVGID_22_)"
   inkscape:connector-curvature="0" />
		<linearGradient
   id="SVGID_23_"
   gradientUnits="userSpaceOnUse"
   x1="343.74271"
   y1="218.0399"
   x2="322.60739"
   y2="228.33659">
			<stop
   offset="0"
   style="stop-color:#FBBB9A"
   id="stop199" />
			<stop
   offset="1"
   style="stop-color:#FED3A5"
   id="stop201" />
		</linearGradient>
		<path
   d="m 344.5,229 c 0,0 -2.2,-9.3 -4.5,-12.3 -2.3,-3 -14.5,-2.2 -16.2,-0.8 -1.7,1.3 1.7,6 4.7,7.8 3,1.8 6.7,2.3 6.7,2.3 0,0 -3.2,3.6 1.8,7.3 z"
   id="path204"
   style="fill:url(#SVGID_23_)"
   inkscape:connector-curvature="0" />
		<linearGradient
   id="SVGID_24_"
   gradientUnits="userSpaceOnUse"
   x1="108.7505"
   y1="290.12711"
   x2="243.75929"
   y2="290.12711">
			<stop
   offset="0"
   style="stop-color:#FBBB9A"
   id="stop206" />
			<stop
   offset="1"
   style="stop-color:#FED3A5"
   id="stop208" />
		</linearGradient>
		<path
   d="m 229.7,338.5 c 0.3,-0.9 10,-4.9 1.4,-4.3 -8.6,0.6 -10.6,4.3 -10.6,4.3 0,0 -56.4,-28.7 -59.9,-32.7 -3.5,-4 75,-76.8 17.7,-76.8 -38.4,0 -72,53.5 -69.3,86.2 2.7,32.7 109.3,33.3 109.3,33.3 6.9,6.2 21.8,0.8 25.1,-3.7 3.3,-4.5 -14.1,-5.3 -13.7,-6.3 z"
   id="path211"
   style="fill:url(#SVGID_24_)"
   inkscape:connector-curvature="0" />
		<linearGradient
   id="SVGID_25_"
   gradientUnits="userSpaceOnUse"
   x1="636.63409"
   y1="367.70251"
   x2="587.41528"
   y2="272.90179">
			<stop
   offset="0"
   style="stop-color:#FBBB9A"
   id="stop213" />
			<stop
   offset="1"
   style="stop-color:#FED3A5"
   id="stop215" />
		</linearGradient>
		<path
   d="m 627.1,255 c -7.2,0 -15.3,3.9 -13.8,19.9 1.5,16 35.5,39.5 35.5,43.5 0,4 -52.9,21.1 -52.9,21.1 0,0 -6.3,-4.4 -12.8,-3.4 -6.5,1 -14.6,8.6 -13.1,9.8 1.6,1.2 11.8,-3.3 12.8,-3.5 1,-0.3 -15.6,9.7 -18.5,11.8 -2.9,2.1 15.4,10.6 31.9,-4.7 0,0 55,-7.6 72,-16.3 17,-8.7 -17.9,-78.2 -41.1,-78.2 z"
   id="path218"
   style="fill:url(#SVGID_25_)"
   inkscape:connector-curvature="0" />
	</g>
</g>
<g
   id="Text">
</g>
<g
   id="Effect">
</g>
</svg>