<?xml version="1.0" encoding="UTF-8" standalone="no"?>
<!-- Generator: Adobe Illustrator 21.0.0, SVG Export Plug-In . SVG Version: 6.00 Build 0)  -->

<svg
   xmlns:dc="http://purl.org/dc/elements/1.1/"
   xmlns:cc="http://creativecommons.org/ns#"
   xmlns:rdf="http://www.w3.org/1999/02/22-rdf-syntax-ns#"
   xmlns:svg="http://www.w3.org/2000/svg"
   xmlns="http://www.w3.org/2000/svg"
   xmlns:xlink="http://www.w3.org/1999/xlink"
   xmlns:sodipodi="http://sodipodi.sourceforge.net/DTD/sodipodi-0.dtd"
   xmlns:inkscape="http://www.inkscape.org/namespaces/inkscape"
   version="1.1"
   id="Layer_3"
   x="0px"
   y="0px"
   width="2208.2302"
   height="1603.631"
   viewBox="0 0 2208.2302 1603.631"
   xml:space="preserve"
   sodipodi:docname="logo.svg"
   inkscape:version="0.92.3 (2405546, 2018-03-11)"><metadata
   id="metadata360"><rdf:RDF><cc:Work
       rdf:about=""><dc:format>image/svg+xml</dc:format><dc:type
         rdf:resource="http://purl.org/dc/dcmitype/StillImage" /></cc:Work></rdf:RDF></metadata><defs
   id="defs358"><linearGradient
   inkscape:collect="always"
   id="linearGradient4909"><stop
     style="stop-color:#ffffff;stop-opacity:1;"
     offset="0"
     id="stop4905" /><stop
     style="stop-color:#ffffff;stop-opacity:0;"
     offset="1"
     id="stop4907" /></linearGradient><linearGradient
   inkscape:collect="always"
   xlink:href="#linearGradient4909"
   id="linearGradient4911"
   x1="636.19232"
   y1="-181.98747"
   x2="751.39215"
   y2="-181.98747"
   gradientUnits="userSpaceOnUse" /><linearGradient
   inkscape:collect="always"
   xlink:href="#linearGradient4909"
   id="linearGradient4913"
   x1="824.48242"
   y1="-336.043"
   x2="916.28229"
   y2="-336.043"
   gradientUnits="userSpaceOnUse" />
		
		
	</defs><sodipodi:namedview
   pagecolor="#ffffff"
   bordercolor="#666666"
   borderopacity="1"
   objecttolerance="10"
   gridtolerance="10"
   guidetolerance="10"
   inkscape:pageopacity="0"
   inkscape:pageshadow="2"
   inkscape:window-width="1920"
   inkscape:window-height="1053"
   id="namedview356"
   showgrid="false"
   inkscape:zoom="1.4020917"
   inkscape:cx="1948.7831"
   inkscape:cy="1288.6976"
   inkscape:window-x="0"
   inkscape:window-y="27"
   inkscape:window-maximized="1"
   inkscape:current-layer="Layer_3" />
<style
   type="text/css"
   id="style2">
	.st0{fill:url(#SVGID_1_);}
	.st1{fill:#F7F7FB;}
	.st2{fill:#E1AB25;}
	.st3{enable-background:new    ;}
	.st4{fill:#DCDEEA;}
	.st5{fill:#BABAC6;}
	.st6{fill:#FFFFFF;}
	.st7{fill:#F26F8D;}
	.st8{fill:#D0D0D6;}
	.st9{fill:#96989D;}
	.st10{fill:#C5C5D6;}
	.st11{fill:#A8D3EC;}
	.st12{fill:#D2E8F3;}
	.st13{fill:#86C6EC;}
	.st14{fill:#93CAEA;}
	.st15{fill:#B4D7EB;}
	.st16{fill:#E5E5EA;}
	.st17{fill:#BDBDC2;}
	.st18{fill:#7AAF37;}
	.st19{fill:#CC4161;}
	.st20{fill:#E15A78;}
	.st21{fill:#85C0E2;}
	.st22{fill:#9ACDEA;}
	.st23{fill:#D7E3F4;}
	.st24{fill:#E8F3F7;}
	.st25{fill:#B7DFF2;}
	.st26{fill:#F5DC13;}
	.st27{fill:none;}
	.st28{fill:#F47638;}
	.st29{fill:#4599D4;}
</style>
<linearGradient
   id="SVGID_1_"
   gradientUnits="userSpaceOnUse"
   x1="0"
   y1="900"
   x2="2800"
   y2="900">
	<stop
   offset="0"
   style="stop-color:#EAC252"
   id="stop4" />
	<stop
   offset="1"
   style="stop-color:#FBE352"
   id="stop6" />
</linearGradient>


<path
   class="st2"
   d="m 542.42237,558.07196 c -51.56207,-25.55273 -135.1557,-25.55273 -186.71777,0 -51.55835,25.55353 -51.55835,66.98291 0,92.53564 51.56207,25.55273 135.1557,25.55273 186.71777,0 51.55835,-25.55273 51.55835,-66.98211 0,-92.53564 z"
   id="path43"
   style="fill:#25c0e1;fill-opacity:1"
   inkscape:connector-curvature="0" />
<path
   class="st2"
   d="m 453.78321,617.40161 c 72.4024,48.27374 94.43304,105.51617 49.20685,127.85449 -45.22619,22.33832 -140.58301,1.31342 -212.98547,-46.96039 -72.40246,-48.27381 -94.43305,-105.51617 -49.20686,-127.85449 45.22619,-22.33832 140.58307,-1.31341 212.98548,46.96039 z"
   id="path45"
   style="fill:#25c0e1;fill-opacity:1"
   inkscape:connector-curvature="0" />
<path
   class="st2"
   d="m 697.05583,476.74622 c 72.4023,48.2738 94.4331,105.51624 49.2069,127.85455 -45.2263,22.33832 -140.58316,1.31342 -212.98556,-46.96039 -72.4024,-48.27381 -94.43304,-105.51617 -49.20685,-127.85449 45.22619,-22.33832 140.58301,-1.31348 212.98551,46.96033 z"
   id="path47"
   style="fill:#25c0e1;fill-opacity:1"
   inkscape:connector-curvature="0" />
<g
   id="g95"
   transform="translate(-382.76977,-137.79956)">
	<g
   id="g65">
		<g
   class="st3"
   id="g63"
   style="enable-background:new">
			<g
   id="g51">
				<polygon
   class="st4"
   points="955.87988,492.42117 965.62842,498.04453 965.39716,578.7608 955.62091,584.43976 "
   id="polygon49"
   style="fill:#dcdeea" />
			</g>
			<polygon
   class="st4"
   points="1064.9722,647.57361 1065.2682,543.0318 1075.0444,537.35291 1074.7484,641.89471 "
   id="polygon53"
   style="fill:#dcdeea" />
			<g
   id="g57">
				<polygon
   class="st1"
   points="954.79773,467.92044 1075.0444,537.35291 1065.2682,543.0318 945.02155,473.60861 "
   id="polygon55"
   style="fill:#f7f7fb" />
			</g>
			<g
   id="g61">
				<polygon
   class="st5"
   points="944.72552,578.15039 945.02155,473.60861 1065.2682,543.0318 1064.9722,647.57361 1054.0861,641.29352 1054.3451,549.26569 965.62842,498.04453 955.87988,492.42117 955.62091,584.43976 "
   id="polygon59"
   style="fill:#babac6" />
			</g>
		</g>
	</g>
	<g
   class="st3"
   id="g75"
   style="enable-background:new">
		<path
   class="st4"
   d="m 913.5296,415.18353 c -0.009,-0.0255 -0.0181,-0.0509 -0.0273,-0.0763 -0.0335,-0.0923 -0.0679,-0.18408 -0.10352,-0.27542 -0.0347,-0.0891 -0.0704,-0.17783 -0.10699,-0.26605 -0.0367,-0.0882 -0.0743,-0.1759 -0.11273,-0.26312 -0.0159,-0.0359 -0.0325,-0.0712 -0.0487,-0.10687 -0.005,-0.0114 -0.0104,-0.0229 -0.0156,-0.0343 -0.0187,-0.041 -0.0369,-0.0822 -0.0559,-0.12292 -0.0447,-0.0953 -0.0905,-0.18985 -0.13727,-0.28375 -0.0538,-0.10803 -0.10907,-0.21506 -0.16565,-0.3212 -0.0286,-0.0536 -0.0594,-0.10541 -0.0887,-0.15851 -0.0211,-0.0383 -0.0424,-0.0762 -0.064,-0.11432 -0.0362,-0.0642 -0.0709,-0.12979 -0.10809,-0.19318 -0.10693,-0.18256 -0.22125,-0.35806 -0.33563,-0.53342 -0.0303,-0.0464 -0.058,-0.0951 -0.0888,-0.14102 -0.007,-0.01 -0.0125,-0.0204 -0.0191,-0.0302 -0.10767,-0.15967 -0.2182,-0.31598 -0.33136,-0.46872 -0.0749,-0.10117 -0.151,-0.20074 -0.22809,-0.29871 -0.004,-0.005 -0.008,-0.009 -0.0115,-0.0142 -0.003,-0.004 -0.007,-0.008 -0.0102,-0.0127 -0.0626,-0.0791 -0.12579,-0.15756 -0.18982,-0.2345 -0.0696,-0.0837 -0.13995,-0.16599 -0.211,-0.24686 -0.0713,-0.0812 -0.14337,-0.16101 -0.216,-0.23932 -0.009,-0.009 -0.0176,-0.0183 -0.0264,-0.0276 -0.007,-0.007 -0.0132,-0.0139 -0.0199,-0.0209 -0.0592,-0.0631 -0.11847,-0.12589 -0.17841,-0.18698 -0.0779,-0.0794 -0.15656,-0.1571 -0.23572,-0.23309 -0.0809,-0.0776 -0.16235,-0.15338 -0.24438,-0.22726 -0.006,-0.005 -0.0118,-0.0102 -0.0177,-0.0154 -0.006,-0.005 -0.0114,-0.01 -0.0171,-0.0149 -0.0706,-0.063 -0.14142,-0.12534 -0.21271,-0.18558 -0.0817,-0.0688 -0.16376,-0.13593 -0.24628,-0.20102 -0.0804,-0.0635 -0.16125,-0.12509 -0.24237,-0.18481 -0.003,-0.002 -0.005,-0.004 -0.008,-0.006 -0.002,-10e-4 -0.003,-0.002 -0.005,-0.003 -0.0747,-0.0548 -0.14966,-0.10834 -0.22491,-0.15988 -0.0773,-0.053 -0.15479,-0.10416 -0.23248,-0.15356 -0.0753,-0.0478 -0.1507,-0.094 -0.2262,-0.13846 -0.0175,-0.0103 -0.0349,-0.0204 -0.0523,-0.0305 -0.0571,-0.0329 -0.11407,-0.0648 -0.1712,-0.0957 -0.0733,-0.0397 -0.14679,-0.0777 -0.22021,-0.11404 -0.0728,-0.036 -0.14557,-0.0703 -0.21838,-0.10291 -0.007,-0.003 -0.0143,-0.006 -0.0215,-0.009 -0.006,-0.003 -0.0123,-0.005 -0.0184,-0.008 -0.0593,-0.026 -0.11865,-0.0518 -0.17792,-0.0755 -0.0729,-0.0292 -0.14581,-0.0566 -0.21857,-0.0822 -0.0736,-0.0259 -0.14697,-0.05 -0.22034,-0.0721 l -0.006,-0.002 c -0.002,-7.9e-4 -0.005,-0.001 -0.008,-0.002 -0.0701,-0.0211 -0.14038,-0.0407 -0.21039,-0.0582 -0.0766,-0.0191 -0.15302,-0.0362 -0.22919,-0.051 -0.0551,-0.0107 -0.10999,-0.0188 -0.16486,-0.0273 -0.0105,-0.002 -0.0211,-0.004 -0.0317,-0.005 -0.0134,-0.002 -0.0269,-0.005 -0.0402,-0.007 -0.0829,-0.0112 -0.16559,-0.0197 -0.24768,-0.0255 -0.0884,-0.006 -0.17627,-0.009 -0.26349,-0.009 -0.0171,6e-5 -0.0342,2.7e-4 -0.0513,5.5e-4 -0.082,0.002 -0.16266,0.006 -0.24176,0.0132 -0.10901,0.0101 -0.21503,0.0255 -0.31812,0.0462 -0.0431,0.009 -0.0824,0.0238 -0.12445,0.0343 -0.0359,0.009 -0.071,0.019 -0.10614,0.0293 -0.0503,0.0147 -0.10345,0.0247 -0.15222,0.042 -0.15295,0.0544 -0.29797,0.12195 -0.43481,0.20132 l -5.5e-4,2.1e-4 -77.56104,45.07361 c 0.18073,-0.10507 0.37939,-0.18286 0.58795,-0.24371 0.0348,-0.0102 0.0698,-0.0202 0.10529,-0.029 0.21564,-0.0538 0.44202,-0.0894 0.68475,-0.0938 0.19788,-0.004 0.39917,0.0109 0.60266,0.0405 0.0106,0.002 0.0212,0.004 0.0317,0.005 0.20001,0.0308 0.40216,0.0758 0.60547,0.13669 0.002,5.5e-4 0.004,10e-4 0.004,10e-4 0.2088,0.0628 0.41693,0.14075 0.62524,0.23224 0.006,0.003 0.0124,0.005 0.0187,0.008 0.21051,0.0933 0.42126,0.20056 0.63116,0.32178 0.24664,0.14243 0.49213,0.30371 0.73486,0.48169 0.002,0.001 0.004,0.003 0.006,0.004 0.23956,0.17596 0.47626,0.36908 0.70874,0.57666 0.006,0.005 0.0115,0.01 0.0171,0.0149 0.23029,0.20648 0.45605,0.42819 0.67621,0.66272 0.007,0.007 0.0133,0.0138 0.0199,0.0209 0.22095,0.23663 0.43591,0.48654 0.64331,0.74847 0.003,0.004 0.007,0.008 0.0102,0.0125 0.20483,0.2594 0.40179,0.5311 0.59033,0.81229 0.0302,0.045 0.0576,0.0931 0.0873,0.1387 0.15466,0.23688 0.30432,0.4791 0.44519,0.72891 0.0214,0.0378 0.0426,0.0756 0.0637,0.11368 0.159,0.28854 0.30945,0.58383 0.44757,0.88663 0.005,0.0114 0.0104,0.0229 0.0156,0.0343 0.14606,0.32257 0.28015,0.65213 0.39929,0.98779 l 29.24939,82.27002 77.5611,-45.07361 z"
   id="path67"
   inkscape:connector-curvature="0"
   style="fill:#dcdeea" />
		<path
   class="st4"
   d="m 1146.9121,692.93176 c -7e-4,-0.028 0,-0.0566 0,-0.0848 -8e-4,-0.0189 0,-0.0379 0,-0.0569 0,-0.0408 0,-0.0809 -0.01,-0.12207 -0.01,-0.0877 -0.013,-0.17627 -0.021,-0.2655 0,-0.0511 -0.011,-0.10291 -0.017,-0.15454 0,-0.0175 0,-0.0349 -0.01,-0.0524 0,-0.0211 0,-0.0418 -0.01,-0.0629 -0.012,-0.0912 -0.024,-0.18298 -0.039,-0.27545 -0.013,-0.0832 -0.028,-0.16718 -0.043,-0.25134 0,-0.006 0,-0.012 0,-0.018 -5e-4,-0.003 0,-0.007 0,-0.0103 -0.018,-0.0948 -0.037,-0.19006 -0.058,-0.28595 -0.021,-0.0958 -0.043,-0.19208 -0.067,-0.28882 0,-0.0121 -0.01,-0.0243 -0.01,-0.0364 0,-0.0138 -0.01,-0.0277 -0.011,-0.0416 -0.018,-0.0709 -0.036,-0.14172 -0.056,-0.21301 -0.027,-0.096 -0.055,-0.19232 -0.084,-0.28906 -0.01,-0.0324 -0.021,-0.0649 -0.031,-0.0974 -0.01,-0.0203 -0.013,-0.0405 -0.019,-0.0608 -0.013,-0.0419 -0.026,-0.0839 -0.04,-0.12592 -0.031,-0.0924 -0.063,-0.18506 -0.097,-0.27802 -0.025,-0.0699 -0.052,-0.14001 -0.079,-0.21014 0,-0.0103 -0.01,-0.0203 -0.012,-0.0306 0,-0.01 -0.01,-0.0189 -0.011,-0.0285 -0.034,-0.0888 -0.07,-0.17773 -0.1074,-0.26685 -0.036,-0.087 -0.073,-0.17407 -0.112,-0.26123 -0.012,-0.0264 -0.024,-0.0529 -0.036,-0.0794 -0.01,-0.0179 -0.016,-0.0357 -0.024,-0.0536 -0.02,-0.0449 -0.04,-0.0898 -0.061,-0.13464 -0.046,-0.0975 -0.093,-0.19507 -0.1417,-0.2926 -0.036,-0.0728 -0.073,-0.14557 -0.1114,-0.21838 l -45.0131,26.15875 45.0134,-26.16217 -55.2259,-105.6239 -77.5623,45.07977 55.226,105.6239 v -9.8e-4 c 0.1119,0.21478 0.216,0.42975 0.3138,0.64423 0.01,0.0176 0.016,0.0351 0.024,0.0527 0.096,0.21271 0.1849,0.42511 0.2664,0.63641 0,0.0103 0.01,0.0205 0.012,0.0308 0.079,0.20587 0.1506,0.41071 0.2161,0.6142 0.01,0.0201 0.013,0.0403 0.019,0.0604 0.064,0.20123 0.1208,0.40106 0.1714,0.59906 0,0.0142 0.01,0.0284 0.011,0.0425 0.053,0.20935 0.098,0.41681 0.1366,0.6214 10e-4,0.006 0,0.0116 0,0.0174 0.037,0.19952 0.067,0.39624 0.09,0.59003 0,0.0175 0,0.0349 0.01,0.0524 0.021,0.18378 0.035,0.36456 0.044,0.54211 8e-4,0.019 0,0.038 0,0.0569 0.01,0.17871 0.01,0.35394 0,0.52533 -5e-4,0.014 -5e-4,0.0282 -8e-4,0.0421 -0.01,0.17682 -0.02,0.3493 -0.04,0.51715 -9e-4,0.008 0,0.017 0,0.0254 -0.02,0.16571 -0.048,0.32611 -0.081,0.48199 0,0.0134 -0.01,0.0272 -0.01,0.0405 -0.032,0.14465 -0.072,0.28345 -0.1149,0.4187 -0.01,0.0314 -0.02,0.0627 -0.031,0.0936 -0.045,0.12933 -0.094,0.25452 -0.1498,0.37396 0,0.01 -0.01,0.0204 -0.013,0.0301 -0.064,0.13544 -0.1358,0.26385 -0.214,0.38525 -0.1086,0.16852 -0.2346,0.31793 -0.3696,0.45679 -0.033,0.034 -0.067,0.0668 -0.1017,0.0989 -0.1426,0.13226 -0.2936,0.25446 -0.4629,0.35284 l 77.5612,-45.07361 c 0.1693,-0.0984 0.3203,-0.22058 0.4629,-0.35297 0.034,-0.0321 0.069,-0.0646 0.1014,-0.0986 0.1351,-0.13898 0.2614,-0.28833 0.3699,-0.45709 0,-0.002 0,-0.003 0,-0.005 0.075,-0.11774 0.1445,-0.24231 0.207,-0.37317 0,-0.002 0,-0.005 0,-0.007 0,-0.01 0.01,-0.0204 0.013,-0.0302 0.042,-0.091 0.083,-0.18384 0.1187,-0.28058 0.011,-0.0303 0.02,-0.0626 0.031,-0.0934 0.011,-0.0309 0.021,-0.062 0.031,-0.0934 0.012,-0.0364 0.025,-0.0713 0.036,-0.10834 0.027,-0.0926 0.052,-0.18738 0.074,-0.28424 0,-0.009 0,-0.0176 0.01,-0.0263 0,-0.0133 0.01,-0.027 0.01,-0.0404 0.014,-0.0657 0.028,-0.13141 0.04,-0.19891 0.015,-0.0873 0.028,-0.17609 0.04,-0.26624 6e-4,-0.006 10e-4,-0.0115 0,-0.017 0,-0.008 0,-0.0169 0,-0.0253 0.01,-0.0725 0.017,-0.14526 0.023,-0.21948 0.01,-0.0854 0.012,-0.17188 0.016,-0.2594 5e-4,-0.0126 5e-4,-0.0256 9e-4,-0.0383 5e-4,-0.0139 5e-4,-0.0281 10e-4,-0.0421 0,-0.0599 0,-0.11975 0,-0.18066 5e-4,-0.0857 -7e-4,-0.1724 0,-0.25987 z"
   id="path69"
   inkscape:connector-curvature="0"
   style="fill:#dcdeea" />
		<polygon
   class="st1"
   points="865.21692,542.5257 1012.8037,627.737 1090.366,582.65723 942.7793,497.45517 "
   id="polygon71"
   style="fill:#f7f7fb" />
		<path
   class="st5"
   d="M 1068.0297,733.3609 1012.8037,627.737 865.21692,542.5257 835.9715,460.25556 c -0.97113,-2.72849 -2.88568,-5.0777 -4.86499,-6.22458 -0.85089,-0.49023 -1.71106,-0.75842 -2.52496,-0.7399 -2.69147,0.0462 -3.75513,3.23715 -2.36774,7.1402 l 32.29755,90.84399 149.24234,86.16394 51.9519,99.37158 c 1.082,2.07172 2.6081,3.69031 4.1528,4.57825 1.267,0.73065 2.5435,0.97113 3.5792,0.52722 2.303,-0.94342 2.562,-4.7818 0.5921,-8.55536 z"
   id="path73"
   inkscape:connector-curvature="0"
   style="fill:#babac6" />
	</g>
	<g
   id="g93">
		<g
   class="st3"
   id="g91"
   style="enable-background:new">
			<g
   id="g79">
				<polygon
   class="st4"
   points="878.77173,541.90344 888.52026,547.52686 888.289,628.2431 878.51282,633.92206 "
   id="polygon77"
   style="fill:#dcdeea" />
			</g>
			<polygon
   class="st4"
   points="987.86401,697.05591 988.16003,592.5141 997.93622,586.83521 997.64026,691.37701 "
   id="polygon81"
   style="fill:#dcdeea" />
			<g
   id="g85">
				<polygon
   class="st1"
   points="877.68964,517.40277 997.93622,586.83521 988.16003,592.5141 867.91339,523.09094 "
   id="polygon83"
   style="fill:#f7f7fb" />
			</g>
			<g
   id="g89">
				<polygon
   class="st5"
   points="867.61743,627.63269 867.91339,523.09094 988.16003,592.5141 987.86401,697.05591 976.97797,690.77582 977.23694,598.74799 888.52026,547.52686 878.77173,541.90344 878.51282,633.92206 "
   id="polygon87"
   style="fill:#babac6" />
			</g>
		</g>
	</g>
</g>
<g
   id="g117"
   transform="translate(-382.76977,-137.79956)">
	<path
   class="st6"
   d="m 823.66937,729.93005 c -4.50891,0 -8.16382,-3.65491 -8.16382,-8.16382 v -402.7435 c 0,-4.50894 3.65491,-8.16385 8.16382,-8.16385 4.50897,0 8.16388,3.65491 8.16388,8.16385 v 402.7435 c 0,4.50892 -3.65491,8.16382 -8.16388,8.16382 z"
   id="path97"
   inkscape:connector-curvature="0"
   style="fill:#ffffff" />
	<g
   id="g115">
		<polygon
   class="st7"
   points="744.57782,276.91888 902.7605,276.91888 823.66913,319.02261 "
   id="polygon99"
   style="fill:#f26f8d" />
		<polygon
   class="st7"
   points="823.66913,319.02261 1014.6149,341.50363 1014.615,432.83835 "
   id="polygon101"
   style="fill:#f26f8d" />
		<polygon
   class="st1"
   points="823.66913,319.02261 1014.615,432.83835 902.7605,497.42313 "
   id="polygon103"
   style="fill:#f7f7fb" />
		<polygon
   class="st7"
   points="744.57776,497.4231 823.66913,319.02261 902.7605,497.42313 "
   id="polygon105"
   style="fill:#f26f8d" />
		<polygon
   class="st1"
   points="632.72333,432.83835 823.66913,319.02261 744.57776,497.4231 "
   id="polygon107"
   style="fill:#f7f7fb" />
		<polygon
   class="st7"
   points="632.72333,341.50366 823.66913,319.02261 632.72333,432.83835 "
   id="polygon109"
   style="fill:#f26f8d" />
		<polygon
   class="st1"
   points="632.72333,341.50366 744.57782,276.91888 823.66913,319.02261 "
   id="polygon111"
   style="fill:#f7f7fb" />
		<polygon
   class="st1"
   points="823.66913,319.02261 902.7605,276.91888 1014.6149,341.50363 "
   id="polygon113"
   style="fill:#f7f7fb" />
	</g>
</g>
<path
   class="st2"
   d="M 1812.1684,1007.6368 802.06533,1594.6422 c -20.6454,11.9851 -54.2233,11.9851 -75.0042,0 L 15.660834,1183.8969 c -20.7808199,-11.9851 -20.8968199,-31.4514 -0.25131,-43.4366 L 1025.5125,553.45489 c 20.6454,-12.00446 54.2237,-12.00446 75.0044,0 l 217.8798,125.78687 113.1057,65.30017 380.415,219.63881 c 20.7808,12.0046 20.8965,31.4516 0.251,43.45606 z"
   id="path119"
   style="fill:#25c0e1;fill-opacity:1"
   inkscape:connector-curvature="0" />
<g
   id="g127"
   transform="translate(-382.76977,-137.79956)">
	<polygon
   class="st8"
   points="2065.063,769.0354 2065.0957,757.48389 1898.5453,854.27246 1898.5124,865.82391 "
   id="polygon121"
   style="fill:#d0d0d6" />
	<polygon
   class="st9"
   points="1898.5124,865.82391 1898.5453,854.27246 1730.9053,757.48541 1730.8727,769.03693 "
   id="polygon123"
   style="fill:#96989d" />
	<polygon
   class="st1"
   points="1898.5453,854.27246 2065.0957,757.48389 1897.4559,660.6969 1730.9053,757.48541 "
   id="polygon125"
   style="fill:#f7f7fb" />
</g>
<g
   id="g177"
   transform="translate(-382.76977,-137.79956)">
	<path
   class="st10"
   d="m 2234.3245,1036.244 c -0.014,0.2639 -0.03,0.5276 -0.056,0.791 -0.023,0.2293 -0.055,0.4583 -0.086,0.6872 -0.037,0.263 -0.075,0.526 -0.1237,0.7887 -0.042,0.2304 -0.093,0.4604 -0.1443,0.6905 -0.057,0.2558 -0.1182,0.5113 -0.1866,0.7663 -0.062,0.2314 -0.1311,0.4625 -0.2026,0.6933 -0.079,0.2534 -0.1614,0.5065 -0.2512,0.7591 -0.081,0.226 -0.1668,0.4517 -0.2564,0.6769 -0.1052,0.2654 -0.2168,0.5301 -0.3347,0.7941 -0.099,0.2216 -0.2017,0.4426 -0.3093,0.6632 -0.1284,0.2632 -0.2652,0.5257 -0.4063,0.7871 -0.1142,0.2122 -0.2309,0.424 -0.3535,0.6349 -0.1816,0.3115 -0.3757,0.6212 -0.5752,0.93 -0.1211,0.1873 -0.238,0.3753 -0.3655,0.5615 -0.2334,0.3404 -0.4846,0.6777 -0.7397,1.0141 -0.1121,0.1473 -0.2156,0.2961 -0.3316,0.4423 -0.4245,0.5356 -0.8801,1.0648 -1.3615,1.5881 -0.1226,0.1331 -0.2544,0.2637 -0.3804,0.3958 -0.3804,0.3989 -0.7769,0.7943 -1.1907,1.185 -0.1882,0.1778 -0.3769,0.3555 -0.5722,0.5315 -0.2464,0.2221 -0.5003,0.4419 -0.7574,0.6609 -0.237,0.2016 -0.476,0.4026 -0.7224,0.6016 -0.2673,0.2162 -0.5432,0.4299 -0.8218,0.6431 -0.2561,0.1958 -0.5136,0.3911 -0.7793,0.5842 -0.2883,0.2097 -0.5859,0.4165 -0.8855,0.6227 -0.2763,0.1904 -0.5537,0.3806 -0.8393,0.5681 -0.3093,0.2026 -0.6287,0.4018 -0.949,0.6008 -0.4011,0.2494 -0.7978,0.5003 -1.2163,0.7435 l -998.8241,580.4532 c -1.1366,0.6605 -2.3268,1.2711 -3.5382,1.8579 -0.3185,0.1544 -0.6403,0.3047 -0.9636,0.454 -1.094,0.505 -2.2107,0.9856 -3.3555,1.4323 -0.1517,0.059 -0.2975,0.1251 -0.4498,0.1834 -1.2267,0.468 -2.4894,0.8899 -3.7659,1.2914 -0.8852,0.2788 -1.7922,0.5233 -2.6982,0.7702 -0.6866,0.187 -1.3653,0.3866 -2.062,0.5553 -0.9544,0.231 -1.9286,0.4232 -2.9003,0.62 -0.7051,0.1427 -1.4014,0.3043 -2.1146,0.4291 -0.2939,0.051 -0.5915,0.093 -0.8865,0.1414 -1.2018,0.1969 -2.4135,0.3679 -3.6325,0.5141 -0.3538,0.042 -0.7066,0.088 -1.0618,0.1266 -0.7,0.075 -1.4069,0.1179 -2.1108,0.1766 -1.1776,0.098 -2.3571,0.1846 -3.542,0.2358 -0.7569,0.033 -1.5148,0.049 -2.2733,0.063 -0.9585,0.018 -1.9167,0.026 -2.8752,0.013 -0.8004,-0.011 -1.5997,-0.035 -2.3989,-0.066 -0.8887,-0.035 -1.7759,-0.081 -2.6612,-0.1425 -0.8099,-0.056 -1.6172,-0.1245 -2.4229,-0.2025 -0.8757,-0.085 -1.7481,-0.1818 -2.6171,-0.2923 -0.7853,-0.1 -1.5667,-0.2105 -2.3449,-0.3314 -0.9331,-0.1451 -1.8587,-0.3082 -2.7798,-0.4833 -0.729,-0.1387 -1.4553,-0.2827 -2.1755,-0.4402 -1.0979,-0.2407 -2.1788,-0.5127 -3.2526,-0.7974 -0.6987,-0.185 -1.4045,-0.3575 -2.0914,-0.5615 -0.3701,-0.1096 -0.7355,-0.227 -1.1022,-0.3424 -1.0805,-0.3396 -2.1441,-0.703 -3.1903,-1.0898 -0.3027,-0.1122 -0.611,-0.2171 -0.9106,-0.3331 -0.9497,-0.3671 -1.866,-0.7747 -2.7819,-1.1816 -0.4506,-0.2003 -0.9174,-0.3821 -1.3593,-0.592 -1.3229,-0.628 -2.6102,-1.2939 -3.8467,-2.008 L 442.66549,1230.9544 c -10.33994,-5.9698 -15.50406,-13.8058 -15.48181,-21.6297 l -0.10983,38.7228 c -0.0222,7.824 5.14203,15.6597 15.48184,21.6295 l 703.47011,406.1487 c 1.2368,0.714 2.5239,1.3801 3.8467,2.0081 0.442,0.2099 0.9083,0.3913 1.3588,0.5916 0.7826,0.3475 1.5534,0.7089 2.3609,1.0279 0.1377,0.055 0.2823,0.1002 0.4211,0.1539 0.3008,0.1162 0.6095,0.2216 0.9135,0.3339 1.0445,0.3861 2.1054,0.7487 3.1844,1.088 0.369,0.1159 0.7353,0.2334 1.1081,0.344 0.2489,0.074 0.4904,0.159 0.7413,0.2306 0.4392,0.1251 0.9003,0.2116 1.3441,0.3292 1.0758,0.2854 2.1564,0.5575 3.2567,0.7986 0.2935,0.064 0.5745,0.1517 0.8695,0.2131 0.4293,0.089 0.8729,0.1444 1.3054,0.2268 0.9216,0.1754 1.846,0.3385 2.7796,0.4835 0.374,0.058 0.7386,0.1406 1.1142,0.1937 0.407,0.058 0.8221,0.086 1.2309,0.1377 0.8697,0.1105 1.7406,0.2077 2.6172,0.2924 0.4184,0.041 0.8305,0.1054 1.2506,0.1397 0.3889,0.032 0.7822,0.036 1.1725,0.063 0.886,0.061 1.7714,0.1071 2.6609,0.1424 0.4445,0.018 0.8867,0.06 1.3317,0.071 0.3556,0.01 0.7113,-0.01 1.0672,0 0.9595,0.013 1.916,0 2.8752,-0.014 0.4762,-0.01 0.9532,0.01 1.4287,-0.01 0.2826,-0.01 0.5619,-0.044 0.8442,-0.056 1.1861,-0.052 2.3645,-0.1377 3.543,-0.2361 0.475,-0.039 0.9554,-0.048 1.4284,-0.095 0.2281,-0.023 0.4532,-0.057 0.6809,-0.081 0.3568,-0.038 0.7106,-0.085 1.0662,-0.1273 1.2175,-0.1459 2.4265,-0.3165 3.6269,-0.5132 0.2959,-0.048 0.5939,-0.09 0.8886,-0.1418 0.1416,-0.025 0.2856,-0.042 0.4267,-0.068 0.5712,-0.1032 1.1231,-0.2467 1.6893,-0.3615 0.9718,-0.1966 1.9445,-0.3885 2.8987,-0.6195 0.6975,-0.169 1.375,-0.3681 2.0619,-0.5552 0.9065,-0.2469 1.8129,-0.4914 2.6986,-0.7702 0.1901,-0.06 0.3904,-0.1041 0.5799,-0.1655 1.0804,-0.3504 2.1416,-0.7278 3.1859,-1.1263 0.1524,-0.058 0.2976,-0.1236 0.4493,-0.1831 1.1453,-0.4468 2.2614,-0.9273 3.3556,-1.4322 0.324,-0.1496 0.6456,-0.3002 0.9645,-0.4545 1.2119,-0.5869 2.4011,-1.1973 3.5377,-1.8578 l 998.8237,-580.4529 c 0.2158,-0.1253 0.429,-0.2516 0.6402,-0.3785 0.1967,-0.1184 0.3784,-0.2419 0.5713,-0.3617 0.323,-0.2008 0.6447,-0.4016 0.9567,-0.6062 0.284,-0.186 0.5591,-0.3749 0.8338,-0.564 0.3008,-0.2071 0.5994,-0.4146 0.8889,-0.6252 0.2651,-0.1929 0.5227,-0.3882 0.7788,-0.5839 0.2783,-0.2131 0.5545,-0.4267 0.822,-0.643 0.2464,-0.1991 0.4851,-0.3998 0.722,-0.6015 0.2575,-0.2191 0.5112,-0.4389 0.7578,-0.661 0.1008,-0.091 0.2114,-0.1795 0.3105,-0.2711 0.092,-0.085 0.1707,-0.1744 0.2615,-0.2604 0.4138,-0.3908 0.8103,-0.7859 1.1907,-1.1849 0.1262,-0.1323 0.258,-0.2628 0.3803,-0.3959 0.4815,-0.5233 0.937,-1.0524 1.3618,-1.588 0.018,-0.023 0.04,-0.045 0.058,-0.068 0.097,-0.1234 0.1785,-0.2498 0.2727,-0.374 0.2554,-0.3363 0.5068,-0.6736 0.7402,-1.0141 0.1275,-0.1866 0.2449,-0.3747 0.366,-0.5624 0.1987,-0.308 0.3926,-0.6166 0.5735,-0.9274 0.05,-0.086 0.1096,-0.1695 0.158,-0.2554 0.072,-0.1272 0.1293,-0.2564 0.1982,-0.3841 0.1404,-0.2601 0.2759,-0.5205 0.4038,-0.7824 0.1082,-0.2212 0.2112,-0.4428 0.3103,-0.6651 0.1177,-0.2644 0.2295,-0.5294 0.3352,-0.7953 0.047,-0.1184 0.1048,-0.2357 0.1494,-0.3545 0.04,-0.1063 0.068,-0.2139 0.1057,-0.3206 0.09,-0.2527 0.1731,-0.5058 0.2515,-0.7596 0.072,-0.231 0.1406,-0.462 0.2034,-0.6937 0.068,-0.2542 0.1284,-0.5086 0.1855,-0.7633 0.031,-0.1385 0.073,-0.2763 0.1008,-0.4151 0.019,-0.093 0.027,-0.1866 0.044,-0.2799 0.048,-0.2621 0.087,-0.5245 0.1236,-0.7871 0.032,-0.2282 0.064,-0.4564 0.087,-0.6849 0.026,-0.2658 0.042,-0.5314 0.057,-0.7973 0.01,-0.1532 0.028,-0.3061 0.033,-0.4595 0,-0.1534 0.01,-0.307 0.01,-0.4605 l 0.1098,-38.7228 c -8e-4,0.3083 -0.023,0.6163 -0.041,0.9244 z"
   id="path129"
   inkscape:connector-curvature="0"
   style="fill:#c5c5d6" />
	<path
   class="st1"
   d="m 2219.1255,1056.6569 -998.8273,580.4525 c -20.4149,11.8513 -53.618,11.8513 -74.167,0 L 442.67225,1230.9493 c -20.54886,-11.8513 -20.66354,-31.1003 -0.2485,-42.9517 L 1441.2511,607.54486 c 20.415,-11.87048 53.6183,-11.87048 74.1672,0 l 215.4475,124.38269 111.8431,64.57123 376.1683,217.18712 c 20.5488,11.8705 20.6636,31.1004 0.2483,42.971 z"
   id="path131"
   inkscape:connector-curvature="0"
   style="fill:#f7f7fb" />
	<path
   class="st4"
   d="m 2139.1284,1043.6202 -24.2573,14.0879 -920.4165,534.901 c -0.8986,0.497 -4.8934,1.9307 -11.1824,1.9307 -5.945,0 -10.2459,-1.3572 -11.4117,-2.007 l -625.18232,-360.9525 -24.23792,-13.9925 c -6.36554,-3.67 -6.38464,-12.8645 -0.0192,-16.5728 L 1467.0949,652.04511 c 0.8984,-0.49701 4.8936,-1.93066 11.1823,-1.93066 5.9448,0 10.2458,1.33813 11.4118,1.98798 l 649.4204,374.94497 c 6.3652,3.6892 6.3842,12.8836 0.019,16.5728 z"
   id="path133"
   inkscape:connector-curvature="0"
   style="fill:#dcdeea" />
	<path
   class="st11"
   d="m 2114.8711,1057.7081 -920.4165,534.901 c -0.8986,0.497 -4.8934,1.9307 -11.1824,1.9307 -5.945,0 -10.2459,-1.3572 -11.4117,-2.007 L 546.67817,1231.5803 1467.0949,696.67907 c 0.8984,-0.49701 4.8936,-1.93066 11.1823,-1.93066 5.9449,0 10.2458,1.35724 11.4118,2.0072 z"
   id="path135"
   inkscape:connector-curvature="0"
   style="fill:#a8d3ec" />
	<path
   class="st12"
   d="m 1478.2772,885.90057 c -6.2887,0 -10.2839,1.43365 -11.1823,1.93066 l -755.41802,439.01197 460.18362,265.6896 c 1.1657,0.6498 5.4666,2.007 11.4117,2.007 6.289,0 10.2838,-1.4337 11.1824,-1.9307 L 1949.8723,1153.5974 1489.689,887.90777 c -1.166,-0.64996 -5.4669,-2.0072 -11.4118,-2.0072 z"
   id="path137"
   inkscape:connector-curvature="0"
   style="fill:#d2e8f3" />
	<g
   id="g173">
		<g
   id="g157">
			<polygon
   class="st13"
   points="1296.5588,852.14453 1339.4126,827.40503 1339.4132,845.45013 1296.5596,870.18958 "
   id="polygon139"
   style="fill:#86c6ec" />
			<polygon
   class="st13"
   points="1260.7632,954.00366 1303.6168,929.26422 1303.6175,947.30927 1260.7638,972.04877 "
   id="polygon141"
   style="fill:#86c6ec" />
			<polygon
   class="st14"
   points="1182.7212,919.59631 1225.5748,894.85681 1225.5756,912.90192 1182.7218,937.64136 "
   id="polygon143"
   style="fill:#93caea" />
			<polygon
   class="st14"
   points="744.14319,1255.39 786.99695,1230.6505 786.99762,1248.6957 744.14386,1273.4351 "
   id="polygon145"
   style="fill:#93caea" />
			<polygon
   class="st14"
   points="1369.1692,890.56342 1412.0228,865.82391 1412.0236,883.86902 1369.1698,908.60846 "
   id="polygon147"
   style="fill:#93caea" />
			<polygon
   class="st13"
   points="1066.1825,1001.9492 1109.0363,977.20972 1109.0369,995.25476 1066.1832,1019.9942 "
   id="polygon149"
   style="fill:#86c6ec" />
			<polygon
   class="st13"
   points="779.45428,1153.8036 822.30798,1129.0641 822.30865,1147.1092 779.45496,1171.8486 "
   id="polygon151"
   style="fill:#86c6ec" />
			<polygon
   class="st15"
   points="1157.5461,1023.3414 1200.3999,998.60199 1200.4006,1016.647 1157.5469,1041.3865 "
   id="polygon153"
   style="fill:#b4d7eb" />
			<polygon
   class="st15"
   points="625.43677,1215.188 668.29053,1190.4486 668.2912,1208.4936 625.43744,1233.2332 "
   id="polygon155"
   style="fill:#b4d7eb" />
		</g>
		<g
   id="g171">
			<polygon
   class="st14"
   points="1717.8389,976.86096 1760.6926,1001.6004 1760.692,1019.6454 1717.8383,994.90601 "
   id="polygon159"
   style="fill:#93caea" />
			<polygon
   class="st13"
   points="1536.946,769.85858 1579.7998,794.59802 1579.7991,812.64307 1536.9453,787.90363 "
   id="polygon161"
   style="fill:#86c6ec" />
			<polygon
   class="st13"
   points="1835.3189,1039.9222 1878.1726,1064.6617 1878.1719,1082.7068 1835.3181,1057.9674 "
   id="polygon163"
   style="fill:#86c6ec" />
			<polygon
   class="st13"
   points="1887.8856,955.46869 1930.7394,980.20813 1930.7388,998.25317 1887.885,973.51373 "
   id="polygon165"
   style="fill:#86c6ec" />
			<polygon
   class="st15"
   points="1803.8574,969.1344 1846.7111,993.87384 1846.7105,1011.9189 1803.8567,987.17944 "
   id="polygon167"
   style="fill:#b4d7eb" />
			<polygon
   class="st15"
   points="1940.3502,1059.0883 1983.204,1083.8278 1983.2033,1101.8728 1940.3496,1077.1333 "
   id="polygon169"
   style="fill:#b4d7eb" />
		</g>
	</g>
	<polygon
   class="st14"
   points="1846.7111,902.8844 1846.7111,1094.0366 1742.1771,1033.6302 1742.1771,842.80353 "
   id="polygon175"
   style="fill:#93caea" />
</g>
<polygon
   class="st8"
   points="1783.7273,866.52039 1806.3325,837.87048 1846.7111,858.23022 1846.7111,902.8844 "
   id="polygon179"
   style="fill:#d0d0d6"
   transform="translate(-382.76977,-137.79956)" />
<polygon
   class="st16"
   points="1745.2815,799.66956 1808.6301,769.14148 1904.7378,824.62927 1846.7111,858.23022 "
   id="polygon181"
   style="fill:#e5e5ea"
   transform="translate(-382.76977,-137.79956)" />
<g
   id="g191"
   transform="translate(-382.76977,-137.79956)">
	<g
   id="g185">
		<polygon
   class="st17"
   points="2018.8157,715.08783 2018.6929,758.40588 1904.7379,824.62927 1904.8607,781.31122 "
   id="polygon183"
   style="fill:#bdbdc2" />
	</g>
	<polygon
   class="st8"
   points="1904.7378,824.62927 1904.8606,781.31116 1808.7529,725.82336 1808.6301,769.14148 "
   id="polygon187"
   style="fill:#d0d0d6" />
	<polygon
   class="st18"
   points="1904.8606,781.31116 2018.8157,715.08777 1922.7078,659.59998 1808.7529,725.82336 "
   id="polygon189"
   style="fill:#7aaf37" />
</g>
<g
   id="g199"
   transform="translate(-382.76977,-137.79956)">
	<polygon
   class="st19"
   points="1592.8848,969.1344 1592.8452,983.13501 2031.0808,728.46014 2031.1206,714.45966 "
   id="polygon193"
   style="fill:#cc4161" />
	<polygon
   class="st20"
   points="1481.0455,904.56396 1481.006,918.56445 1592.8452,983.13501 1592.8848,969.1344 "
   id="polygon195"
   style="fill:#e15a78" />
	<polygon
   class="st7"
   points="1919.2814,649.88922 1481.0455,904.56396 1592.8848,969.1344 2031.1206,714.45966 "
   id="polygon197"
   style="fill:#f26f8d" />
</g>
<g
   id="g219"
   transform="translate(-382.76977,-137.79956)">
	<path
   class="st21"
   d="m 801.63867,1247.9033 v 0 c -3.71289,0 -6.72168,-3.0097 -6.72168,-6.7217 l 0.002,-66.0742 c 0,-3.7119 3.00977,-6.7217 6.72168,-6.7217 v 0 c 3.71289,0 6.72168,3.0098 6.72168,6.7217 l -0.002,66.0742 c 0,3.712 -3.00976,6.7217 -6.72168,6.7217 z"
   id="path201"
   inkscape:connector-curvature="0"
   style="fill:#85c0e2" />
	<path
   class="st22"
   d="m 816.77521,1161.9884 c -8.35608,-4.8246 -21.9032,-4.8246 -30.25928,0 -8.35547,4.8247 -8.35547,12.6469 0,17.4714 8.35608,4.8246 21.9032,4.8246 30.25928,0 8.35547,-4.8245 8.35547,-12.6467 0,-17.4714 z"
   id="path203"
   inkscape:connector-curvature="0"
   style="fill:#9acdea" />
	<path
   class="st23"
   d="m 804.33203,1107.418 c -2.31641,0 -4.56934,-1.1983 -5.81738,-3.3457 -1.86523,-3.209 -0.77539,-7.3233 2.43457,-9.1885 l 60.42969,-35.1201 c 3.20898,-1.8643 7.32324,-0.7754 9.18848,2.4345 1.86523,3.209 0.77539,7.3233 -2.43457,9.1885 l -60.42969,35.1201 c -1.0625,0.6172 -2.22461,0.9112 -3.3711,0.9112 z"
   id="path205"
   inkscape:connector-curvature="0"
   style="fill:#d7e3f4" />
	<path
   class="st21"
   d="m 804.33203,1207.3535 c -2.31641,0 -4.57031,-1.1982 -5.81738,-3.3457 -1.86523,-3.2099 -0.77539,-7.3232 2.43457,-9.1885 l 60.41406,-35.1054 c 3.20898,-1.8643 7.32422,-0.7764 9.18848,2.4345 1.86523,3.21 0.77539,7.3233 -2.43457,9.1885 l -60.41406,35.1055 c -1.0625,0.6172 -2.22461,0.9111 -3.3711,0.9111 z"
   id="path207"
   inkscape:connector-curvature="0"
   style="fill:#85c0e2" />
	<path
   class="st23"
   d="m 801.6416,1174.6768 v 0 c -3.71289,0 -6.72168,-3.0098 -6.72168,-6.7217 l 0.004,-112.7988 c 9.8e-4,-17.6446 -12.9082,-40.003 -28.18848,-48.8243 -6.16895,-3.5615 -11.85254,-4.3672 -15.58887,-2.2099 -3.7373,2.1582 -5.88086,7.4814 -5.88086,14.6054 l -0.002,39.1973 c 0,3.7119 -3.00977,6.7217 -6.72168,6.7217 v 0 c -3.71289,0 -6.72168,-3.0098 -6.72168,-6.7217 l 0.002,-39.1973 c 0,-12.2334 4.47559,-21.55465 12.60254,-26.24703 8.12402,-4.69238 18.43652,-3.90723 29.03125,2.20898 19.57715,11.30175 34.91211,37.86225 34.91113,60.46685 l -0.004,112.7988 c 10e-6,3.7119 -3.00975,6.7217 -6.72167,6.7217 z"
   id="path209"
   inkscape:connector-curvature="0"
   style="fill:#d7e3f4" />
	<path
   class="st21"
   d="m 867.42285,1212.3467 v 0 c -3.71289,0 -6.72168,-3.0098 -6.72168,-6.7217 l 0.003,-66.0742 c 0,-3.7119 3.00977,-6.7217 6.72168,-6.7217 v 0 c 3.71289,0 6.72168,3.0098 6.72168,6.7217 l -0.003,66.0742 c 0,3.7119 -3.00976,6.7217 -6.72168,6.7217 z"
   id="path211"
   inkscape:connector-curvature="0"
   style="fill:#85c0e2" />
	<path
   class="st22"
   d="m 882.55945,1126.4316 c -8.35608,-4.8245 -21.90314,-4.8245 -30.25922,0 -8.35553,4.8248 -8.35553,12.647 0,17.4716 8.35608,4.8246 21.90314,4.8246 30.25922,0 8.35547,-4.8246 8.35547,-12.6468 0,-17.4716 z"
   id="path213"
   inkscape:connector-curvature="0"
   style="fill:#9acdea" />
	<path
   class="st23"
   d="m 867.42578,1139.1201 v 0 c -3.71289,0 -6.72168,-3.0097 -6.72168,-6.7217 l 0.004,-112.7988 c 9.8e-4,-17.6445 -12.9082,-40.00292 -28.18848,-48.82421 -6.16992,-3.5625 -11.85156,-4.36816 -15.58887,-2.20996 -3.73731,2.1582 -5.88086,7.48145 -5.88086,14.60547 l -0.002,39.1973 c 0,3.7119 -3.00977,6.7217 -6.72168,6.7217 v 0 c -3.71289,0 -6.72168,-3.0098 -6.72168,-6.7217 l 0.002,-39.1973 c 9.8e-4,-12.23438 4.47656,-21.55566 12.60352,-26.24707 8.125,-4.69238 18.43652,-3.90723 29.03027,2.20898 19.57715,11.30176 34.91211,37.8623 34.91113,60.46679 l -0.004,112.7988 c 10e-6,3.712 -3.00975,6.7217 -6.72167,6.7217 z"
   id="path215"
   inkscape:connector-curvature="0"
   style="fill:#d7e3f4" />
	<path
   class="st23"
   d="m 804.33203,1157.3936 c -2.31543,0 -4.56934,-1.1983 -5.81641,-3.3448 -1.86621,-3.209 -0.77734,-7.3232 2.43262,-9.1885 l 60.41406,-35.1211 c 3.20703,-1.8662 7.32324,-0.7773 9.18848,2.4327 1.86621,3.209 0.77734,7.3232 -2.43262,9.1885 l -60.41406,35.121 c -1.0625,0.6182 -2.22461,0.9122 -3.37207,0.9122 z"
   id="path217"
   inkscape:connector-curvature="0"
   style="fill:#d7e3f4" />
</g>
<polygon
   class="st11"
   points="1533.3933,1277.7693 1846.7111,1094.1218 1741.9365,1033.6302 1428.6186,1217.2776 "
   id="polygon221"
   style="fill:#a8d3ec"
   transform="translate(-382.76977,-137.79956)" />
<g
   id="g237"
   transform="translate(-382.76977,-137.79956)">
	<g
   class="st3"
   id="g227"
   style="enable-background:new">
		<path
   class="st10"
   d="m 890.79926,751.87311 c -0.0386,14.23883 -37.84204,14.20343 -37.80157,-0.10785 v 7.3e-4 -7.3e-4 c 0.5412,3.21832 -2.24921,8.56573 5.56421,13.07672 10.19135,5.88531 32.22229,2.8407 32.22229,-7.68726 v 0 z"
   id="path223"
   inkscape:connector-curvature="0"
   style="fill:#c5c5d6" />
		<path
   class="st1"
   d="m 885.22009,744.07703 c -7.4082,-4.27698 -19.37048,-4.27692 -26.73035,1.8e-4 -7.35339,4.27338 -7.32098,11.20618 0.0872,15.48322 7.40149,4.27325 19.37683,4.27319 26.73022,-1.2e-4 7.35987,-4.27717 7.3144,-11.20991 -0.0871,-15.48328 z"
   id="path225"
   inkscape:connector-curvature="0"
   style="fill:#f7f7fb" />
	</g>
	<path
   class="st4"
   d="m 880.29059,634.58325 c -0.0886,1.07245 0.71722,-1.57715 -2.42676,-3.39227 -3.23163,-1.86572 -8.44647,-1.86194 -11.6507,6e-5 -1.59735,0.92841 -2.39502,2.14471 -2.39349,3.36224 0,-0.004 -9.8e-4,-0.007 -9.8e-4,-0.011 l -0.33575,118.43903 c -0.0175,6.15851 16.29065,6.44409 16.4707,0.11334 0.024,-0.93072 0.0214,-7.31634 0.33698,-118.51135 z m -1.55115,2.76795 c -10e-4,9.2e-4 -0.002,0.002 -0.003,0.003 -0.12085,0.097 -0.10339,0.0832 0.003,-0.003 z m 0.3725,-0.32672 c 0.005,-0.005 0.009,-0.009 0.0139,-0.0137 -0.0189,0.0186 -0.0125,0.0123 -0.0139,0.0137 z m 1.08026,-1.74787 c 0.0172,-0.067 0.0371,-0.13379 0.0492,-0.20105 -0.012,0.0503 -0.0328,0.13696 -0.0492,0.20105 z m -0.15485,0.45307 c 0.028,-0.0652 0.0584,-0.13013 0.0816,-0.19586 -0.0201,0.0491 -0.0546,0.13305 -0.0816,0.19586 z m -0.23309,0.4472 c 0.0377,-0.0613 0.0773,-0.12231 0.11053,-0.18439 -0.0274,0.0463 -0.0742,0.12506 -0.11053,0.18439 z m -0.31055,0.43481 c 0.0397,-0.0487 0.0801,-0.0972 0.1167,-0.14655 -0.0289,0.0368 -0.0782,0.0993 -0.1167,0.14655 z m -1.28119,1.12 c -0.0808,0.0547 -0.23315,0.15521 -0.3172,0.20404 0.11292,-0.0656 0.21228,-0.13568 0.3172,-0.20404 z m -14.37335,-2.93402 c 0.006,0.0713 0.007,0.14276 0.0186,0.21393 -0.0118,-0.0712 -0.0122,-0.14258 -0.0186,-0.21393 z m 0.0805,0.46362 c 0.0178,0.0685 0.0294,0.13757 0.0523,0.20575 -0.023,-0.0682 -0.0345,-0.13721 -0.0523,-0.20575 z m 0.15436,0.44806 c 0.0296,0.0689 0.0533,0.13861 0.0882,0.20685 -0.035,-0.0683 -0.0586,-0.13788 -0.0882,-0.20685 z m 0.234,0.44824 c 0.0405,0.0656 0.0744,0.13214 0.12,0.1969 -0.0456,-0.0647 -0.0795,-0.13128 -0.12,-0.1969 z m 0.31806,0.44373 c 0.0486,0.0593 0.0907,0.12 0.14374,0.17828 -0.053,-0.0583 -0.0952,-0.11896 -0.14374,-0.17828 z m 1.05511,0.97412 c -0.0491,-0.0348 -0.0897,-0.072 -0.13678,-0.10724 0.0471,0.0353 0.0877,0.0725 0.13678,0.10724 z m -0.49377,-0.38782 c -0.0563,-0.0493 -0.10229,-0.10114 -0.15521,-0.15131 0.0529,0.0502 0.0989,0.10206 0.15521,0.15131 z"
   id="path229"
   inkscape:connector-curvature="0"
   style="fill:#dcdeea" />
	<g
   class="st3"
   id="g235"
   style="enable-background:new">
		<path
   class="st10"
   d="m 790.15662,611.37622 c -2.35736,-4.61511 -3.5296,-9.38855 -3.51617,-14.15918 l -0.0319,11.22339 c -0.1,35.3327 61.28607,58.59985 116.22394,46.31873 63.87323,-14.27863 53.53204,-52.59961 54.33154,-57.05554 -0.16779,56.30987 -139.79884,66.9428 -167.00745,13.6726 z"
   id="path231"
   inkscape:connector-curvature="0"
   style="fill:#c5c5d6" />
		<path
   class="st1"
   d="m 931.99835,562.54193 c -33.4046,-19.28613 -87.39783,-19.28595 -120.58527,5.5e-4 -33.18762,19.28644 -33.005,50.55756 0.3996,69.84369 33.4046,19.28613 87.38483,19.28595 120.57233,-5.5e-4 33.18756,-19.28644 33.01788,-50.55756 -0.38666,-69.84369 z"
   id="path233"
   inkscape:connector-curvature="0"
   style="fill:#f7f7fb" />
	</g>
</g>
<g
   id="g285"
   transform="translate(-382.76977,-137.79956)">
	<g
   id="g255">
		<g
   class="st3"
   id="g253"
   style="enable-background:new">
			<g
   id="g241">
				<polygon
   class="st4"
   points="712.6073,636.65717 722.35583,642.28058 722.12457,722.99683 712.34839,728.67578 "
   id="polygon239"
   style="fill:#dcdeea" />
			</g>
			<polygon
   class="st4"
   points="821.69958,791.80963 821.99561,687.26782 831.77179,681.58893 831.47583,786.13074 "
   id="polygon243"
   style="fill:#dcdeea" />
			<g
   id="g247">
				<polygon
   class="st1"
   points="711.52521,612.15649 831.77179,681.58893 821.99561,687.26782 701.74896,617.84467 "
   id="polygon245"
   style="fill:#f7f7fb" />
			</g>
			<g
   id="g251">
				<polygon
   class="st5"
   points="701.453,722.38641 701.74896,617.84467 821.99561,687.26782 821.69958,791.80963 810.81354,785.52954 811.07251,693.50171 722.35583,642.28058 712.6073,636.65717 712.34839,728.67578 "
   id="polygon249"
   style="fill:#babac6" />
			</g>
		</g>
	</g>
	<g
   class="st3"
   id="g265"
   style="enable-background:new">
		<path
   class="st4"
   d="m 670.25702,559.41956 c -0.009,-0.0255 -0.0181,-0.0509 -0.0273,-0.0764 -0.0335,-0.0922 -0.0679,-0.18408 -0.10352,-0.27539 -0.0347,-0.0892 -0.0704,-0.17786 -0.10699,-0.26605 -0.0367,-0.0882 -0.0742,-0.1759 -0.11273,-0.26312 -0.0159,-0.0358 -0.0325,-0.0712 -0.0487,-0.10687 -0.005,-0.0115 -0.0104,-0.0229 -0.0156,-0.0343 -0.0187,-0.041 -0.0369,-0.0823 -0.0559,-0.12299 -0.0447,-0.0952 -0.0905,-0.18982 -0.13727,-0.28369 -0.0538,-0.10809 -0.10907,-0.21509 -0.16559,-0.32123 -0.0286,-0.0537 -0.0594,-0.10541 -0.0887,-0.15851 -0.0211,-0.0383 -0.0425,-0.0762 -0.064,-0.11432 -0.0362,-0.0643 -0.0709,-0.12976 -0.10815,-0.19318 -0.10693,-0.18256 -0.22125,-0.35809 -0.33563,-0.53345 -0.0303,-0.0464 -0.058,-0.0951 -0.0887,-0.14099 -0.007,-0.01 -0.0125,-0.0204 -0.0191,-0.0303 -0.10767,-0.15961 -0.2182,-0.31592 -0.33136,-0.46869 -0.0749,-0.1012 -0.151,-0.20074 -0.22809,-0.29871 -0.004,-0.005 -0.008,-0.009 -0.0115,-0.0142 -0.003,-0.004 -0.007,-0.008 -0.0102,-0.0127 -0.0627,-0.0792 -0.12585,-0.15753 -0.18988,-0.2345 -0.0696,-0.0837 -0.13995,-0.16595 -0.211,-0.24689 -0.0713,-0.0812 -0.14331,-0.16101 -0.216,-0.23926 -0.009,-0.009 -0.0176,-0.0183 -0.0264,-0.0277 -0.007,-0.007 -0.0132,-0.0139 -0.0199,-0.0209 -0.0591,-0.0631 -0.11847,-0.12585 -0.17841,-0.18695 -0.0779,-0.0794 -0.15656,-0.1571 -0.23572,-0.23309 -0.0809,-0.0776 -0.16235,-0.15338 -0.24438,-0.22729 -0.006,-0.005 -0.0118,-0.0101 -0.0177,-0.0154 -0.006,-0.005 -0.0113,-0.01 -0.0171,-0.0149 -0.0706,-0.063 -0.14142,-0.12531 -0.21271,-0.18555 -0.0817,-0.0689 -0.16376,-0.13593 -0.24628,-0.20105 -0.0804,-0.0634 -0.16125,-0.12506 -0.24237,-0.18481 -0.003,-0.002 -0.005,-0.004 -0.008,-0.006 -0.002,-10e-4 -0.003,-0.002 -0.005,-0.003 -0.0747,-0.0548 -0.14966,-0.10834 -0.22491,-0.15991 -0.0773,-0.0529 -0.15479,-0.10413 -0.23248,-0.1535 -0.0753,-0.0479 -0.15063,-0.0941 -0.2262,-0.13849 -0.0175,-0.0102 -0.0349,-0.0204 -0.0522,-0.0305 -0.057,-0.0329 -0.11407,-0.0648 -0.1712,-0.0957 -0.0733,-0.0397 -0.14673,-0.0778 -0.22021,-0.11401 -0.0728,-0.0361 -0.14557,-0.0704 -0.21838,-0.10297 -0.007,-0.003 -0.0143,-0.006 -0.0215,-0.009 -0.006,-0.003 -0.0123,-0.005 -0.0184,-0.008 -0.0593,-0.026 -0.11865,-0.0518 -0.17792,-0.0756 -0.0729,-0.0292 -0.14575,-0.0566 -0.21857,-0.0822 -0.0735,-0.0259 -0.14697,-0.05 -0.22034,-0.0721 -0.002,-6.1e-4 -0.004,-0.001 -0.004,-0.001 -0.005,-10e-4 -0.007,-0.002 -0.007,-0.002 -0.0727,-0.0218 -0.14294,-0.0414 -0.21295,-0.0589 -0.0766,-0.0191 -0.15302,-0.0362 -0.22919,-0.051 -0.0551,-0.0107 -0.10999,-0.0188 -0.16479,-0.0273 -0.0106,-0.002 -0.0212,-0.004 -0.0318,-0.005 -0.0133,-0.002 -0.0268,-0.005 -0.0402,-0.007 -0.0829,-0.0112 -0.16553,-0.0198 -0.24768,-0.0255 -0.0884,-0.006 -0.17627,-0.009 -0.26349,-0.009 -0.0171,6e-5 -0.0342,3.1e-4 -0.0513,5.5e-4 -0.0821,0.002 -0.16272,0.006 -0.24182,0.0132 -0.10901,0.01 -0.21503,0.0255 -0.31812,0.0462 -0.0431,0.009 -0.0824,0.0238 -0.12445,0.0343 -0.0359,0.009 -0.071,0.019 -0.10614,0.0293 -0.0503,0.0148 -0.10345,0.0247 -0.15222,0.0421 -0.15295,0.0544 -0.29797,0.12189 -0.43481,0.20129 l -5.5e-4,2.4e-4 -77.56104,45.07355 c 0.18073,-0.10504 0.37939,-0.1828 0.58801,-0.24365 0.0347,-0.0102 0.0697,-0.0202 0.10529,-0.0291 0.21564,-0.0538 0.44196,-0.0894 0.68475,-0.0938 0.19781,-0.004 0.39917,0.0109 0.6026,0.0405 0.0106,0.002 0.0212,0.004 0.0318,0.005 0.20001,0.0308 0.4021,0.0757 0.60541,0.13666 l 0.006,0.002 c 0.20685,0.0622 0.41498,0.1402 0.62329,0.23169 0.006,0.003 0.0125,0.005 0.0187,0.008 0.21051,0.0933 0.42126,0.20056 0.63123,0.32172 0.24664,0.14246 0.49207,0.30371 0.7348,0.48175 0.002,10e-4 0.004,0.003 0.006,0.004 0.23956,0.17596 0.47626,0.36908 0.70874,0.57666 0.006,0.005 0.0115,0.01 0.0171,0.0149 0.23029,0.20648 0.45605,0.42816 0.67621,0.66272 0.007,0.007 0.0133,0.0139 0.0199,0.0209 0.22095,0.23669 0.43591,0.48657 0.64337,0.74854 0.003,0.004 0.007,0.008 0.0101,0.0125 0.20483,0.2594 0.40179,0.53113 0.59033,0.81226 0.0302,0.0451 0.0576,0.0931 0.0873,0.13873 0.1546,0.23688 0.30426,0.47913 0.44513,0.72888 0.0214,0.0378 0.0427,0.0757 0.0637,0.11371 0.159,0.28851 0.30945,0.5838 0.44757,0.88666 0.005,0.0113 0.0104,0.0229 0.0156,0.0343 0.14606,0.32257 0.28015,0.6521 0.39929,0.98779 l 29.24939,82.27002 77.5611,-45.07361 z"
   id="path257"
   inkscape:connector-curvature="0"
   style="fill:#dcdeea" />
		<path
   class="st4"
   d="m 903.63953,837.16772 c -7.9e-4,-0.028 -0.003,-0.0566 -0.004,-0.0848 -7.3e-4,-0.0189 -0.002,-0.0379 -0.003,-0.0569 -0.002,-0.0408 -0.003,-0.0809 -0.006,-0.12207 -0.006,-0.0877 -0.0127,-0.17627 -0.0212,-0.2655 -0.005,-0.0511 -0.0113,-0.10291 -0.0172,-0.15454 -0.002,-0.0175 -0.004,-0.0349 -0.006,-0.0524 -0.002,-0.0211 -0.004,-0.0418 -0.007,-0.0629 -0.0115,-0.0912 -0.0247,-0.18298 -0.0391,-0.27545 -0.0131,-0.0832 -0.0279,-0.16718 -0.0435,-0.25134 -10e-4,-0.006 -0.002,-0.012 -0.003,-0.018 -5.5e-4,-0.003 -10e-4,-0.007 -0.002,-0.0103 -0.0178,-0.0948 -0.0372,-0.19006 -0.058,-0.28595 -0.021,-0.0958 -0.0433,-0.19208 -0.0673,-0.28882 -0.003,-0.0121 -0.007,-0.0244 -0.01,-0.0364 -0.003,-0.0139 -0.007,-0.0277 -0.0109,-0.0416 -0.0181,-0.0709 -0.0361,-0.14172 -0.056,-0.21301 -0.0267,-0.096 -0.0547,-0.19232 -0.0843,-0.28906 -0.01,-0.0324 -0.0209,-0.0649 -0.0313,-0.0974 -0.006,-0.0203 -0.0129,-0.0405 -0.0194,-0.0608 -0.0136,-0.0419 -0.0263,-0.0839 -0.0404,-0.12592 -0.0309,-0.0924 -0.0632,-0.18506 -0.0969,-0.27802 -0.0253,-0.0699 -0.0521,-0.14001 -0.0788,-0.21014 -0.004,-0.0103 -0.008,-0.0203 -0.0115,-0.0306 -0.004,-0.01 -0.007,-0.0189 -0.0107,-0.0285 -0.0345,-0.0888 -0.0703,-0.17773 -0.10736,-0.26685 -0.0361,-0.087 -0.0734,-0.17407 -0.112,-0.26123 -0.0117,-0.0264 -0.0242,-0.0529 -0.0361,-0.0794 -0.008,-0.0179 -0.0162,-0.0357 -0.0244,-0.0536 -0.0206,-0.0449 -0.0402,-0.0898 -0.0613,-0.13464 -0.0457,-0.0975 -0.0929,-0.19507 -0.14166,-0.2926 -0.0364,-0.0728 -0.0734,-0.14557 -0.11145,-0.21838 l -45.01312,26.15875 45.01343,-26.16217 -55.22589,-105.6239 -77.56232,45.07977 55.22601,105.6239 0.002,-9.8e-4 c 0.11188,0.21472 0.21594,0.42975 0.31372,0.64423 0.008,0.0176 0.016,0.0351 0.0239,0.0527 0.0958,0.21271 0.18488,0.42511 0.26648,0.63641 0.004,0.0103 0.008,0.0205 0.0115,0.0308 0.0788,0.20587 0.15057,0.41071 0.21606,0.6142 0.007,0.0201 0.0131,0.0403 0.0194,0.0604 0.0637,0.20123 0.12085,0.40106 0.17139,0.59906 0.004,0.0142 0.008,0.0284 0.0113,0.0425 0.0526,0.20935 0.0983,0.41681 0.13666,0.6214 9.8e-4,0.006 0.002,0.0115 0.003,0.0174 0.0369,0.19952 0.0666,0.39624 0.0896,0.59003 0.002,0.0175 0.004,0.0349 0.006,0.0524 0.0209,0.18378 0.0354,0.36456 0.044,0.54211 9.2e-4,0.019 0.002,0.038 0.003,0.0569 0.007,0.17871 0.008,0.35394 0.003,0.52533 -4.9e-4,0.014 -4.9e-4,0.0282 -9.2e-4,0.0421 -0.007,0.17682 -0.0199,0.3493 -0.0397,0.51715 -9.2e-4,0.008 -0.002,0.017 -0.003,0.0254 -0.0203,0.16571 -0.048,0.32611 -0.0814,0.48199 -0.003,0.0134 -0.005,0.0272 -0.008,0.0405 -0.032,0.14465 -0.0716,0.28345 -0.11493,0.4187 -0.0101,0.0314 -0.0203,0.0627 -0.0311,0.0936 -0.0447,0.12933 -0.0942,0.25452 -0.14972,0.37396 -0.005,0.01 -0.008,0.0204 -0.0128,0.0301 -0.0644,0.1355 -0.13586,0.26385 -0.21399,0.38531 -0.10858,0.16852 -0.23462,0.31793 -0.36963,0.45679 -0.033,0.034 -0.0671,0.0668 -0.10162,0.0989 -0.14258,0.13226 -0.29364,0.25446 -0.46289,0.35284 l 77.5611,-45.07361 c 0.16937,-0.0984 0.32031,-0.22058 0.46289,-0.35297 0.0345,-0.0321 0.0685,-0.0646 0.1015,-0.0986 0.13507,-0.13898 0.26129,-0.28833 0.36975,-0.45709 10e-4,-0.002 0.003,-0.003 0.004,-0.005 0.0756,-0.11774 0.14453,-0.24231 0.20709,-0.37317 0.001,-0.002 0.002,-0.005 0.003,-0.007 0.005,-0.01 0.008,-0.0204 0.0128,-0.0302 0.0422,-0.091 0.0826,-0.18384 0.11877,-0.28058 0.0113,-0.0303 0.0203,-0.0626 0.0309,-0.0934 0.0107,-0.0309 0.021,-0.062 0.031,-0.0934 0.0117,-0.0364 0.0252,-0.0713 0.036,-0.10834 0.0271,-0.0927 0.0518,-0.18738 0.0738,-0.28424 0.002,-0.009 0.003,-0.0176 0.005,-0.0263 0.003,-0.0133 0.005,-0.027 0.008,-0.0404 0.0142,-0.0657 0.0283,-0.13141 0.04,-0.19891 0.0151,-0.0873 0.0283,-0.17609 0.0397,-0.26624 6.7e-4,-0.006 10e-4,-0.0115 0.002,-0.017 10e-4,-0.008 0.002,-0.0169 0.003,-0.0253 0.009,-0.0725 0.0167,-0.14526 0.0226,-0.21948 0.007,-0.0854 0.0123,-0.17188 0.0162,-0.2594 4.3e-4,-0.0126 4.3e-4,-0.0256 9.2e-4,-0.0383 4.3e-4,-0.0139 4.3e-4,-0.0281 9.2e-4,-0.0421 0.002,-0.0599 0.004,-0.11975 0.004,-0.18066 4.2e-4,-0.0857 -6.8e-4,-0.1724 -0.003,-0.25993 z"
   id="path259"
   inkscape:connector-curvature="0"
   style="fill:#dcdeea" />
		<polygon
   class="st1"
   points="621.94434,686.76172 769.53113,771.97302 847.09344,726.89325 699.50671,641.69122 "
   id="polygon261"
   style="fill:#f7f7fb" />
		<path
   class="st5"
   d="m 824.75714,877.59692 -55.22601,-105.6239 -147.58679,-85.2113 -29.24542,-82.27014 c -0.97113,-2.72845 -2.88568,-5.0777 -4.86499,-6.22461 -0.85089,-0.49017 -1.71106,-0.75842 -2.52496,-0.73987 -2.69141,0.0462 -3.75513,3.23712 -2.36774,7.1402 l 32.29761,90.84399 149.24231,86.16394 51.95184,99.37158 c 1.08209,2.07172 2.60822,3.69031 4.15283,4.57825 1.26697,0.73065 2.54346,0.97113 3.57928,0.52722 2.30298,-0.94342 2.56195,-4.7818 0.59204,-8.55536 z"
   id="path263"
   inkscape:connector-curvature="0"
   style="fill:#babac6" />
	</g>
	<g
   id="g283">
		<g
   class="st3"
   id="g281"
   style="enable-background:new">
			<g
   id="g269">
				<polygon
   class="st4"
   points="635.49915,686.13947 645.24768,691.76288 645.01642,772.47913 635.24023,778.15808 "
   id="polygon267"
   style="fill:#dcdeea" />
			</g>
			<polygon
   class="st4"
   points="744.59149,841.29193 744.88745,736.75012 754.6637,731.07123 754.36768,835.61304 "
   id="polygon271"
   style="fill:#dcdeea" />
			<g
   id="g275">
				<polygon
   class="st1"
   points="634.41705,661.63879 754.6637,731.07123 744.88745,736.75012 624.64081,667.32697 "
   id="polygon273"
   style="fill:#f7f7fb" />
			</g>
			<g
   id="g279">
				<polygon
   class="st5"
   points="624.34485,771.86871 624.64081,667.32697 744.88745,736.75012 744.59149,841.29193 733.70538,835.01184 733.96436,742.98401 645.24768,691.76288 635.49915,686.13947 635.24023,778.15808 "
   id="polygon277"
   style="fill:#babac6" />
			</g>
		</g>
	</g>
</g>
<g
   id="g335"
   transform="translate(-382.76977,-137.79956)">
	<path
   class="st11"
   d="m 1113.993,1243.1787 c -23.2724,-11.5331 -61.0022,-11.5331 -84.2745,0 -23.2708,11.5336 -23.2708,30.2325 0,41.7658 23.2723,11.533 61.0021,11.533 84.2745,0 23.2708,-11.5332 23.2708,-30.2322 0,-41.7658 z"
   id="path287"
   inkscape:connector-curvature="0"
   style="fill:#a8d3ec" />
	<g
   id="g295">
		<path
   class="st6"
   d="m 1088.6416,1189.0137 c -19.6211,0 -39.2432,-4.3125 -54.1807,-12.9375 -14.7021,-8.4883 -22.7978,-19.8477 -22.7978,-31.9854 0,-12.1367 8.0957,-23.4961 22.7978,-31.9844 29.875,-17.25 78.4864,-17.25 108.3614,0 14.7021,8.4883 22.7978,19.8477 22.7978,31.9844 0,12.1377 -8.0957,23.4971 -22.7978,31.9854 -14.9375,8.625 -34.5596,12.9375 -54.1807,12.9375 z m 0,-87.4512 c -19.1816,0 -38.3633,4.2158 -52.9658,12.6475 -13.918,8.0371 -21.584,18.6484 -21.584,29.8808 0,11.2334 7.666,21.8448 21.584,29.8819 29.2051,16.8632 76.7265,16.8632 105.9316,0 13.918,-8.0371 21.584,-18.6485 21.584,-29.8819 0,-11.2324 -7.666,-21.8437 -21.584,-29.8808 -14.6025,-8.4317 -33.7842,-12.6475 -52.9658,-12.6475 z"
   id="path289"
   inkscape:connector-curvature="0"
   style="fill:#ffffff" />
		<path
   class="st24"
   d="m 1088.6416,1201.4678 c -25.2158,0 -50.4307,-5.542 -69.627,-16.626 -18.7773,-10.8418 -29.11811,-25.3135 -29.11909,-40.75 0,-15.4365 10.34179,-29.9082 29.11909,-40.751 38.3926,-22.166 100.8614,-22.166 139.254,0 v 0 c 18.7773,10.8428 29.1191,25.3145 29.1191,40.751 -10e-4,15.4365 -10.3418,29.9082 -29.1191,40.75 -19.1963,11.084 -44.4112,16.626 -69.627,16.626 z m 0,-112.8838 c -24.8721,0 -49.7441,5.4668 -68.6797,16.3994 -18.166,10.4893 -28.16991,24.3779 -28.16991,39.1084 0,14.7305 10.00491,28.6191 28.16991,39.1074 37.8711,21.8672 99.4883,21.8672 137.3594,0 18.165,-10.4883 28.1699,-24.3769 28.1699,-39.1074 0,-14.7305 -10.0039,-28.6191 -28.1699,-39.1084 -18.9356,-10.9326 -43.8076,-16.3994 -68.6797,-16.3994 z"
   id="path291"
   inkscape:connector-curvature="0"
   style="fill:#e8f3f7" />
		<path
   class="st24"
   d="m 1088.6416,1217.1231 c -32.2432,0 -64.4863,-7.086 -89.0332,-21.2598 -23.90039,-13.7998 -37.06348,-32.1865 -37.06348,-51.7725 0,-19.5849 13.16309,-37.9717 37.06348,-51.7715 49.0938,-28.3457 128.9727,-28.3457 178.0664,0 23.9004,13.7998 37.0635,32.1866 37.0635,51.7715 0,19.586 -13.1631,37.9727 -37.0635,51.7725 -24.5469,14.1738 -56.79,21.2598 -89.0332,21.2598 z m 0,-144.8174 c -32.0147,0 -64.0283,7.0361 -88.4004,21.1074 -23.49413,13.5654 -36.43261,31.5635 -36.43261,50.6777 0,19.1152 12.93848,37.1133 36.43261,50.6787 48.7442,28.1446 128.0567,28.1446 176.8008,0 23.4941,-13.5654 36.4326,-31.5635 36.4326,-50.6787 0,-19.1142 -12.9385,-37.1123 -36.4326,-50.6777 -24.3721,-14.0713 -56.3857,-21.1074 -88.4004,-21.1074 z"
   id="path293"
   inkscape:connector-curvature="0"
   style="fill:#e8f3f7" />
	</g>
	<g
   id="g333">
		<path
   class="st25"
   d="m 1133.307,1122.9887 c -23.2723,-11.5332 -61.0021,-11.5332 -84.2745,0 -23.2708,11.5335 -23.2708,30.2325 0,41.7657 23.2724,11.5331 61.0022,11.5331 84.2745,0 23.2708,-11.5332 23.2708,-30.2322 0,-41.7657 z"
   id="path297"
   inkscape:connector-curvature="0"
   style="fill:#b7dff2" />
		<g
   id="g331">
			<path
   class="st26"
   d="m 1136.8535,1102.3272 0.1087,0.7845 c -0.2986,-1.3087 -0.5707,-4.7987 -3.1762,-11.4823 l 0.2905,0.8026 c -3.27,-7.517 -6.2674,-12.9457 -12.1245,-18.7029 0.049,0.048 0.102,0.092 0.1496,0.1413 -3.5617,-3.4055 -5.5545,-5.1898 -10.8083,-8.445 l 0.2239,0.1315 c -4.1656,-1.8953 -11.8929,-7.4158 -26.9239,-7.6325 h 0.4904 c -0.6298,0.048 -8.6208,-0.5124 -18.3638,2.798 l 0.073,-0.027 c -0.1044,0.038 -2.2771,0.8257 -2.1729,0.7874 -10.8138,4.1862 -14.8679,8.7213 -20.2114,13.6293 -8.9441,10.0171 -11.324,18.8833 -11.2886,18.7832 -8.8448,24.7917 1.5598,56.0157 31.7286,68.1358 0.9618,0.086 27.8385,12.916 55.5398,-10.7969 0.1125,-0.193 21.713,-18.833 16.4651,-48.9052 z m -1.4388,-5.8871 c 0.099,0.3423 0.1906,0.681 0.2812,1.0191 -0.1262,-0.4389 -0.1904,-0.7088 -0.2812,-1.0191 z m -0.1259,-0.4192 c -0.1166,-0.3876 -0.2407,-0.7611 -0.3629,-1.1382 -0.4448,-1.4365 -0.038,-0.2095 0.3629,1.1382 z"
   id="path299"
   inkscape:connector-curvature="0"
   style="fill:#f5dc13" />
			<path
   class="st27"
   d="m 1080.1808,1058.0382 c 11.0061,-0.8868 22.4811,2.2354 31.0867,7.37 5.3935,3.218 8.1741,5.8922 11.1274,8.7611 18.9877,19.4968 -16.9097,71.9245 -54.4514,79.7261 37.3226,-7.7561 73.5193,-60.1469 54.4514,-79.7261 46.3977,48.0518 -21.1697,125.6061 -74.8919,77.1775 -12.4653,-11.2371 -19.0939,-29.0594 -17.1442,-45.2743 3.183,-26.4715 23.3246,-45.8992 49.822,-48.0343 z"
   id="path301"
   inkscape:connector-curvature="0"
   style="fill:none" />
			<g
   id="g313">
				<path
   class="st28"
   d="m 1065.5776,1152.6853 c 0.3903,-0.5048 1.262,-0.5531 1.8918,-0.4665 -4.8334,-18.3735 -2.0456,-50.5724 6.4826,-73.1684 5.378,-14.2492 11.793,-21.3794 17.2178,-20.6439 -19.1091,-2.1578 -37.6448,4.7318 -49.8812,20.3923 -17.098,22.1962 -5.4359,57.9041 24.289,73.8865 z"
   id="path303"
   inkscape:connector-curvature="0"
   style="fill:#f47638" />
				<path
   class="st29"
   d="m 1065.881,1154.2015 c -0.5161,-0.5629 -0.6039,-1.1274 -0.3034,-1.5162 -30.0462,-16.1553 -41.219,-51.9084 -24.289,-73.8865 -2.567,3.6136 -4.7987,6.4836 -7.7446,13.899 -4.4474,13.3673 -4.6159,23.2658 -0.7547,35.9297 8.9613,24.109 19.954,26.8569 33.0917,25.574 z"
   id="path305"
   inkscape:connector-curvature="0"
   style="fill:#4599d4" />
				<path
   class="st26"
   d="m 1068.0719,1155.3986 c -0.799,-0.1834 -1.6486,-0.6053 -2.1909,-1.1971 -6.9651,0.587 -14.966,0.6354 -21.7717,-6.2624 0.3198,0.3192 2.4555,2.7554 5.8885,5.5635 11.9514,9.2159 22.8595,10.883 21.8579,10.6429 -1.883,-0.4264 -3.2279,-3.2916 -3.7838,-8.7469 z"
   id="path307"
   inkscape:connector-curvature="0"
   style="fill:#f5dc13" />
				<path
   class="st28"
   d="m 1070.1809,1155.1698 c -0.5285,0.4156 -1.4437,0.3814 -2.109,0.2288 0.5559,5.4553 1.9008,8.3205 3.7838,8.7469 12.5582,2.5892 23.4638,1.3104 34.3027,-3.4734 7.7317,-3.8474 11.1637,-6.8024 11.0638,-6.7351 -12.008,9.4899 -29.9639,10.486 -47.0413,1.2328 z"
   id="path309"
   inkscape:connector-curvature="0"
   style="fill:#f47638" />
				<path
   class="st29"
   d="m 1070.2537,1153.7472 c 0.3845,0.5592 0.3469,1.0924 -0.073,1.4226 17.0774,9.2532 35.0333,8.2571 47.0413,-1.2328 11.6427,-9.9233 17.2083,-19.989 19.7005,-33.313 2.0478,-15.8589 -0.8387,-27.3086 -8.6075,-39.2214 15.9704,26.7904 -16.5874,67.3575 -58.0615,72.3446 z"
   id="path311"
   inkscape:connector-curvature="0"
   style="fill:#4599d4" />
			</g>
			<path
   class="st27"
   d="m 1045.3396,1149.2452 c -18.9969,-20.0317 -18.9637,-47.757 -7.1843,-65.9201 5.8835,-9.0721 13.2911,-16.0281 23.3664,-20.5614 20.0512,-9.0218 44.1302,-5.6545 60.8732,11.4056 -4.72,-4.8466 -12.5127,-6.7474 -22.6063,-4.6498 10.0936,-2.0976 17.8863,-0.1968 22.6063,4.6498 4.5561,4.9653 5.1762,6.2052 6.5569,8.1873 7.5831,10.8861 11.0555,28.9494 7.0943,42.4371 -3.8054,12.9576 -8.2128,20.0941 -18.7353,29.0731 -18.7925,16.036 -52.4316,15.9827 -71.9712,-4.6216 z"
   id="path315"
   inkscape:connector-curvature="0"
   style="fill:none" />
			<g
   id="g327">
				<path
   class="st28"
   d="m 1041.2886,1078.7988 c 13.1484,-15.7435 29.7231,-22.7256 49.8812,-20.3923 1.5507,0.2102 3.0205,1.0632 4.3621,2.5764 -4.2563,-0.5851 -10.1453,-0.2577 -12.7817,3.1526 -16.7045,-2.5614 -32.3812,2.8754 -41.4616,14.6633 z"
   id="path317"
   inkscape:connector-curvature="0"
   style="fill:#f47638" />
				<path
   class="st29"
   d="m 1044.1093,1147.9391 c -18.5076,-21.6074 -18.2203,-48.6658 -2.8207,-69.1403 9.0804,-11.7879 24.7571,-17.2247 41.4616,-14.6633 -2.0305,2.6266 -1.4376,6.4406 2.049,10.2444 -38.2935,19.167 -54.6521,57.1006 -40.6899,73.5592 z"
   id="path319"
   inkscape:connector-curvature="0"
   style="fill:#4599d4" />
				<path
   class="st26"
   d="m 1071.8557,1164.1455 c -10.0567,-2.5925 -18.2456,-6.4741 -26.5161,-14.9003 l -1.2303,-1.3061 c -15.8404,-20.1221 9.4946,-58.4984 40.6899,-73.5592 0.1295,0.1414 0.2632,0.2827 0.4008,0.4241 3.5639,3.6595 8.9953,6.4225 14.4029,7.6634 -2.6311,34.8788 -18.7996,83.7042 -27.7472,81.6781 z"
   id="path321"
   inkscape:connector-curvature="0"
   style="fill:#f5dc13" />
				<path
   class="st28"
   d="m 1117.2222,1153.937 c -14.7427,10.2234 -27.3067,14.0105 -45.3665,10.2085 9.303,2.1066 25.2274,-48.2753 27.7472,-81.6781 3.4524,0.7921 6.895,0.9641 9.8358,0.3529 1.8443,-0.3832 3.3206,-1.0389 4.4135,-1.8985 21.1902,22.7252 23.7181,56.9338 3.37,73.0152 z"
   id="path323"
   inkscape:connector-curvature="0"
   style="fill:#f47638" />
				<path
   class="st29"
   d="m 1128.3152,1081.4026 c 17.1405,26.972 9.1903,56.4965 -11.093,72.5344 20.9336,-16.5441 17.2097,-50.9447 -3.37,-73.0152 2.8355,-2.2305 3.0897,-5.8338 0.4919,-9.6121 3.4009,1.2882 9.7311,3.6862 13.9711,10.0929 z"
   id="path325"
   inkscape:connector-curvature="0"
   style="fill:#4599d4" />
			</g>
			
				<ellipse
   transform="matrix(0.34241,-0.93955,0.93955,0.34241,-284.49673,1737.5035)"
   class="st1"
   cx="1099.0015"
   cy="1071.9926"
   rx="10.24428"
   ry="18.20746"
   id="ellipse329"
   style="fill:#f7f7fb" />
		</g>
	</g>
</g>
<path
   class="st1"
   d="m 2111.4696,480.94869 -339.771,0 c -10.7026,0 -19.3789,8.67621 -19.3789,19.37885 v 6e-5 c 0,10.70264 8.6763,19.37885 19.3789,19.37885 l 339.771,0 c 10.7026,0 19.3789,-8.67621 19.3789,-19.37885 v -6e-5 c 0,-10.70264 -8.6763,-19.37885 -19.3789,-19.37885 z"
   id="path337"
   inkscape:connector-curvature="0"
   style="fill:#f7f7fb"
   sodipodi:nodetypes="sssssssss" />
<g
   id="g353"
   transform="translate(-382.76977,-137.79956)">
	<polygon
   class="st7"
   points="2189.7048,1442.983 2240.5732,1413.6117 2039.0577,1297.2567 1988.1896,1326.6281 "
   id="polygon339"
   style="fill:#f26f8d" />
	<polygon
   class="st1"
   points="2138.8367,1472.3544 2189.7048,1442.983 1988.1896,1326.6281 1937.3213,1355.9994 "
   id="polygon341"
   style="fill:#f7f7fb" />
	<polygon
   class="st7"
   points="2087.9685,1501.7256 2138.8367,1472.3544 1937.3213,1355.9994 1886.4531,1385.3706 "
   id="polygon343"
   style="fill:#f26f8d" />
	<polygon
   class="st1"
   points="2037.1003,1531.0969 2087.9685,1501.7256 1886.4531,1385.3706 1835.585,1414.7419 "
   id="polygon345"
   style="fill:#f7f7fb" />
	<polygon
   class="st7"
   points="1986.2322,1560.4683 2037.1003,1531.0969 1835.585,1414.7419 1784.7168,1444.1132 "
   id="polygon347"
   style="fill:#f26f8d" />
	<polygon
   class="st1"
   points="1935.364,1589.8395 1986.2322,1560.4683 1784.7168,1444.1132 1733.8486,1473.4845 "
   id="polygon349"
   style="fill:#f7f7fb" />
	<polygon
   class="st7"
   points="1884.4959,1619.2108 1935.364,1589.8395 1733.8486,1473.4845 1682.9805,1502.8558 "
   id="polygon351"
   style="fill:#f26f8d" />
</g>
<flowRoot
   xml:space="preserve"
   id="flowRoot1167"
   style="font-style:normal;font-variant:normal;font-weight:normal;font-stretch:normal;font-size:40px;line-height:1.25;font-family:'Edit Undo Line BRK';-inkscape-font-specification:'Edit Undo Line BRK, Normal';font-variant-ligatures:normal;font-variant-caps:normal;font-variant-numeric:normal;font-feature-settings:normal;text-align:start;letter-spacing:0px;word-spacing:0px;writing-mode:lr-tb;text-anchor:start;fill:#ffffff;fill-opacity:1;stroke:#ffffff;stroke-opacity:1"
   transform="matrix(7.566711,0,0,7.566711,-9382.2778,1786.1082)"><flowRegion
     id="flowRegion1169"
     style="font-style:normal;font-variant:normal;font-weight:normal;font-stretch:normal;font-size:40px;font-family:'Edit Undo Line BRK';-inkscape-font-specification:'Edit Undo Line BRK, Normal';font-variant-ligatures:normal;font-variant-caps:normal;font-variant-numeric:normal;font-feature-settings:normal;text-align:start;writing-mode:lr-tb;text-anchor:start;fill:#ffffff;fill-opacity:1;stroke:#ffffff;stroke-opacity:1"><rect
       id="rect1171"
       width="746.39771"
       height="248.1268"
       x="1476.6571"
       y="-291.93085"
       style="font-style:normal;font-variant:normal;font-weight:normal;font-stretch:normal;font-size:40px;font-family:'Edit Undo Line BRK';-inkscape-font-specification:'Edit Undo Line BRK, Normal';font-variant-ligatures:normal;font-variant-caps:normal;font-variant-numeric:normal;font-feature-settings:normal;text-align:start;writing-mode:lr-tb;text-anchor:start;fill:#ffffff;fill-opacity:1;stroke:#ffffff;stroke-opacity:1" /></flowRegion><flowPara
     id="flowPara1173" /><flowPara
     id="flowPara1175" /></flowRoot><text
   xml:space="preserve"
   style="font-style:normal;font-variant:normal;font-weight:normal;font-stretch:normal;font-size:206.92919922px;line-height:1.25;font-family:'Edit Undo Line BRK';-inkscape-font-specification:'Edit Undo Line BRK, Normal';font-variant-ligatures:normal;font-variant-caps:normal;font-variant-numeric:normal;font-feature-settings:normal;text-align:start;letter-spacing:0px;word-spacing:0px;writing-mode:lr-tb;text-anchor:start;fill:#ffffff;fill-opacity:1;stroke:#ffffff;stroke-width:5.17322969;stroke-opacity:1"
   x="1479.3602"
   y="223.93974"
   id="text4899"><tspan
     sodipodi:role="line"
     id="tspan4897"
     x="1479.3602"
     y="223.93974"
     style="fill:#ffffff;fill-opacity:1;stroke:#ffffff;stroke-width:5.17322969;stroke-opacity:1">POOL</tspan></text>


<text
   xml:space="preserve"
   style="font-style:normal;font-variant:normal;font-weight:normal;font-stretch:normal;font-size:206.92919922px;line-height:1.25;font-family:'Edit Undo Line BRK';-inkscape-font-specification:'Edit Undo Line BRK, Normal';font-variant-ligatures:normal;font-variant-caps:normal;font-variant-numeric:normal;font-feature-settings:normal;text-align:start;letter-spacing:0px;word-spacing:0px;writing-mode:lr-tb;text-anchor:start;fill:#ffffff;fill-opacity:1;stroke:#ffffff;stroke-width:5.17322969;stroke-opacity:1"
   x="1479.041"
   y="421.16754"
   id="text4903"><tspan
     sodipodi:role="line"
     id="tspan4901"
     x="1479.041"
     y="421.16754"
     style="fill:#ffffff;fill-opacity:1;stroke:#ffffff;stroke-width:5.17322969;stroke-opacity:1">PARTY</tspan></text>


</svg>