<?xml version="1.0" encoding="UTF-8" standalone="no"?>
<!-- Created with Inkscape (http://www.inkscape.org/) -->

<svg
   xmlns:dc="http://purl.org/dc/elements/1.1/"
   xmlns:cc="http://creativecommons.org/ns#"
   xmlns:rdf="http://www.w3.org/1999/02/22-rdf-syntax-ns#"
   xmlns:svg="http://www.w3.org/2000/svg"
   xmlns="http://www.w3.org/2000/svg"
   xmlns:xlink="http://www.w3.org/1999/xlink"
   xmlns:sodipodi="http://sodipodi.sourceforge.net/DTD/sodipodi-0.dtd"
   xmlns:inkscape="http://www.inkscape.org/namespaces/inkscape"
   width="210mm"
   height="297mm"
   viewBox="0 0 210 297"
   version="1.1"
   id="svg8"
   inkscape:version="0.92.3 (2405546, 2018-03-11)"
   sodipodi:docname="drawing.svg">
  <defs
     id="defs2">
    <linearGradient
       id="linearGradient1255"
       inkscape:collect="always">
      <stop
         id="stop1251"
         offset="0"
         style="stop-color:#5a2d67;stop-opacity:1" />
      <stop
         id="stop1253"
         offset="1"
         style="stop-color:#21093a;stop-opacity:1" />
    </linearGradient>
    <linearGradient
       inkscape:collect="always"
       id="linearGradient1245">
      <stop
         style="stop-color:#5a2d67;stop-opacity:1"
         offset="0"
         id="stop1241" />
      <stop
         style="stop-color:#21093a;stop-opacity:1"
         offset="1"
         id="stop1243" />
    </linearGradient>
    <linearGradient
       inkscape:collect="always"
       xlink:href="#linearGradient1255"
       id="linearGradient1748"
       gradientUnits="userSpaceOnUse"
       gradientTransform="matrix(-0.72286637,0,0,0.72286637,55.376276,164.49669)"
       x1="61.333649"
       y1="433.54279"
       x2="38.42704"
       y2="450.77875" />
    <linearGradient
       inkscape:collect="always"
       xlink:href="#linearGradient1245"
       id="linearGradient1750"
       gradientUnits="userSpaceOnUse"
       gradientTransform="matrix(-0.72286637,0,0,0.72286637,55.376276,164.49669)"
       x1="61.333649"
       y1="433.54279"
       x2="38.42704"
       y2="450.77875" />
    <clipPath
       clipPathUnits="userSpaceOnUse"
       id="clipPath1776">
      <ellipse
         ry="59.608063"
         rx="45.336006"
         cy="634.96234"
         cx="284.37479"
         id="ellipse1778"
         style="opacity:1;vector-effect:none;fill:none;fill-opacity:1;stroke:#ffffff;stroke-width:0.48608255;stroke-linecap:butt;stroke-linejoin:miter;stroke-miterlimit:4;stroke-dasharray:none;stroke-dashoffset:0;stroke-opacity:1" />
    </clipPath>
    <clipPath
       clipPathUnits="userSpaceOnUse"
       id="clipPath1786">
      <ellipse
         ry="59.608063"
         rx="45.336006"
         cy="634.96234"
         cx="284.37479"
         id="ellipse1788"
         style="opacity:1;vector-effect:none;fill:none;fill-opacity:1;stroke:#ffffff;stroke-width:0.48608255;stroke-linecap:butt;stroke-linejoin:miter;stroke-miterlimit:4;stroke-dasharray:none;stroke-dashoffset:0;stroke-opacity:1" />
    </clipPath>
    <clipPath
       clipPathUnits="userSpaceOnUse"
       id="clipPath2196">
      <ellipse
         ry="7470.0566"
         rx="5681.4883"
         cy="-7308.2495"
         cx="9176.8398"
         id="ellipse2198"
         style="opacity:1;vector-effect:none;fill:none;fill-opacity:1;stroke:#ffffff;stroke-width:60.91565323;stroke-linecap:butt;stroke-linejoin:miter;stroke-miterlimit:4;stroke-dasharray:none;stroke-dashoffset:0;stroke-opacity:1"
         transform="scale(1,-1)" />
    </clipPath>
    <clipPath
       clipPathUnits="userSpaceOnUse"
       id="clipPath2227">
      <ellipse
         style="opacity:1;vector-effect:none;fill:none;fill-opacity:1;stroke:#ffffff;stroke-width:0.48608255;stroke-linecap:butt;stroke-linejoin:miter;stroke-miterlimit:4;stroke-dasharray:none;stroke-dashoffset:0;stroke-opacity:1"
         id="ellipse2229"
         cx="287.16376"
         cy="651.51013"
         rx="45.336006"
         ry="59.608063" />
    </clipPath>
    <clipPath
       clipPathUnits="userSpaceOnUse"
       id="clipPath2231">
      <ellipse
         ry="59.608063"
         rx="45.336006"
         cy="676.3891"
         cx="233.59358"
         id="ellipse2233"
         style="opacity:1;vector-effect:none;fill:none;fill-opacity:1;stroke:#ffffff;stroke-width:0.48608255;stroke-linecap:butt;stroke-linejoin:miter;stroke-miterlimit:4;stroke-dasharray:none;stroke-dashoffset:0;stroke-opacity:1" />
    </clipPath>
  </defs>
  <sodipodi:namedview
     id="base"
     pagecolor="#ffffff"
     bordercolor="#666666"
     borderopacity="1.0"
     inkscape:pageopacity="0.0"
     inkscape:pageshadow="2"
     inkscape:zoom="0.7"
     inkscape:cx="692.85282"
     inkscape:cy="303.8183"
     inkscape:document-units="mm"
     inkscape:current-layer="layer1"
     showgrid="false"
     inkscape:window-width="1920"
     inkscape:window-height="1053"
     inkscape:window-x="0"
     inkscape:window-y="27"
     inkscape:window-maximized="1" />
  <metadata
     id="metadata5">
    <rdf:RDF>
      <cc:Work
         rdf:about="">
        <dc:format>image/svg+xml</dc:format>
        <dc:type
           rdf:resource="http://purl.org/dc/dcmitype/StillImage" />
        <dc:title></dc:title>
      </cc:Work>
    </rdf:RDF>
  </metadata>
  <g
     inkscape:label="Layer 1"
     inkscape:groupmode="layer"
     id="layer1">
    <g
       transform="matrix(0.0126641,0,0,-0.01498396,-88.359022,591.71069)"
       id="g842" />
    <g
       id="g1275"
       transform="matrix(0.72286637,0,0,0.72286637,-51.208524,142.40705)"
       style="opacity:1" />
    <ellipse
       style="opacity:1;vector-effect:none;fill:#f5f9ff;fill-opacity:1;stroke:#ffffff;stroke-width:0.48608255;stroke-linecap:butt;stroke-linejoin:miter;stroke-miterlimit:4;stroke-dasharray:none;stroke-dashoffset:0;stroke-opacity:1"
       id="path1772"
       cx="95.147964"
       cy="179.53506"
       rx="45.336006"
       ry="59.608063"
       inkscape:export-xdpi="84.877289"
       inkscape:export-ydpi="84.877289" />
    <g
       id="g2213"
       transform="translate(-192.01579,-471.97506)"
       clip-path="url(#clipPath2227)">
      <circle
         r="13.296659"
         cy="629.28284"
         cx="263.86185"
         id="path2204"
         style="opacity:1;vector-effect:none;fill:#ffffff;fill-opacity:1;stroke:none;stroke-width:0.5;stroke-linecap:butt;stroke-linejoin:miter;stroke-miterlimit:4;stroke-dasharray:none;stroke-dashoffset:0;stroke-opacity:1" />
      <circle
         style="opacity:1;vector-effect:none;fill:#ffffff;fill-opacity:1;stroke:none;stroke-width:0.27889448;stroke-linecap:butt;stroke-linejoin:miter;stroke-miterlimit:4;stroke-dasharray:none;stroke-dashoffset:0;stroke-opacity:1"
         id="circle2206"
         cx="249.02838"
         cy="629.68372"
         r="7.4167299" />
      <circle
         r="7.4167299"
         cy="635.02911"
         cx="276.28989"
         id="circle2208"
         style="opacity:1;vector-effect:none;fill:#ffffff;fill-opacity:1;stroke:none;stroke-width:0.27889448;stroke-linecap:butt;stroke-linejoin:miter;stroke-miterlimit:4;stroke-dasharray:none;stroke-dashoffset:0;stroke-opacity:1" />
    </g>
    <g
       transform="matrix(0.0649284,0,0,-0.0649284,-1451.9821,833.82371)"
       id="g1802">
      <path
         inkscape:connector-curvature="0"
         id="path1804"
         style="fill:#ffffff;fill-opacity:1;fill-rule:nonzero;stroke:none"
         d="M 16300,0 H 0 V 10866.7 H 16300 V 0" />
    </g>
    <g
       transform="matrix(0.05986709,0,0,-0.05986709,-1451.9821,833.82371)"
       id="g1806">
      <path
         inkscape:connector-curvature="0"
         id="path1808"
         style="fill:#ebf3fa;fill-opacity:1;fill-rule:nonzero;stroke:none"
         d="m 15078.6,2400.8 -3607.6,4.42 -202.5,0.65 -6577.84,21.51 -2500,7.13 c 0,0 -741.3,1007.65 -252.34,2460.55 48.19,143.43 360.54,722.79 436.28,864.99 50.41,94.57 107.41,188.61 171.49,281.68 6.59,9.54 13.23,19.03 19.96,28.57 91.96,130.19 198.19,258.46 320.2,383.5 930.96,954.41 1789.5,1083.93 2493.88,1018.99 562.06,-51.67 1025.93,-227.21 1350.09,-206 730.45,47.63 964.69,1550.53 3125.54,2003.85 431.14,90.43 915.04,143.01 1398.44,143.52 1351.1,1.57 2697.8,-402.75 2875.2,-1519.12 25.5,-161.09 26.8,-336.88 0.1,-528.46 -18.6,-135.39 -51.3,-278.56 -99.2,-430 -88.6,-281.06 -483.1,-416.48 -683.9,-755.96 -641.2,-1083.74 1166.6,-1785.26 1924.7,-2215.02 31.2,-17.68 63.4,-33.88 93,-54.33 935.9,-648.25 -285.5,-1510.47 -285.5,-1510.47" />
    </g>
    <g
       transform="matrix(0.03574874,0,0,-0.03574874,-1451.9821,833.82371)"
       id="g1814">
      <path
         inkscape:connector-curvature="0"
         id="path1816"
         style="fill:#88b374;fill-opacity:1;fill-rule:nonzero;stroke:none"
         d="m 7279.68,4864.76 c 706.65,-240.1 2007.56,-856.77 3501.72,-437.96 1494.1,418.91 3263.5,53.88 5486,-398.97 10.8,-2.17 21.7,-4.14 32.6,-6.32 l -12335.18,17.67 c 948.38,1071.3 2228.02,1194.85 3314.86,825.58" />
    </g>
    <g
       transform="matrix(0.04719673,0,0,-0.04719673,-1451.9821,833.82371)"
       id="g1818">
      <path
         inkscape:connector-curvature="0"
         id="path1820"
         style="fill:#699ff0;fill-opacity:1;fill-rule:nonzero;stroke:none"
         d="m 16142.4,10013.2 65.9,359 c 4.4,24 27.6,40.1 51.7,35.7 24,-4.5 40,-27.7 35.7,-51.7 l -66,-359.02 c -4.4,-24.02 -27.7,-40.07 -51.7,-35.65 -24.1,4.41 -40,27.67 -35.6,51.67" />
    </g>
    <g
       transform="matrix(0.05608249,0,0,-0.05608249,-1451.9821,833.82371)"
       id="g1822">
      <path
         inkscape:connector-curvature="0"
         id="path1824"
         style="fill:#c66524;fill-opacity:1;fill-rule:nonzero;stroke:none"
         d="m 13536.8,7840 c 0,0 1836.8,-82.12 2763.2,-1540.44 0,0 -993.8,238.49 -1572.8,-3.58 0,0 -442.1,1086.6 -1190.4,1544.02" />
    </g>
    <g
       transform="matrix(0.05067123,0,0,-0.05067123,-1451.9821,833.82371)"
       id="g1826">
      <path
         inkscape:connector-curvature="0"
         id="path1828"
         style="fill:#d16f26;fill-opacity:1;fill-rule:nonzero;stroke:none"
         d="m 16300,6968.35 c 0,0 -1339.2,397.66 -1611.4,143.19 l 293.8,1565.72 c 0,0 1127.9,-697.43 1317.6,-1708.91" />
    </g>
    <g
       transform="matrix(0.04655644,0,0,-0.04655644,-1451.9821,833.82371)"
       id="g1830">
      <path
         inkscape:connector-curvature="0"
         id="path1832"
         style="fill:#c66524;fill-opacity:1;fill-rule:nonzero;stroke:none"
         d="m 16300,9445.37 c 0,0 -2103.3,693.83 -3770.7,-551.55 0,0 1221.1,-156.92 1769.4,-677.34 0,0 963,1034.2 2001.3,1228.89" />
    </g>
    <g
       transform="matrix(0.04655644,0,0,-0.04655644,-1451.9821,833.82371)"
       id="g1834">
      <path
         inkscape:connector-curvature="0"
         id="path1836"
         style="fill:#d16f26;fill-opacity:1;fill-rule:nonzero;stroke:none"
         d="m 14298.7,8216.48 c 0,0 1516.2,-113.48 1694.6,-477.61 l 306.7,1706.5 c 0,0 -1417.1,-273.26 -2001.3,-1228.89" />
    </g>
    <g
       transform="matrix(0.04671907,0,0,-0.04671907,-1451.9821,833.82371)"
       id="g1838">
      <path
         inkscape:connector-curvature="0"
         id="path1840"
         style="fill:#699ff0;fill-opacity:1;fill-rule:nonzero;stroke:none"
         d="M 15096.1,3732.33 16129,9355.82 c 7.7,41.33 47.7,68.94 89,61.35 l 13.1,-2.41 c 41.3,-7.59 68.9,-47.61 61.3,-88.95 L 15259.5,3702.28 c -7.7,-41.3 -47.7,-68.94 -89,-61.31 l -13,2.41 c -41.4,7.55 -69,47.57 -61.4,88.95" />
    </g>
    <g
       transform="matrix(0.05608249,0,0,-0.05608249,-1451.9821,833.82371)"
       id="g1842">
      <path
         inkscape:connector-curvature="0"
         id="path1844"
         style="fill:#e58638;fill-opacity:1;fill-rule:nonzero;stroke:none"
         d="m 13784,8508.84 c 1186.5,-365.41 1311.8,-1392.58 1311.8,-1392.58 713.7,-123.07 1200.5,-811.28 1204.2,-816.61 -2.2,13.52 -415,1692.11 -2516,2209.19" />
    </g>
    <g
       transform="matrix(0.04636594,0,0,-0.04636594,-1451.9821,833.82371)"
       id="g1846">
      <path
         inkscape:connector-curvature="0"
         id="path1848"
         style="fill:#e58638;fill-opacity:1;fill-rule:nonzero;stroke:none"
         d="M 16300,10354.9 C 14801.4,10451.8 14293.3,9336 14293.3,9336 c -859.9,167.68 -1706,-401.18 -1712.6,-405.59 8.4,14.32 1121.7,1742.99 3719.3,1424.49" />
    </g>
    <g
       transform="matrix(0.05202696,0,0,-0.05202696,-1451.9821,833.82371)"
       id="g1850">
      <path
         inkscape:connector-curvature="0"
         id="path1852"
         style="fill:#f1a34f;fill-opacity:1;fill-rule:nonzero;stroke:none"
         d="m 14729.5,9199.38 c 0,0 962.8,-147.84 1344.5,-860.1 0,0 226,-394.31 198.5,-668.31 0,0 -1520.8,1112.6 -3534.4,649.21 0,0 414.1,1158.25 1991.4,879.2" />
    </g>
    <g
       transform="matrix(0.05030011,0,0,-0.05030011,-1451.9821,833.82371)"
       id="g1854">
      <path
         inkscape:connector-curvature="0"
         id="path1856"
         style="fill:#c5ddff;fill-opacity:1;fill-rule:nonzero;stroke:none"
         d="m 16300,5501.13 h -1188.7 l -541,-813.63 h -2493.1 l 776.3,-105.9 h 2844.4 l 602.1,919.53" />
    </g>
    <g
       transform="matrix(0.04683936,0,0,-0.04683936,-1451.9821,833.82371)"
       id="g1858">
      <path
         inkscape:connector-curvature="0"
         id="path1860"
         style="fill:#a2c0ed;fill-opacity:1;fill-rule:nonzero;stroke:none"
         d="m 16204.4,4774.31 95.6,-603.73 h -137.1 l -259.8,603.28 301.3,0.45" />
    </g>
    <g
       transform="matrix(0.05071674,0,0,-0.05071674,-1451.9821,833.82371)"
       id="g1862">
      <path
         inkscape:connector-curvature="0"
         id="path1864"
         style="fill:#afcdfb;fill-opacity:1;fill-rule:nonzero;stroke:none"
         d="m 12817.3,4408.9 h -69.4 v 135.08 H 15569 l 597.2,911.98 133.8,-87.64 -628,-959 -0.3,0.27 v -0.27 h 0.3 l 88.4,-557.58 h -126.7 l -239.9,557.16 h -2298.2 l -239.9,-557.16 h -126.6 l 88.2,557.16" />
    </g>
    <g
       transform="matrix(0.03966457,0,0,-0.03966457,-1451.9821,833.82371)"
       id="g1866">
      <path
         inkscape:connector-curvature="0"
         id="path1868"
         style="fill:#a2c0ed;fill-opacity:1;fill-rule:nonzero;stroke:none"
         d="m 15315.6,5944.42 984.4,-134.3 v -172.73 l -362.7,56.57 -272.7,-768.98 h -161.9 l 106.9,820.03 -294,45.89 v 153.52" />
    </g>
    <g
       transform="matrix(0.05037137,0,0,-0.05037137,-1451.9821,833.82371)"
       id="g1870">
      <path
         inkscape:connector-curvature="0"
         id="path1872"
         style="fill:#c5ddff;fill-opacity:1;fill-rule:nonzero;stroke:none"
         d="M 2985.87,3878.13 H 15917.1 c 210.6,0 382.9,-172.28 382.9,-382.88 v -479.18 c 0,-7.57 -6.2,-13.73 -13.7,-13.73 H 2616.71 c -7.55,0 -13.73,6.16 -13.73,13.73 v 479.18 c 0,210.6 172.3,382.88 382.89,382.88" />
    </g>
    <path
       inkscape:connector-curvature="0"
       id="path1874"
       style="fill:#e58638;fill-opacity:1;fill-rule:nonzero;stroke:none;stroke-width:0.03527778"
       d="m -1238.2919,558.74524 h 13.6899 c 1.1935,0 2.3647,0.0988 3.5095,0.29281 4.3278,0.72319 8.2655,2.7693 11.4666,5.74322 1.849,1.71803 3.4527,3.75003 4.7424,6.02192 2.231,3.92641 3.5211,8.56544 3.5211,13.52902 v 54.05261 h -5.4829 v -54.05261 c 0,-0.34925 -0.01,-0.70202 -0.026,-1.04775 0,-0.13052 -0.012,-0.26458 -0.022,-0.39511 -0.014,-0.20461 -0.03,-0.40922 -0.05,-0.61383 -0.012,-0.12347 -0.024,-0.24694 -0.038,-0.37042 -0.07,-0.635 -0.1708,-1.26294 -0.2978,-1.87677 -0.012,-0.06 -0.024,-0.11642 -0.036,-0.17639 -0.018,-0.0811 -0.034,-0.16228 -0.054,-0.24342 -0.024,-0.11289 -0.05,-0.22225 -0.079,-0.33161 -0.01,-0.0459 -0.02,-0.0882 -0.032,-0.13406 -0.02,-0.0847 -0.043,-0.1658 -0.065,-0.25047 0,-0.004 0,-0.007 0,-0.0106 -0.03,-0.11995 -0.062,-0.23989 -0.097,-0.35631 -0.032,-0.11641 -0.066,-0.2293 -0.1026,-0.34572 -0.038,-0.13406 -0.079,-0.26458 -0.1228,-0.39511 -0.018,-0.06 -0.036,-0.11642 -0.056,-0.17639 -0.06,-0.18344 -0.1249,-0.36689 -0.193,-0.54681 -0.052,-0.14816 -0.1087,-0.29633 -0.1672,-0.44097 -0.157,-0.40922 -0.3299,-0.81139 -0.5126,-1.20297 -0.062,-0.13406 -0.1249,-0.26458 -0.1912,-0.39511 -0.069,-0.14111 -0.1369,-0.27517 -0.2096,-0.41275 -0.1365,-0.26106 -0.2776,-0.51858 -0.4265,-0.77258 -0.026,-0.0459 -0.054,-0.0917 -0.08,-0.14112 -0.048,-0.0811 -0.097,-0.16227 -0.1468,-0.23988 -0.016,-0.0282 -0.031,-0.0529 -0.046,-0.0776 -0.1528,-0.25047 -0.3119,-0.49741 -0.4766,-0.73377 -0.5959,-0.88195 -1.2594,-1.70039 -1.9798,-2.45886 -0.095,-0.0988 -0.1937,-0.20109 -0.29,-0.29634 -0.217,-0.21872 -0.4385,-0.43039 -0.666,-0.635 -0.077,-0.0706 -0.1528,-0.14111 -0.2294,-0.20461 -0.012,-0.0141 -0.024,-0.0247 -0.038,-0.0353 -0.07,-0.06 -0.1407,-0.12347 -0.2134,-0.18344 -0.04,-0.0353 -0.08,-0.0706 -0.1206,-0.10231 -0.086,-0.0705 -0.1729,-0.14111 -0.2618,-0.21166 -0.1647,-0.13406 -0.3337,-0.26459 -0.5048,-0.39159 -0.064,-0.0459 -0.1288,-0.0952 -0.1933,-0.14111 0,-0.004 0,-0.004 0,-0.004 -0.075,-0.0529 -0.151,-0.10583 -0.2275,-0.16227 -0.2092,-0.14817 -0.4248,-0.28928 -0.6421,-0.42686 -0.05,-0.0317 -0.1005,-0.0635 -0.151,-0.0953 -0.058,-0.0388 -0.1164,-0.0741 -0.1771,-0.10937 -0.068,-0.0423 -0.1368,-0.0811 -0.2053,-0.11994 -0.2554,-0.15169 -0.5147,-0.29633 -0.7785,-0.43039 -0.078,-0.0423 -0.1588,-0.0847 -0.2417,-0.12347 -0.096,-0.0494 -0.1947,-0.0988 -0.2932,-0.14464 -0.061,-0.0282 -0.1206,-0.0564 -0.1813,-0.0847 -0.1168,-0.0529 -0.2335,-0.10583 -0.3499,-0.15522 -0.2438,-0.10583 -0.489,-0.20461 -0.7363,-0.29986 -0.06,-0.0212 -0.121,-0.0459 -0.1817,-0.0635 -0.1887,-0.0706 -0.3803,-0.13758 -0.5729,-0.19756 -0.095,-0.0317 -0.1877,-0.06 -0.2819,-0.0882 -0.022,-0.0106 -0.046,-0.0141 -0.07,-0.0212 -0.1128,-0.0353 -0.2278,-0.067 -0.3421,-0.0988 -0.2477,-0.0706 -0.4992,-0.13053 -0.7525,-0.18698 -0.2858,-0.0635 -0.5736,-0.11994 -0.8654,-0.16933 -0.145,-0.0247 -0.2896,-0.0459 -0.4364,-0.067 -0.028,-0.004 -0.057,-0.007 -0.085,-0.0106 -0.091,-0.0141 -0.1814,-0.0247 -0.2717,-0.0353 -0.058,-0.007 -0.1167,-0.0141 -0.1753,-0.0176 -0.1164,-0.0141 -0.235,-0.0247 -0.3535,-0.0353 -0.2822,-0.0247 -0.5658,-0.0388 -0.8537,-0.0459 -0.044,-0.004 -0.089,-0.004 -0.1323,-0.007 -0.121,0 -0.2417,-0.004 -0.3648,-0.004 h -13.6899 c -8.4564,0 -15.3338,7.57414 -15.3338,16.88394 v 93.28503 h -5.3598 c -0.081,-0.38453 -0.1231,-0.78669 -0.1231,-1.19944 v -92.08559 c 0,-12.6365 9.3384,-22.91997 20.8167,-22.91997" />
    <path
       inkscape:connector-curvature="0"
       id="path1876"
       style="fill:#e58638;fill-opacity:1;fill-rule:nonzero;stroke:none;stroke-width:0.03527778"
       d="m -1224.6013,564.78127 c 9.791,0 17.7567,8.77006 17.7567,19.55094 v 54.05261 h 5.4822 v -54.05261 c 0,-4.96358 -1.2901,-9.60261 -3.5211,-13.52902 -9.1613,-7.99748 -19.7178,-6.02192 -19.7178,-6.02192" />
    <path
       inkscape:connector-curvature="0"
       id="path1878"
       style="fill:#f1a34f;fill-opacity:1;fill-rule:nonzero;stroke:none;stroke-width:0.03527778"
       d="m -1229.6456,564.78127 c 2.9337,-2.96333 6.6435,-5.02003 10.7523,-5.74322 1.0784,-0.19403 2.183,-0.29281 3.3094,-0.29281 h 13.6902 c 8.3062,0 15.6059,4.82247 19.7185,12.05795 2.2314,3.92641 3.5211,8.56544 3.5211,13.52902 v 54.05261 h -5.4832 v -54.05261 c 0,-10.78088 -7.9654,-19.55094 -17.7564,-19.55094 h -13.6902 c -0.1387,0 -0.277,0.004 -0.4142,0.007 h -0.01 c -0.9793,0.0282 -1.9354,0.15875 -2.8611,0.38452 -6.8851,1.65806 -12.0519,8.42081 -12.0519,16.49236 v 93.28503 h -5.3605 c -0.08,-0.38453 -0.1224,-0.78669 -0.1224,-1.19944 v -92.08559 c 0,-6.67455 2.6035,-12.68941 6.7547,-16.88394" />
    <path
       inkscape:connector-curvature="0"
       id="path1880"
       style="fill:#e58638;fill-opacity:1;fill-rule:nonzero;stroke:none;stroke-width:0.03527778"
       d="m -1201.8937,564.78127 c 9.7917,0 17.7574,8.77006 17.7574,19.55094 v 54.05261 h 5.4822 v -54.05261 c 0,-4.96358 -1.2904,-9.60261 -3.5214,-13.52902 -9.1609,-7.99748 -19.7182,-6.02192 -19.7182,-6.02192" />
    <path
       inkscape:connector-curvature="0"
       id="path1882"
       style="fill:#aa443e;fill-opacity:1;fill-rule:nonzero;stroke:none;stroke-width:0.03527778"
       d="m -1027.033,385.6372 c 0,0 -17.6636,-18.3268 -32.7731,-29.47458 -1.0336,-2.794 -1.5981,-6.50875 -1.5981,-6.50875 -0.8466,1.54517 -0.7161,3.54542 -0.4374,5.04119 -4.1028,-2.88925 -7.941,-5.13997 -11.0878,-6.21594 -1.0583,-6.14892 4.8577,-12.60828 4.8577,-12.60828 -5.08,2.0567 -7.1402,8.83708 -7.814,11.94153 -0.5468,-0.0423 -1.0548,-0.0282 -1.524,0.0494 0,0 -0.508,-20.76097 31.1997,-20.76097 12.3366,0 10.5692,-21.43125 28.1305,-19.89314 0,0 19.17699,3.7465 15.5963,20.47169 -3.5807,16.7252 2.3036,20.4717 4.34975,24.2182 2.04258,3.75002 -6.64985,29.98963 -28.89955,33.73966" />
    <path
       inkscape:connector-curvature="0"
       id="path1884"
       style="fill:#d9935c;fill-opacity:1;fill-rule:nonzero;stroke:none;stroke-width:0.03527778"
       d="m -1002.903,491.62574 c 0,0 15.18355,5.2705 20.18594,4.60728 0,0 0.33161,-2.56116 -4.06753,-4.94594 -4.40267,-2.38831 -8.1915,-10.3505 -10.58334,-9.74725 -2.3883,0.60325 -5.54917,2.75872 -5.54917,2.75872 l 0.014,7.32719" />
    <path
       inkscape:connector-curvature="0"
       id="path1886"
       style="fill:#ffb27d;fill-opacity:1;fill-rule:nonzero;stroke:none;stroke-width:0.03527778"
       d="m -981.26715,468.06019 c 0,0 15.85736,-2.6035 19.939,-5.57036 0,0 -0.9278,-2.413 -5.93372,-2.413 -5.00944,0 -12.13556,-5.18935 -13.94883,-3.52071 -1.81328,1.66862 -3.56306,5.0694 -3.56306,5.0694 l 3.50661,6.43467" />
    <path
       inkscape:connector-curvature="0"
       id="path1888"
       style="fill:#d9935c;fill-opacity:1;fill-rule:nonzero;stroke:none;stroke-width:0.03527778"
       d="m -1002.8924,491.63986 c -4.3216,-0.13759 -8.382,-0.32456 -12.1991,-0.55034 -57.8873,-3.41841 -59.5771,-16.29128 -59.5771,-16.29128 -9.6273,-29.49926 29.0583,-58.79393 29.0583,-58.79393 0,0 23.4703,-3.29494 22.539,10.49867 -0.9313,13.79361 -33.4046,40.89751 -33.4046,40.89751 10.8127,1.01248 28.3916,7.09084 40.4425,11.67342 7.687,2.92453 13.1269,5.23875 13.1269,5.23875 0,0 1.0265,1.74978 0.8749,3.71828 -0.1623,2.1343 -0.8608,3.60892 -0.8608,3.60892" />
    <path
       inkscape:connector-curvature="0"
       id="path1890"
       style="fill:#ffb27d;fill-opacity:1;fill-rule:nonzero;stroke:none;stroke-width:0.03527778"
       d="m -981.2107,468.04961 c -0.0212,0.004 -0.0388,0.007 -0.0565,0.0106 -49.8299,13.45847 -67.4159,13.26092 -72.4782,12.24844 -2.2472,-0.44802 -3.8277,-3.72533 -3.8277,-3.72533 -9.6238,-29.50279 31.4078,-62.75563 31.4078,-62.75563 0,0 14.1288,-5.51744 19.0642,2.54706 0.9102,1.48167 1.3653,11.26066 1.2206,13.40555 -0.5997,8.88295 -10.481,18.415 -19.9779,26.40189 -5.02,4.22627 -8.9358,7.10141 -9.2674,7.34835 l -0.021,0.0106 c 16.577,-10.22702 50.37309,-1.91559 50.37309,-1.91559 0,0 1.95792,1.38289 2.58233,2.53295 0.98073,1.80622 0.98073,3.89114 0.98073,3.89114" />
    <path
       inkscape:connector-curvature="0"
       id="path1892"
       style="fill:#ffb27d;fill-opacity:1;fill-rule:nonzero;stroke:none;stroke-width:0.03527778"
       d="m -963.89284,313.45534 c -0.62089,2.15547 -4.56142,15.54339 -7.95514,25.8692 -2.08139,6.31472 -3.97933,11.4935 -4.78014,12.18847 -0.62089,0.5468 -3.03036,1.85914 -6.35,3.53836 -4.63197,2.30011 -11.09133,5.1823 -17.14848,7.33425 -3.9053,1.42169 -7.6624,2.51883 -10.6187,2.91747 -1.1288,0.21872 -2.1166,0.25753 -2.9915,0.21872 -5.3622,-0.32808 -5.655,-6.23711 -4.9989,-11.09133 0.2187,-1.38642 0.4763,-2.69875 0.7303,-3.72181 0.3633,-1.49577 0.6914,-2.48002 0.6914,-2.48002 0,0 0.8396,-0.18345 2.2649,-0.47625 2.6987,-0.58209 7.5141,-1.56634 12.9151,-2.44123 5.21763,-0.83961 10.98202,-1.60513 15.83624,-1.82738 0,0 2.6282,-4.78014 5.94783,-10.72445 4.01462,-7.22489 9.01348,-16.16428 11.38414,-20.1048 0.254,-0.40217 0.40217,-0.83961 0.43745,-1.27706 1.31233,1.01953 2.88219,1.78506 4.6355,2.07786" />
    <path
       inkscape:connector-curvature="0"
       id="path1894"
       style="fill:#ffb27d;fill-opacity:1;fill-rule:nonzero;stroke:none;stroke-width:0.03527778"
       d="m -1044.2768,315.06048 c -0.4374,0.98425 -0.9137,1.93322 -1.3511,2.8822 0,0 1.0583,2.44474 2.4835,6.02191 0.035,0.10936 0.071,0.254 0.1447,0.36336 0.254,0.58561 0.4727,1.2065 0.7302,1.86267 1.4605,3.79589 3.1362,8.42786 4.378,12.77055 0.035,0.14464 0.1093,0.29281 0.1446,0.43745 0.8044,2.88219 2.159,6.27239 5.8103,8.67833 1.0124,0.66675 -3.9829,1.42875 -4.0923,2.30364 l -13.0633,9.37683 c 0,0 -0.074,-0.254 -0.2187,-0.76552 -1.0972,-3.64773 -5.8773,-19.77673 -7.3731,-30.97742 -0.3986,-2.69875 -0.5821,-5.07294 -0.4727,-6.97089 0,0 -1.0583,-5.1435 4.5614,-16.74636 2.8822,-5.94783 7.5142,-13.53608 14.9225,-23.02228 0,0 0.8008,-1.35114 1.5311,-2.70227 1.1288,1.13241 3.0021,2.33538 4.2051,3.2138 -0.8926,0.39511 -1.5381,1.16417 -1.6863,1.6757 -1.3864,5.32694 -4.7801,17.44133 -9.2322,28.20458 0,0 0,0.0388 -0.035,0.0741 -0.035,0.14817 -0.1093,0.29281 -0.1834,0.43745 -0.035,0.10936 -0.1094,0.21872 -0.1447,0.36689 -0.254,0.65616 -0.5468,1.31233 -0.8396,1.9685 -0.074,0.18344 -0.1446,0.36336 -0.2187,0.5468" />
    <path
       inkscape:connector-curvature="0"
       id="path1896"
       style="fill:#ffb27d;fill-opacity:1;fill-rule:nonzero;stroke:none;stroke-width:0.03527778"
       d="m -1011.4261,351.54476 -18.4962,7.32366 -1.9614,-8.19502 c -0.1976,-2.4765 0.056,-5.22464 0.4727,-7.75406 0.6773,-4.17689 1.7886,-7.74347 2.0144,-8.43844 0.025,-0.0811 0.039,-0.12348 0.039,-0.12348 l 0.4762,-0.0106 1.5346,-0.0423 10.3964,-0.26811 c -0.4163,1.54869 -0.628,2.98802 -0.6844,4.32505 -0.3845,8.9147 6.2089,13.18331 6.2089,13.18331" />
    <path
       inkscape:connector-curvature="0"
       id="path1898"
       style="fill:#ffb27d;fill-opacity:1;fill-rule:nonzero;stroke:none;stroke-width:0.03527778"
       d="m -1039.8283,346.5847 c 0,0 -8.195,4.52614 -15.9561,19.34281 -2.0391,10.65741 2.5329,27.77066 10.1741,50.0768 l 39.7298,2.16253 c 0,0 -16.9756,-23.61494 -12.9151,-31.73236 4.0569,-8.11742 12.1743,-33.57739 12.1743,-33.57739 l -33.207,-6.27239" />
    <path
       inkscape:connector-curvature="0"
       id="path1900"
       style="fill:#ed975d;fill-opacity:1;fill-rule:nonzero;stroke:none;stroke-width:0.03527778"
       d="m -1017.635,338.36145 c 0,0 -8.6607,4.40267 -13.776,4.55789 0.6773,-4.17689 1.7886,-7.74347 2.0144,-8.43844 0.1728,-0.0529 0.3457,-0.10231 0.515,-0.13406 0.3634,-0.0741 0.7197,-0.10583 1.0725,-0.0847 0.1552,0.0106 0.3069,0.0247 0.4621,0.0423 4.2969,0.49741 9.712,4.05694 9.712,4.05694" />
    <path
       inkscape:connector-curvature="0"
       id="path1902"
       style="fill:#ffb27d;fill-opacity:1;fill-rule:nonzero;stroke:none;stroke-width:0.03527778"
       d="m -1033.5453,336.58345 c 0,0 14.7673,7.48242 19.2828,-1.78505 4.5191,-9.26748 9.4651,-14.5415 0.2294,-19.71322 -9.2358,-5.1682 -12.8059,-2.53295 -15.0637,0.19402 -2.2613,2.72698 -8.1738,19.11703 -4.4485,21.30425" />
    <path
       inkscape:connector-curvature="0"
       id="path1904"
       style="fill:#aa443e;fill-opacity:1;fill-rule:nonzero;stroke:none;stroke-width:0.03527778"
       d="m -1021.9671,315.00756 c 0,0 4.4732,4.45206 3.1573,8.67834 -1.3123,4.2298 0.8114,12.64708 6.5829,13.60664 5.7679,0.96308 12.62589,-18.53848 5.0341,-22.28498 -7.5882,-3.75002 -19.9954,-5.60211 -23.7384,-0.89252 -3.743,4.70958 -2.3037,10.66447 -2.3037,10.66447 0,0 5.1929,-10.06122 11.2678,-9.77195" />
    <path
       inkscape:connector-curvature="0"
       id="path1906"
       style="fill:#ffffff;fill-opacity:1;fill-rule:nonzero;stroke:none;stroke-width:0.03527778"
       d="m -1027.855,333.51781 c 0,0 -0.6068,0.99836 -3.242,-0.0459 0,0 -2.2119,-0.87489 -1.7533,-2.03905 0,0 2.4624,-0.13406 4.9953,2.08491" />
    <path
       inkscape:connector-curvature="0"
       id="path1908"
       style="fill:#ffb27d;fill-opacity:1;fill-rule:nonzero;stroke:none;stroke-width:0.03527778"
       d="m -1027.7245,277.03456 c -0.2857,0.0494 -1.7533,1.38995 -1.6968,1.2947 1.8838,-3.1997 2.7975,-6.05014 2.4835,-7.40833 -0.127,-0.55739 -6.3994,1.08655 -7.4295,3.92641 -0.5291,1.4605 -2.8434,5.75734 -2.8434,5.75734 l 3.5419,1.79563 c 0,0 1.4076,-0.76552 2.025,-0.59266 0.6173,0.16933 2.8046,-0.79728 3.4854,-1.83445 0,0 1.5064,-3.12561 0.4339,-2.93864" />
    <path
       inkscape:connector-curvature="0"
       id="path1910"
       style="fill:#ffb27d;fill-opacity:1;fill-rule:nonzero;stroke:none;stroke-width:0.03527778"
       d="m -963.26137,299.31601 c -1.74625,0.44097 -5.842,6.79803 -5.81731,7.94103 0.004,0.15169 0,0.31044 0.004,0.46566 -0.22225,-0.56797 -0.46919,-1.17475 -0.64558,-1.50989 -0.64911,-1.2453 -1.38642,-0.61736 -1.38642,-0.61736 0.22225,1.32645 0.20109,4.51909 0.86431,5.02003 0.65969,0.49742 0.98072,2.54353 0.98072,2.54353 l 4.62844,2.21897 c 0,0 2.58939,-5.7538 3.66889,-7.44714 2.10256,-3.29141 -0.55033,-9.05933 -2.29658,-8.61483" />
    <path
       inkscape:connector-curvature="0"
       id="path1912"
       style="fill:#365da4;fill-opacity:1;fill-rule:nonzero;stroke:none;stroke-width:0.03527778"
       d="m -1033.51,346.75404 c 0,0 -16.9827,5.23875 -22.7612,19.34986 -1.9827,4.93888 0.032,22.30261 10.1423,49.91805 0,0 -5.2246,4.13808 -6.6957,6.25475 0,0 7.5071,7.03792 6.8157,12.57653 l 1.9191,-2.73403 c 0,0 18.4397,-12.71764 28.3175,-8.07156 9.8777,4.64256 3.3125,19.53684 3.3125,19.53684 0,0 11.042,-11.78984 8.9042,-22.49311 -1.6052,-8.05039 -14.538,-19.72734 -13.2751,-29.79561 1.2594,-10.06475 4.7026,-19.5192 4.7026,-19.5192 0,0 -8.6008,-2.05316 0.702,-24.77558 l -3.8347,0.40569 c 0,0 -7.8917,19.66737 -22.0028,16.40417 -14.1111,-3.26319 5.327,-15.73389 5.327,-15.73389 l -1.5734,-1.32291" />
    <path
       inkscape:connector-curvature="0"
       id="path1914"
       style="fill:#233862;fill-opacity:1;fill-rule:nonzero;stroke:none;stroke-width:0.03527778"
       d="m -1006.0745,415.15765 v 0 c 0,0 -16.196,-12.27667 -15.0495,-21.62528 1.1465,-9.34861 8.9959,-21.75581 8.9959,-21.75581 0,0 -3.4432,9.45445 -4.7026,19.5192 -0.9772,7.79991 6.5617,16.56291 10.7562,23.86189" />
    <path
       inkscape:connector-curvature="0"
       id="path1916"
       style="fill:#233862;fill-opacity:1;fill-rule:nonzero;stroke:none;stroke-width:0.03527778"
       d="m -1046.0089,434.85323 c 0,0 7.7152,-11.27831 10.6574,-13.27503 0,0 -7.8952,-5.42219 -17.4731,0.6985 0,0 6.5652,7.79992 6.8157,12.57653" />
    <g
       transform="matrix(0.05890083,0,0,-0.05890083,-1451.9821,833.82371)"
       id="g1918">
      <path
         inkscape:connector-curvature="0"
         id="path1920"
         style="fill:#699ff0;fill-opacity:1;fill-rule:nonzero;stroke:none"
         d="M 1795.5,2447.73 H 16300 c -222.9,471.67 -1428,-124.09 -2398.3,353.8 -112.6,55.52 -237.4,99.3 -370.8,133.02 -736.1,186.39 -1733.9,67.68 -2402.5,-69.84 -0.4,0 -0.7,-0.05 -1,-0.18 -17,-3.47 -33.8,-6.94 -50.4,-10.48 -0.7,-0.18 -1.5,-0.3 -2.2,-0.48 -5.6,-1.19 -11.1,-2.39 -16.6,-3.59 -0.4,-0.06 -0.8,-0.12 -1.1,-0.18 -220.8,-47.5 -400.5,-95.89 -515,-133.8 -521.3,-172.38 -1219.77,16.53 -1672.09,226.46 -55.64,25.81 -121.46,38.51 -194.89,41.26 -429.5,15.93 -1121.21,-310.19 -1588.68,-359.66 -102.12,-10.84 -193.52,-8.44 -269.16,13.6 -481.13,140.33 -764.31,482.44 -1262.98,189.98 -498.65,-292.46 -1369.4,-228.85 -2296.2,-40.61 -926.79,188.25 -1462.6,-339.3 -1462.6,-339.3" />
    </g>
    <g
       transform="matrix(0.04019515,0,0,-0.04019515,-1451.9821,833.82371)"
       id="g1922">
      <path
         inkscape:connector-curvature="0"
         id="path1924"
         style="fill:#8abfff;fill-opacity:1;fill-rule:nonzero;stroke:none"
         d="m 16122.2,4271.22 c 0,0 177.8,310.08 51.5,348 -126.4,37.91 -59.1,-147.63 -53.4,-200.46 5.7,-52.84 1.9,-147.54 1.9,-147.54" />
    </g>
    <path
       inkscape:connector-curvature="0"
       id="path1926"
       style="fill:#afcdfb;fill-opacity:1;fill-rule:nonzero;stroke:none;stroke-width:0.03527778"
       d="m -1128.1522,664.49038 c 0,0 3.151,-22.08742 12.7466,-18.71839 9.5952,3.3655 -8.5415,10.08239 -12.7466,18.71839" />
    <path
       inkscape:connector-curvature="0"
       id="path1928"
       style="fill:#afcdfb;fill-opacity:1;fill-rule:nonzero;stroke:none;stroke-width:0.03527778"
       d="m -1135.8727,666.97746 c 0,0 -20.0442,-13.86064 -23.6689,-7.03791 -3.6255,6.82272 10.022,0.85372 23.6689,7.03791" />
    <g
       transform="matrix(0.04093351,0,0,-0.04093351,-1451.9821,833.82371)"
       id="g1930">
      <path
         inkscape:connector-curvature="0"
         id="path1932"
         style="fill:#8abfff;fill-opacity:1;fill-rule:nonzero;stroke:none"
         d="m 15875.5,4180.92 c 0,0 205.4,289.14 315,203.91 109.5,-85.23 -118.7,-71.62 -315,-203.91" />
    </g>
    <g
       transform="matrix(0.04960655,0,0,-0.04960655,-1451.9821,833.82371)"
       id="g1934">
      <path
         inkscape:connector-curvature="0"
         id="path1936"
         style="fill:#7aaffc;fill-opacity:1;fill-rule:nonzero;stroke:none"
         d="m 13213.3,3401.43 c 1082.7,209.15 2882.3,-298.61 2983.5,-149.05 103.2,152.33 -130.8,231.97 -130.8,231.97 -874,221.31 -2058.8,80.36 -2852.7,-82.92" />
    </g>
    <path
       inkscape:connector-curvature="0"
       id="path1938"
       style="fill:#8abfff;fill-opacity:1;fill-rule:nonzero;stroke:none;stroke-width:0.03527778"
       d="m -1034.586,679.26471 c 15.8574,0.80434 106.60593,-13.17625 93.57432,-21.1843 v 0 c -25.29769,-0.93839 -66.04002,18.27036 -93.57432,21.1843" />
    <path
       inkscape:connector-curvature="0"
       id="path1940"
       style="fill:#8abfff;fill-opacity:1;fill-rule:nonzero;stroke:none;stroke-width:0.03527778"
       d="m -1033.1996,675.77927 c 0,0 23.5691,-3.73239 15.5716,-11.19717 -7.9939,-7.46125 -5.976,7.37306 -15.5716,11.19717" />
    <g
       transform="matrix(0.06270272,0,0,-0.06270272,-1451.9821,833.82371)"
       id="g1942">
      <path
         inkscape:connector-curvature="0"
         id="path1944"
         style="fill:#2e3552;fill-opacity:1;fill-rule:nonzero;stroke:none"
         d="M 16279.1,2263.97 H 599.463 c -11.521,0 -20.944,9.4 -20.944,20.93 v 15.76 c 0,11.53 9.423,20.93 20.939,20.93 H 16279.1 c 11.5,0 20.9,-9.4 20.9,-20.93 v -15.76 c 0,-11.53 -9.4,-20.93 -20.9,-20.93" />
    </g>
    <g
       transform="matrix(0.03552155,0,0,-0.03552155,-1451.9821,833.82371)"
       id="g1946">
      <path
         inkscape:connector-curvature="0"
         id="path1948"
         style="fill:#f1a34f;fill-opacity:1;fill-rule:nonzero;stroke:none"
         d="m 16300,6294.88 h -5615.9 v 124.24 H 16300 v -124.24" />
    </g>
    <path
       inkscape:connector-curvature="0"
       id="path1950"
       style="fill:#e58638;fill-opacity:1;fill-rule:nonzero;stroke:none;stroke-width:0.03527778"
       d="m -1074.651,610.21905 h 51.5762 v -4.41325 h -51.5762 v 4.41325" />
    <g
       transform="matrix(0.03552155,0,0,-0.03552155,-1451.9821,833.82371)"
       id="g1952">
      <path
         inkscape:connector-curvature="0"
         id="path1954"
         style="fill:#afcdfb;fill-opacity:1;fill-rule:nonzero;stroke:none"
         d="M 14585.2,6295.47 H 16300 v -796.09 h -1714.8 v 796.09" />
    </g>
    <path
       inkscape:connector-curvature="0"
       id="path1956"
       style="fill:#a2c0ed;fill-opacity:1;fill-rule:nonzero;stroke:none;stroke-width:0.03527778"
       d="m -1006.5648,638.47655 h 72.73215 v -28.27867 h -72.73215 v 28.27867" />
    <rect
       style="opacity:1;vector-effect:none;fill:#c5ddff;fill-opacity:1;stroke:none;stroke-width:0.5;stroke-linecap:butt;stroke-linejoin:miter;stroke-miterlimit:4;stroke-dasharray:none;stroke-dashoffset:0;stroke-opacity:1"
       id="rect1762"
       width="88.918892"
       height="16.536444"
       x="245.5305"
       y="665.8631"
       clip-path="url(#clipPath1786)"
       transform="translate(-189.22683,-455.42727)" />
    <g
       style="opacity:1"
       transform="matrix(0.54535285,0,0,0.54535285,21.810225,-105.88608)"
       id="g1618">
      <g
         transform="matrix(0.01971047,0,0,-0.01971047,-173.92488,653.47009)"
         id="g1584">
        <path
           inkscape:connector-curvature="0"
           id="path1582"
           style="fill:#699ff0;fill-opacity:1;fill-rule:nonzero;stroke:none"
           d="m 16142.4,10013.2 65.9,359 c 4.4,24 27.6,40.1 51.7,35.7 24,-4.5 40,-27.7 35.7,-51.7 l -66,-359.02 c -4.4,-24.02 -27.7,-40.07 -51.7,-35.65 -24.1,4.41 -40,27.67 -35.6,51.67" />
      </g>
      <g
         transform="matrix(0.02342137,0,0,-0.02342137,-173.92488,653.47009)"
         id="g1588">
        <path
           inkscape:connector-curvature="0"
           id="path1586"
           style="fill:#c66524;fill-opacity:1;fill-rule:nonzero;stroke:none"
           d="m 13536.8,7840 c 0,0 1836.8,-82.12 2763.2,-1540.44 0,0 -993.8,238.49 -1572.8,-3.58 0,0 -442.1,1086.6 -1190.4,1544.02" />
      </g>
      <g
         transform="matrix(0.0211615,0,0,-0.0211615,-173.92488,653.47009)"
         id="g1592">
        <path
           inkscape:connector-curvature="0"
           id="path1590"
           style="fill:#d16f26;fill-opacity:1;fill-rule:nonzero;stroke:none"
           d="m 16300,6968.35 c 0,0 -1339.2,397.66 -1611.4,143.19 l 293.8,1565.72 c 0,0 1127.9,-697.43 1317.6,-1708.91" />
      </g>
      <g
         transform="matrix(0.01944306,0,0,-0.01944306,-173.92488,653.47009)"
         id="g1596">
        <path
           inkscape:connector-curvature="0"
           id="path1594"
           style="fill:#c66524;fill-opacity:1;fill-rule:nonzero;stroke:none"
           d="m 16300,9445.37 c 0,0 -2103.3,693.83 -3770.7,-551.55 0,0 1221.1,-156.92 1769.4,-677.34 0,0 963,1034.2 2001.3,1228.89" />
      </g>
      <g
         transform="matrix(0.01944306,0,0,-0.01944306,-173.92488,653.47009)"
         id="g1600">
        <path
           inkscape:connector-curvature="0"
           id="path1598"
           style="fill:#d16f26;fill-opacity:1;fill-rule:nonzero;stroke:none"
           d="m 14298.7,8216.48 c 0,0 1516.2,-113.48 1694.6,-477.61 l 306.7,1706.5 c 0,0 -1417.1,-273.26 -2001.3,-1228.89" />
      </g>
      <g
         transform="matrix(0.01951098,0,0,-0.01951098,-173.92488,653.47009)"
         id="g1604">
        <path
           inkscape:connector-curvature="0"
           id="path1602"
           style="fill:#699ff0;fill-opacity:1;fill-rule:nonzero;stroke:none"
           d="M 15096.1,3732.33 16129,9355.82 c 7.7,41.33 47.7,68.94 89,61.35 l 13.1,-2.41 c 41.3,-7.59 68.9,-47.61 61.3,-88.95 L 15259.5,3702.28 c -7.7,-41.3 -47.7,-68.94 -89,-61.31 l -13,2.41 c -41.4,7.55 -69,47.57 -61.4,88.95" />
      </g>
      <g
         style="fill:#e58638;fill-opacity:1"
         transform="matrix(0.02342137,0,0,-0.02342137,-173.92488,653.47009)"
         id="g1608">
        <path
           inkscape:connector-curvature="0"
           id="path1606"
           style="fill:#e58638;fill-opacity:1;fill-rule:nonzero;stroke:none"
           d="m 13784,8508.84 c 1186.5,-365.41 1311.8,-1392.58 1311.8,-1392.58 713.7,-123.07 1200.5,-811.28 1204.2,-816.61 -2.2,13.52 -415,1692.11 -2516,2209.19" />
      </g>
      <g
         style="fill:#e58638;fill-opacity:1"
         transform="matrix(0.01936351,0,0,-0.01936351,-173.92488,653.47009)"
         id="g1612">
        <path
           inkscape:connector-curvature="0"
           id="path1610"
           style="fill:#e58638;fill-opacity:1;fill-rule:nonzero;stroke:none"
           d="M 16300,10354.9 C 14801.4,10451.8 14293.3,9336 14293.3,9336 c -859.9,167.68 -1706,-401.18 -1712.6,-405.59 8.4,14.32 1121.7,1742.99 3719.3,1424.49" />
      </g>
      <g
         transform="matrix(0.02172768,0,0,-0.02172768,-173.92488,653.47009)"
         id="g1616">
        <path
           inkscape:connector-curvature="0"
           id="path1614"
           style="fill:#f1a34f;fill-opacity:1;fill-rule:nonzero;stroke:none"
           d="m 14729.5,9199.38 c 0,0 962.8,-147.84 1344.5,-860.1 0,0 226,-394.31 198.5,-668.31 0,0 -1520.8,1112.6 -3534.4,649.21 0,0 414.1,1158.25 1991.4,879.2" />
      </g>
    </g>
    <g
       id="g1656"
       transform="matrix(0.54535285,0,0,0.54535285,21.810225,-105.88608)"
       style="opacity:0.422;fill:#ffffff">
      <g
         id="g1622"
         transform="matrix(0.01971047,0,0,-0.01971047,-173.92488,653.47009)"
         style="fill:#ffffff">
        <path
           d="m 16142.4,10013.2 65.9,359 c 4.4,24 27.6,40.1 51.7,35.7 24,-4.5 40,-27.7 35.7,-51.7 l -66,-359.02 c -4.4,-24.02 -27.7,-40.07 -51.7,-35.65 -24.1,4.41 -40,27.67 -35.6,51.67"
           style="fill:#ffffff;fill-opacity:1;fill-rule:nonzero;stroke:none"
           id="path1620"
           inkscape:connector-curvature="0" />
      </g>
      <g
         id="g1626"
         transform="matrix(0.02342137,0,0,-0.02342137,-173.92488,653.47009)"
         style="fill:#ffffff">
        <path
           d="m 13536.8,7840 c 0,0 1836.8,-82.12 2763.2,-1540.44 0,0 -993.8,238.49 -1572.8,-3.58 0,0 -442.1,1086.6 -1190.4,1544.02"
           style="fill:#ffffff;fill-opacity:1;fill-rule:nonzero;stroke:none"
           id="path1624"
           inkscape:connector-curvature="0" />
      </g>
      <g
         id="g1630"
         transform="matrix(0.0211615,0,0,-0.0211615,-173.92488,653.47009)"
         style="fill:#ffffff">
        <path
           d="m 16300,6968.35 c 0,0 -1339.2,397.66 -1611.4,143.19 l 293.8,1565.72 c 0,0 1127.9,-697.43 1317.6,-1708.91"
           style="fill:#ffffff;fill-opacity:1;fill-rule:nonzero;stroke:none"
           id="path1628"
           inkscape:connector-curvature="0" />
      </g>
      <g
         id="g1634"
         transform="matrix(0.01944306,0,0,-0.01944306,-173.92488,653.47009)"
         style="fill:#ffffff">
        <path
           d="m 16300,9445.37 c 0,0 -2103.3,693.83 -3770.7,-551.55 0,0 1221.1,-156.92 1769.4,-677.34 0,0 963,1034.2 2001.3,1228.89"
           style="fill:#ffffff;fill-opacity:1;fill-rule:nonzero;stroke:none"
           id="path1632"
           inkscape:connector-curvature="0" />
      </g>
      <g
         id="g1638"
         transform="matrix(0.01944306,0,0,-0.01944306,-173.92488,653.47009)"
         style="fill:#ffffff">
        <path
           d="m 14298.7,8216.48 c 0,0 1516.2,-113.48 1694.6,-477.61 l 306.7,1706.5 c 0,0 -1417.1,-273.26 -2001.3,-1228.89"
           style="fill:#ffffff;fill-opacity:1;fill-rule:nonzero;stroke:none"
           id="path1636"
           inkscape:connector-curvature="0" />
      </g>
      <g
         id="g1642"
         transform="matrix(0.01951098,0,0,-0.01951098,-173.92488,653.47009)"
         style="fill:#ffffff">
        <path
           d="M 15096.1,3732.33 16129,9355.82 c 7.7,41.33 47.7,68.94 89,61.35 l 13.1,-2.41 c 41.3,-7.59 68.9,-47.61 61.3,-88.95 L 15259.5,3702.28 c -7.7,-41.3 -47.7,-68.94 -89,-61.31 l -13,2.41 c -41.4,7.55 -69,47.57 -61.4,88.95"
           style="fill:#ffffff;fill-opacity:1;fill-rule:nonzero;stroke:none"
           id="path1640"
           inkscape:connector-curvature="0" />
      </g>
      <g
         id="g1646"
         transform="matrix(0.02342137,0,0,-0.02342137,-173.92488,653.47009)"
         style="fill:#ffffff;fill-opacity:1">
        <path
           d="m 13784,8508.84 c 1186.5,-365.41 1311.8,-1392.58 1311.8,-1392.58 713.7,-123.07 1200.5,-811.28 1204.2,-816.61 -2.2,13.52 -415,1692.11 -2516,2209.19"
           style="fill:#ffffff;fill-opacity:1;fill-rule:nonzero;stroke:none"
           id="path1644"
           inkscape:connector-curvature="0" />
      </g>
      <g
         id="g1650"
         transform="matrix(0.01936351,0,0,-0.01936351,-173.92488,653.47009)"
         style="fill:#ffffff;fill-opacity:1">
        <path
           d="M 16300,10354.9 C 14801.4,10451.8 14293.3,9336 14293.3,9336 c -859.9,167.68 -1706,-401.18 -1712.6,-405.59 8.4,14.32 1121.7,1742.99 3719.3,1424.49"
           style="fill:#ffffff;fill-opacity:1;fill-rule:nonzero;stroke:none"
           id="path1648"
           inkscape:connector-curvature="0" />
      </g>
      <g
         id="g1654"
         transform="matrix(0.02172768,0,0,-0.02172768,-173.92488,653.47009)"
         style="fill:#ffffff">
        <path
           d="m 14729.5,9199.38 c 0,0 962.8,-147.84 1344.5,-860.1 0,0 226,-394.31 198.5,-668.31 0,0 -1520.8,1112.6 -3534.4,649.21 0,0 414.1,1158.25 1991.4,879.2"
           style="fill:#ffffff;fill-opacity:1;fill-rule:nonzero;stroke:none"
           id="path1652"
           inkscape:connector-curvature="0" />
      </g>
    </g>
    <g
       transform="matrix(-0.75443107,0,0,0.75443107,141.88299,-208.31146)"
       id="g1678">
      <g
         transform="matrix(0.0151849,0,0,-0.0151849,-143.25471,614.7786)"
         id="g1664">
        <path
           inkscape:connector-curvature="0"
           id="path1662"
           style="fill:#c5ddff;fill-opacity:1;fill-rule:nonzero;stroke:none"
           d="m 16300,5501.13 h -1188.7 l -541,-813.63 h -2493.1 l 776.3,-105.9 h 2844.4 l 602.1,919.53" />
      </g>
      <g
         transform="matrix(0.01414015,0,0,-0.01414015,-143.25471,614.7786)"
         id="g1668">
        <path
           inkscape:connector-curvature="0"
           id="path1666"
           style="fill:#a2c0ed;fill-opacity:1;fill-rule:nonzero;stroke:none"
           d="m 16204.4,4774.31 95.6,-603.73 h -137.1 l -259.8,603.28 301.3,0.45" />
      </g>
      <g
         transform="matrix(0.01531068,0,0,-0.01531068,-143.25471,614.7786)"
         id="g1672">
        <path
           inkscape:connector-curvature="0"
           id="path1670"
           style="fill:#afcdfb;fill-opacity:1;fill-rule:nonzero;stroke:none"
           d="m 12817.3,4408.9 h -69.4 v 135.08 H 15569 l 597.2,911.98 133.8,-87.64 -628,-959 -0.3,0.27 v -0.27 h 0.3 l 88.4,-557.58 h -126.7 l -239.9,557.16 h -2298.2 l -239.9,-557.16 h -126.6 l 88.2,557.16" />
      </g>
      <g
         transform="matrix(0.01197418,0,0,-0.01197418,-143.25471,614.7786)"
         id="g1676">
        <path
           inkscape:connector-curvature="0"
           id="path1674"
           style="fill:#a2c0ed;fill-opacity:1;fill-rule:nonzero;stroke:none"
           d="m 15315.6,5944.42 984.4,-134.3 v -172.73 l -362.7,56.57 -272.7,-768.98 h -161.9 l 106.9,820.03 -294,45.89 v 153.52" />
      </g>
    </g>
    <g
       transform="matrix(-0.66771092,0,0,0.66771092,123.72506,-161.29565)"
       id="g1720">
      <path
         inkscape:connector-curvature="0"
         id="path1684"
         style="fill:url(#linearGradient1748);fill-opacity:1;fill-rule:nonzero;stroke:none;stroke-width:0.01064987"
         d="m 13.743178,501.567 c 0,0 5.33239,-5.5326 9.893727,-8.89797 0.312047,-0.84347 0.48244,-1.9649 0.48244,-1.9649 0.255599,0.46646 0.216195,1.07031 0.132061,1.52187 1.238574,-0.87223 2.397286,-1.55168 3.347255,-1.8765 0.319492,-1.85628 -1.466494,-3.80627 -1.466494,-3.80627 1.533583,0.62089 2.155537,2.66779 2.358951,3.60498 0.165074,-0.0128 0.318431,-0.009 0.460077,0.0149 0,0 0.153356,-6.26744 -9.418747,-6.26744 -3.724258,0 -3.190703,-6.4698 -8.492206,-6.00547 0,0 -5.7892705,1.13102 -4.7083105,6.18012 1.0809671,5.0491 -0.6954337,6.18012 -1.3131226,7.31114 -0.6166269,1.13208 2.0075014,9.05346 8.7243691,10.18552" />
      <path
         inkscape:connector-curvature="0"
         id="path1686"
         style="fill:#af7e6f;fill-opacity:1;fill-rule:nonzero;stroke:none;stroke-width:0.01064987"
         d="m 6.4586718,533.56346 c 0,0 -4.5837102,1.5911 -6.09385754,1.39087 0,0 -0.10010972,-0.77318 1.22793344,-1.49311 1.3290981,-0.721 2.4728964,-3.12467 3.1949606,-2.94255 0.7209943,0.1821 1.6752211,0.83282 1.6752211,0.83282 l -0.00431,2.21197" />
      <path
         inkscape:connector-curvature="0"
         id="path1688"
         style="fill:#c88f7d;fill-opacity:1;fill-rule:nonzero;stroke:none;stroke-width:0.01064987"
         d="m -0.07289536,526.44935 c 0,0 -4.78711044,-0.78595 -6.01930144,-1.68162 0,0 0.2800891,-0.72844 1.7913064,-0.72844 1.5122801,0 3.66355224,-1.5666 4.21095674,-1.06286 0.54740531,0.50373 1.07563952,1.53039 1.07563952,1.53039 l -1.05860122,1.94253" />
      <path
         inkscape:connector-curvature="0"
         id="path1690"
         style="fill:#af7e6f;fill-opacity:1;fill-rule:nonzero;stroke:none;stroke-width:0.01064987"
         d="m 6.4554771,533.56772 c 1.3046074,-0.0416 2.530408,-0.098 3.6827219,-0.16614 17.475367,-1.03197 17.985501,-4.9181 17.985501,-4.9181 2.906342,-8.90542 -8.772301,-17.74908 -8.772301,-17.74908 0,0 -7.085356,-0.9947 -6.804197,3.1694 0.281152,4.1641 10.084362,12.34639 10.084362,12.34639 -3.26419,0.30566 -8.57102,2.14063 -12.209011,3.52405 -2.3206111,0.88287 -3.9628183,1.5815 -3.9628183,1.5815 0,0 -0.3099144,0.52823 -0.2641136,1.1225 0.049013,0.64431 0.259856,1.08948 0.259856,1.08948" />
      <path
         inkscape:connector-curvature="0"
         id="path1692"
         style="fill:#c88f7d;fill-opacity:1;fill-rule:nonzero;stroke:none;stroke-width:0.01064987"
         d="m -0.08993366,526.44616 c 0.00652,0.002 0.011712,0.002 0.017057,0.003 15.04294366,4.06291 20.35189866,4.00328 21.88016066,3.69762 0.678389,-0.13525 1.155509,-1.12462 1.155509,-1.12462 2.905279,-8.90649 -9.481578,-18.94505 -9.481578,-18.94505 0,0 -4.2652734,-1.66565 -5.7551877,0.76892 -0.2747686,0.44729 -0.412149,3.39943 -0.368488,4.04694 0.1810493,2.68165 3.1640727,5.55924 6.0310187,7.97037 1.515475,1.27586 2.697615,2.14382 2.797717,2.21836 l 0.0065,0.003 c -5.004376,-3.08739 -15.20694768,-0.57829 -15.20694768,-0.57829 0,0 -0.59106633,0.41747 -0.77956798,0.76466 -0.2960716,0.54527 -0.2960716,1.17468 -0.2960716,1.17468" />
      <path
         inkscape:connector-curvature="0"
         id="path1694"
         style="fill:#c88f7d;fill-opacity:1;fill-rule:nonzero;stroke:none;stroke-width:0.01064987"
         d="m -5.3179564,479.77631 c 0.1874396,0.6507 1.3770317,4.69232 2.40155,7.80954 0.6283369,1.90633 1.2013029,3.46973 1.4430515,3.67953 0.1874387,0.16507 0.91482344,0.56126 1.91697589,1.06819 1.39832761,0.69436 3.34831731,1.56446 5.17690131,2.2141 1.178945,0.42918 2.3131511,0.7604 3.2056096,0.88075 0.3408025,0.066 0.638999,0.0778 0.9031126,0.066 1.6187805,-0.099 1.7071725,-1.8829 1.5090845,-3.34832 -0.066,-0.41853 -0.143771,-0.81472 -0.220453,-1.12356 -0.109687,-0.45156 -0.208734,-0.74868 -0.208734,-0.74868 0,0 -0.253466,-0.0554 -0.683723,-0.14377 -0.8147139,-0.17573 -2.2684204,-0.47286 -3.8989177,-0.73698 -1.5751114,-0.25347 -3.3153035,-0.48457 -4.780727,-0.55167 0,0 -0.79341067,-1.44305 -1.79556396,-3.23755 -1.21195804,-2.18109 -2.72104254,-4.87977 -3.43670934,-6.06936 -0.076681,-0.12141 -0.1214127,-0.25347 -0.1320598,-0.38553 -0.3961744,0.30778 -0.8700926,0.53888 -1.3993976,0.62728" />
      <path
         inkscape:connector-curvature="0"
         id="path1696"
         style="fill:#c88f7d;fill-opacity:1;fill-rule:nonzero;stroke:none;stroke-width:0.01064987"
         d="m 18.948834,480.26087 c 0.132061,0.29714 0.275832,0.58362 0.407893,0.87009 0,0 -0.319494,0.73805 -0.749751,1.81794 -0.01063,0.033 -0.02125,0.0767 -0.04366,0.10969 -0.07668,0.17679 -0.142708,0.36423 -0.220453,0.56231 -0.440905,1.14593 -0.946773,2.54426 -1.321645,3.85526 -0.01063,0.0437 -0.03303,0.0884 -0.04366,0.13206 -0.24281,0.87008 -0.651772,1.89355 -1.754028,2.61987 -0.305656,0.20127 1.202366,0.43131 1.235386,0.69543 l 3.943641,2.83073 c 0,0 0.02234,-0.0767 0.06607,-0.2311 0.331211,-1.10119 1.774268,-5.97031 2.225822,-9.35164 0.120343,-0.81473 0.175721,-1.53146 0.142708,-2.10442 0,0 0.319492,-1.55275 -1.377032,-5.05549 -0.870093,-1.79557 -2.268419,-4.08636 -4.504889,-6.9501 0,0 -0.241755,-0.4079 -0.462208,-0.81579 -0.340794,0.34187 -0.9063,0.70503 -1.269462,0.9702 0.269442,0.11929 0.464334,0.35145 0.509065,0.50587 0.41854,1.60814 1.443051,5.2653 2.787069,8.51457 0,0 0,0.0117 0.01063,0.0224 0.01063,0.0447 0.03304,0.0884 0.05537,0.13206 0.01063,0.033 0.03304,0.066 0.04366,0.11076 0.07668,0.19808 0.165074,0.39618 0.253467,0.59426 0.02241,0.0554 0.04366,0.10969 0.066,0.16507" />
      <path
         inkscape:connector-curvature="0"
         id="path1698"
         style="fill:#c88f7d;fill-opacity:1;fill-rule:nonzero;stroke:none;stroke-width:0.01064987"
         d="m 9.0316789,491.27496 5.5837231,2.21092 0.592136,-2.47397 c 0.05963,-0.74762 -0.01706,-1.57724 -0.142708,-2.34084 -0.204477,-1.26094 -0.539952,-2.33764 -0.608111,-2.54745 -0.0075,-0.0245 -0.01171,-0.0373 -0.01171,-0.0373 l -0.143778,-0.003 -0.46327,-0.0128 -3.138513,-0.0809 c 0.12567,0.46752 0.189571,0.90204 0.20661,1.30567 0.116085,2.69123 -1.874378,3.97986 -1.874378,3.97986" />
      <path
         inkscape:connector-curvature="0"
         id="path1700"
         style="fill:#c88f7d;fill-opacity:1;fill-rule:nonzero;stroke:none;stroke-width:0.01064987"
         d="m 17.605886,489.77759 c 0,0 2.473967,1.36638 4.816936,5.83933 0.615564,3.21733 -0.764663,8.38357 -3.071423,15.11748 l -11.9938793,0.65284 c 0,0 5.1247183,-7.12902 3.8989173,-9.57956 -1.224738,-2.45053 -3.675269,-10.13655 -3.675269,-10.13655 l 10.024718,-1.89354" />
      <path
         inkscape:connector-curvature="0"
         id="path1702"
         style="fill:#af7e6f;fill-opacity:1;fill-rule:nonzero;stroke:none;stroke-width:0.01064987"
         d="m 10.906057,487.2951 c 0,0 2.614542,1.32911 4.158773,1.37597 -0.204477,-1.26094 -0.539952,-2.33764 -0.608111,-2.54745 -0.05219,-0.0159 -0.104368,-0.0309 -0.155489,-0.0405 -0.109688,-0.0224 -0.217258,-0.032 -0.323757,-0.0256 -0.04684,0.003 -0.09265,0.007 -0.139513,0.0128 -1.297148,0.15016 -2.931903,1.22473 -2.931903,1.22473" />
      <path
         inkscape:connector-curvature="0"
         id="path1704"
         style="fill:#c88f7d;fill-opacity:1;fill-rule:nonzero;stroke:none;stroke-width:0.01064987"
         d="m 15.709143,486.75835 c 0,0 -4.458033,2.25884 -5.8212152,-0.53888 -1.3642509,-2.79772 -2.8573599,-4.38988 -0.069249,-5.95114 2.7881322,-1.56021 3.8658972,-0.76466 4.5474872,0.0586 0.682661,0.82324 2.467577,5.77116 1.342949,6.43146" />
      <path
         inkscape:connector-curvature="0"
         id="path1706"
         style="fill:url(#linearGradient1750);fill-opacity:1;fill-rule:nonzero;stroke:none;stroke-width:0.01064987"
         d="m 12.213859,480.2449 c 0,0 -1.350401,1.34401 -0.953164,2.61986 0.396175,1.27692 -0.24495,3.81799 -1.9872614,4.10766 -1.741255,0.29074 -3.8115946,-5.5965 -1.5197395,-6.72752 2.2907849,-1.13209 6.0363459,-1.6912 7.1662949,-0.26944 1.129956,1.42175 0.695442,3.21945 0.695442,3.21945 0,0 -1.567666,-3.03734 -3.401572,-2.95001" />
      <path
         inkscape:connector-curvature="0"
         id="path1708"
         style="fill:#ffffff;fill-opacity:1;fill-rule:nonzero;stroke:none;stroke-width:0.01064987"
         d="m 13.991323,485.83289 c 0,0 0.183174,0.30138 0.978717,-0.0139 0,0 0.667749,-0.26412 0.529305,-0.61557 0,0 -0.74336,-0.0405 -1.508022,0.62941" />
      <path
         inkscape:connector-curvature="0"
         id="path1710"
         style="fill:#c88f7d;fill-opacity:1;fill-rule:nonzero;stroke:none;stroke-width:0.01064987"
         d="m 13.951919,468.78138 c 0.08626,0.0149 0.529298,0.4196 0.51226,0.39084 -0.568708,-0.96593 -0.84454,-1.82645 -0.749758,-2.23646 0.03831,-0.16827 1.93189,0.32802 2.242867,1.18533 0.159746,0.44091 0.858375,1.73806 0.858375,1.73806 l -1.069242,0.54207 c 0,0 -0.42493,-0.2311 -0.611299,-0.17891 -0.186377,0.0511 -0.846672,-0.24069 -1.052212,-0.55379 0,0 -0.454748,-0.94358 -0.130991,-0.88714" />
      <path
         inkscape:connector-curvature="0"
         id="path1712"
         style="fill:#c88f7d;fill-opacity:1;fill-rule:nonzero;stroke:none;stroke-width:0.01064987"
         d="m -5.5085837,475.50784 c 0.5271652,0.13312 1.7636138,2.05223 1.7561606,2.39728 -0.00141,0.0459 0,0.0937 -0.00141,0.14058 0.067083,-0.17147 0.1416379,-0.35464 0.1948919,-0.45581 0.195954,-0.37595 0.4185394,-0.18638 0.4185394,-0.18638 -0.067083,0.40043 -0.060725,1.36426 -0.2609259,1.51548 -0.1991496,0.15016 -0.2960646,0.76786 -0.2960646,0.76786 l -1.3972648,0.66987 c 0,0 -0.7816998,-1.737 -1.1075826,-2.24819 -0.6347344,-0.99363 0.1661366,-2.73488 0.6933009,-2.60069" />
      <path
         inkscape:connector-curvature="0"
         id="path1714"
         style="fill:#f289b3;fill-opacity:1;fill-rule:nonzero;stroke:none;stroke-width:0.01064987"
         d="m 15.698495,489.82871 c 0,0 5.12685,1.58151 6.8713,5.84145 0.598519,1.49099 -0.0095,6.73285 -3.061845,15.06957 0,0 1.577251,1.24923 2.021351,1.88822 0,0 -2.266295,2.12465 -2.05756,3.79667 l -0.579348,-0.82536 c 0,0 -5.566686,-3.83927 -8.548654,-2.43668 -2.9819616,1.40152 -1.0000209,5.89789 -1.0000209,5.89789 0,0 -3.3334039,-3.55918 -2.6880295,-6.79035 0.4845742,-2.43031 4.3888114,-5.95541 4.0075494,-8.99488 -0.380199,-3.03841 -1.4196297,-5.89258 -1.4196297,-5.89258 0,0 2.5964427,-0.61982 -0.2119294,-7.4794 l 1.1576411,0.12247 c 0,0 2.382373,5.93731 6.642325,4.9522 4.259946,-0.98512 -1.608131,-4.74984 -1.608131,-4.74984 l 0.474981,-0.39938" />
      <path
         inkscape:connector-curvature="0"
         id="path1716"
         style="fill:#ef659e;fill-opacity:1;fill-rule:nonzero;stroke:none;stroke-width:0.01064987"
         d="m 7.4160942,510.47881 v 0 c 0,0 4.8893528,-3.70616 4.5432298,-6.52837 -0.346115,-2.82222 -2.7157157,-6.56778 -2.7157157,-6.56778 0,0 1.0394307,2.85417 1.4196297,5.89258 0.295002,2.35469 -1.9808777,5.00011 -3.2471438,7.20357" />
      <path
         inkscape:connector-curvature="0"
         id="path1718"
         style="fill:#ef659e;fill-opacity:1;fill-rule:nonzero;stroke:none;stroke-width:0.01064987"
         d="m 19.471741,516.42462 c 0,0 -2.329126,-3.40476 -3.217325,-4.00753 0,0 2.383441,-1.6369 5.274885,0.21086 0,0 -1.981941,2.35469 -2.05756,3.79667" />
    </g>
    <g
       id="g1728"
       transform="matrix(0.01213436,0,0,-0.01213436,-93.005256,268.61593)">
      <path
         d="m 16122.2,4271.22 c 0,0 177.8,310.08 51.5,348 -126.4,37.91 -59.1,-147.63 -53.4,-200.46 5.7,-52.84 1.9,-147.54 1.9,-147.54"
         style="fill:#8abfff;fill-opacity:1;fill-rule:nonzero;stroke:none"
         id="path1726"
         inkscape:connector-curvature="0" />
    </g>
    <g
       id="g1736"
       transform="matrix(0.01235726,0,0,-0.01235726,-93.005256,268.61593)">
      <path
         d="m 15875.5,4180.92 c 0,0 205.4,289.14 315,203.91 109.5,-85.23 -118.7,-71.62 -315,-203.91"
         style="fill:#8abfff;fill-opacity:1;fill-rule:nonzero;stroke:none"
         id="path1734"
         inkscape:connector-curvature="0" />
    </g>
    <path
       d="m 61.382735,218.94032 c 4.93028,0.27451 27.83912,-2.92351 22.09743,-5.74119 v 0"
       style="fill:#79b0df;fill-opacity:1;fill-rule:nonzero;stroke:none;stroke-width:0.01064987"
       id="path1742"
       inkscape:connector-curvature="0"
       sodipodi:nodetypes="ccc" />
    <path
       style="fill:#59a1d8;fill-opacity:1;stroke:none;stroke-width:0.26458332px;stroke-linecap:butt;stroke-linejoin:miter;stroke-opacity:1"
       d="m 245.5305,675.02905 v 20.86763 h 88.91889 v -27.71846 c -1.84516,-0.26359 -16.41718,2.0673 -30.23809,5.71688 -13.82091,3.64958 -26.47746,-5.2687 -31.50431,-5.2687 3.36074,3.00577 -17.11358,5.135 -27.17649,6.40265 z"
       id="path1752"
       inkscape:connector-curvature="0"
       sodipodi:nodetypes="cccczcc"
       clip-path="url(#clipPath1776)"
       transform="translate(-189.22683,-455.42727)" />
    <g
       transform="matrix(-0.01171172,-0.00317463,0.00317463,-0.01171172,238.83292,318.38998)"
       id="g1756">
      <path
         inkscape:connector-curvature="0"
         id="path1754"
         style="fill:#8abfff;fill-opacity:1;fill-rule:nonzero;stroke:none"
         d="m 16122.2,4271.22 c 0,0 177.8,310.08 51.5,348 -126.4,37.91 -59.1,-147.63 -53.4,-200.46 5.7,-52.84 1.9,-147.54 1.9,-147.54" />
    </g>
    <g
       transform="matrix(-0.01192686,-0.00323295,0.00323295,-0.01192686,238.83292,318.38998)"
       id="g1760">
      <path
         inkscape:connector-curvature="0"
         id="path1758"
         style="fill:#8abfff;fill-opacity:1;fill-rule:nonzero;stroke:none"
         d="m 15875.5,4180.92 c 0,0 205.4,289.14 315,203.91 109.5,-85.23 -118.7,-71.62 -315,-203.91" />
    </g>
    <path
       sodipodi:nodetypes="ccc"
       inkscape:connector-curvature="0"
       id="path2202"
       d="m 107.26468,136.31161 c 11.73197,8.01904 23.42417,7.61035 32.88392,0 -9.121,1.72529 -16.14808,5.41362 -32.88392,0 z"
       style="fill:#ffffff;fill-opacity:1;stroke:none;stroke-width:0.26458332px;stroke-linecap:butt;stroke-linejoin:miter;stroke-opacity:1" />
    <g
       transform="translate(-138.44562,-496.85405)"
       id="g2221"
       clip-path="url(#clipPath2231)">
      <circle
         style="opacity:1;vector-effect:none;fill:#ffffff;fill-opacity:1;stroke:none;stroke-width:0.5;stroke-linecap:butt;stroke-linejoin:miter;stroke-miterlimit:4;stroke-dasharray:none;stroke-dashoffset:0;stroke-opacity:1"
         id="circle2215"
         cx="263.86185"
         cy="629.28284"
         r="13.296659" />
      <circle
         r="7.4167299"
         cy="629.68372"
         cx="249.02838"
         id="circle2217"
         style="opacity:1;vector-effect:none;fill:#ffffff;fill-opacity:1;stroke:none;stroke-width:0.27889448;stroke-linecap:butt;stroke-linejoin:miter;stroke-miterlimit:4;stroke-dasharray:none;stroke-dashoffset:0;stroke-opacity:1" />
      <circle
         style="opacity:1;vector-effect:none;fill:#ffffff;fill-opacity:1;stroke:none;stroke-width:0.27889448;stroke-linecap:butt;stroke-linejoin:miter;stroke-miterlimit:4;stroke-dasharray:none;stroke-dashoffset:0;stroke-opacity:1"
         id="circle2219"
         cx="276.28989"
         cy="635.02911"
         r="7.4167299" />
    </g>
  </g>
</svg>
